<svg xmlns="http://www.w3.org/2000/svg" viewBox="0 0 2093.74 1279.13"><defs><style>.cls-1{fill:#bed5dc;}.cls-2{fill:#b2c9c6;}.cls-3{fill:#cfd3a3;}.cls-4{fill:#9bbcb6;}.cls-5{fill:#74a1bd;}.cls-6{fill:#c4c695;}.cls-7{opacity:0.6;}.cls-8{opacity:0.5;}.cls-9{fill:#96a7e2;}.cls-10{fill:#afc0ef;}.cls-11{fill:#eaa678;}.cls-12{fill:#2f1a31;}.cls-13{fill:#6f4975;}.cls-14{fill:#020202;}.cls-15{fill:#e28569;}.cls-16{fill:#f7b686;}.cls-17{fill:#fff;}.cls-18{fill:#060633;}.cls-19{opacity:0.3;}.cls-20{fill:#db6b49;}.cls-21{fill:#436e8e;}.cls-22{fill:#ced891;}.cls-23{fill:#56335b;}</style></defs><g id="Layer_2" data-name="Layer 2"><g id="_Layer_" data-name="&lt;Layer&gt;"><path class="cls-1" d="M1950.07,1151.24c0,70.64-425,127.89-949.36,127.89S51.35,1221.88,51.35,1151.24s425-127.89,949.36-127.89S1950.07,1080.61,1950.07,1151.24Z"/><path class="cls-2" d="M308.2,745.42c-6.22,5.13-9.7,4.68-11.71,2.25s-1.8-5.95,4.42-11.08c11.34-9.35,20.46-9.46,20.46-9.46S319.7,735.93,308.2,745.42Z"/><path class="cls-2" d="M316.14,797.09c-4.23,6.87-7.67,7.57-10.36,5.91s-3.62-5,.61-11.91c7.69-12.52,16.29-15.57,16.29-15.57S324,784.39,316.14,797.09Z"/><path class="cls-2" d="M334.52,931.92,333,932c0-.24-1.87-23.86-15.18-56.76-12.29-30.35-37.14-75-85.73-115.55l1-1.18c48.86,40.74,73.84,85.69,86.19,116.22C332.65,907.87,334.5,931.68,334.52,931.92Z"/><path class="cls-2" d="M283,811.52l-1.4-.61c22.13-50.83-4.64-104-4.91-104.49l1.35-.7C278.33,706.26,305.44,760,283,811.52Z"/><path class="cls-2" d="M256.39,790.71a54.23,54.23,0,0,1-28.26-3.42l.64-1.39c.16.08,16.56,7.5,34.19,1.64l.48,1.44A44.13,44.13,0,0,1,256.39,790.71Z"/><path class="cls-2" d="M326.53,898.36c-31.53,1.45-59-9.62-81.79-32.9-.79-.81-1.53-1.57-1.73-1.7a.48.48,0,0,0,.16.06l.25-1.51c.44.07.77.39,2.41,2.08,22.43,23,49.55,33.87,80.63,32.45Z"/><path class="cls-2" d="M280.14,889.15l-1.52-.16c2.18-20.6-15.65-47.53-15.83-47.8l1.27-.85a127.09,127.09,0,0,1,8.88,16.34C276.87,865.38,281.31,878.07,280.14,889.15Z"/><path class="cls-2" d="M229.74,751.47c9.13,5.92,10.45,9.83,8.73,12.48s-5.83,3-15-2.87C206.88,750.31,202,740.3,202,740.3S212.86,740.54,229.74,751.47Z"/><path class="cls-2" d="M231.39,781.76c10.49,2.89,12.93,6.22,12.09,9.27s-4.64,4.66-15.13,1.77c-19.11-5.25-26.82-13.32-26.82-13.32S212,776.43,231.39,781.76Z"/><path class="cls-2" d="M266.5,835.56c4.78,6.5,4.14,10,1.6,11.83s-6,1.46-10.82-5c-8.72-11.83-8.32-21-8.32-21S257.65,823.56,266.5,835.56Z"/><path class="cls-2" d="M268,764.22c3.06,7.46,1.6,10.66-1.32,11.86s-6.21-.05-9.27-7.52c-5.58-13.59-3-22.33-3-22.33S262.3,750.43,268,764.22Z"/><path class="cls-2" d="M298.8,878c.84,8-1.46,10.67-4.61,11s-5.94-1.79-6.78-9.81c-1.53-14.61,3.42-22.27,3.42-22.27S297.25,863.14,298.8,878Z"/><path class="cls-2" d="M251.34,863c6.06,5.32,6.17,8.82,4.09,11.2s-5.58,2.72-11.65-2.6c-11-9.69-12.61-18.67-12.61-18.67S240.13,853.18,251.34,863Z"/><path class="cls-2" d="M280.25,699.11c4.18,10,3.06,14,.14,15.23s-6.53-.79-10.71-10.83c-7.61-18.3-6-29.34-6-29.34S272.53,680.55,280.25,699.11Z"/><path class="cls-2" d="M1132.47,584.9c6.23,5.13,9.71,4.68,11.72,2.24s1.79-5.94-4.43-11.07c-11.33-9.36-20.45-9.46-20.45-9.46S1121,575.41,1132.47,584.9Z"/><path class="cls-2" d="M1124.54,636.57c4.22,6.87,7.66,7.57,10.36,5.91s3.62-5-.61-11.91C1126.59,618.05,1118,615,1118,615S1116.73,623.87,1124.54,636.57Z"/><path class="cls-2" d="M1106.16,771.4l1.52.1c0-.23,1.86-23.85,15.18-56.75,12.29-30.35,37.13-75,85.72-115.55l-1-1.18c-48.86,40.74-73.84,85.69-86.19,116.22C1108,747.35,1106.17,771.16,1106.16,771.4Z"/><path class="cls-2" d="M1157.66,651l1.4-.61c-22.12-50.84,4.65-104,4.92-104.49l-1.36-.7C1162.35,545.74,1135.24,599.49,1157.66,651Z"/><path class="cls-2" d="M1184.29,630.19a54.09,54.09,0,0,0,28.26-3.43l-.64-1.38c-.17.08-16.57,7.5-34.2,1.64l-.48,1.44A44.24,44.24,0,0,0,1184.29,630.19Z"/><path class="cls-2" d="M1114.15,737.84c31.53,1.45,59-9.62,81.78-32.9.79-.81,1.54-1.57,1.74-1.7a.49.49,0,0,1-.17.06l-.24-1.51c-.45.07-.77.39-2.42,2.08-22.42,23-49.54,33.87-80.62,32.44Z"/><path class="cls-2" d="M1160.54,728.63l1.52-.16c-2.18-20.6,15.65-47.53,15.83-47.8l-1.27-.85a127.09,127.09,0,0,0-8.88,16.34C1163.81,704.86,1159.36,717.55,1160.54,728.63Z"/><path class="cls-2" d="M1210.94,591c-9.13,5.92-10.45,9.83-8.73,12.48s5.82,3.05,15-2.87c16.64-10.77,21.56-20.78,21.56-20.78S1227.82,580,1210.94,591Z"/><path class="cls-2" d="M1209.29,621.24c-10.49,2.89-12.93,6.22-12.09,9.27s4.64,4.66,15.13,1.77c19.1-5.26,26.82-13.32,26.82-13.32S1228.67,615.91,1209.29,621.24Z"/><path class="cls-2" d="M1174.18,675c-4.78,6.5-4.14,10-1.6,11.83s6,1.46,10.82-5c8.71-11.83,8.32-20.94,8.32-20.94S1183,663,1174.18,675Z"/><path class="cls-2" d="M1172.72,603.7c-3.06,7.46-1.6,10.65,1.33,11.85s6.21,0,9.27-7.51c5.57-13.59,3-22.34,3-22.34S1178.38,589.9,1172.72,603.7Z"/><path class="cls-2" d="M1141.88,717.45c-.84,8,1.46,10.67,4.6,11s6-1.79,6.79-9.81c1.53-14.61-3.43-22.27-3.43-22.27S1143.43,702.62,1141.88,717.45Z"/><path class="cls-2" d="M1189.34,702.5c-6.06,5.31-6.18,8.82-4.09,11.2s5.58,2.72,11.64-2.6c11-9.69,12.61-18.68,12.61-18.68S1200.55,692.66,1189.34,702.5Z"/><path class="cls-2" d="M1160.43,538.59c-4.18,10-3.06,14-.14,15.23S1166.82,553,1171,543c7.61-18.3,6-29.34,6-29.34S1168.15,520,1160.43,538.59Z"/><path class="cls-2" d="M327.67,1051S204.05,800.12,137.23,836.22,257.32,986,291,1060.16Z"/><path class="cls-3" d="M502.8,1003.08S626.43,752.19,693.24,788.29,573.15,938.06,539.48,1012.23Z"/><path class="cls-2" d="M516.69,980.7S668.3,801.48,715.38,844.45,587.18,942,544.7,995.59Z"/><path class="cls-4" d="M264.14,1002.61S113.28,811.55,51.79,856.77s135.58,104.35,177.35,161.44Z"/><path class="cls-5" d="M244.64,1011.51c-28.13-40-72.2-73.35-104.21-94.33a584.87,584.87,0,0,0-63.38-36.33l.83-1.77a590.42,590.42,0,0,1,63.62,36.47c32.15,21.07,76.43,54.63,104.74,94.83Z"/><path class="cls-3" d="M59.33,1053.67c36.8,10.56,26.84,66.67,70.08,59s39.91-10.64,59.14,9.2c0,0,6.79,18.4,23.51,22.49,66,16.16,163.85-76.51,97.81-135.56-4.77-4.27-12-6.27-20-8.07-43.52-9.79-58.56,9.48-89.75-44.64s-83.17,17-112.48,12.47S32.91,953.43,7.85,983.15,22.52,1043.13,59.33,1053.67Z"/><path class="cls-6" d="M283.82,1079.24l1.54-2c-.87-.68-90.05-68.19-283.39-85.58l-.22,2.51C194.36,1011.51,283,1078.57,283.82,1079.24Z"/><path class="cls-6" d="M168.31,996.46c27.07-21.29,32.78-39.24,33-40l-2.41-.74c-.06.18-5.78,18-32.16,38.75Z"/><path class="cls-6" d="M162.09,1023.28c8-12.17,8.54-30.44,1.53-52.83a167.17,167.17,0,0,0-13-30.3l-2.18,1.26c.3.52,30,52.5,11.57,80.48Z"/><path class="cls-6" d="M111.42,1015.52c3.2-2.34,5-3.88,5-3.95l-1.68-1.88c-.37.33-37.32,32.81-88.34,27.88l-.24,2.5C67.31,1044.05,99.46,1024.25,111.42,1015.52Z"/><path class="cls-6" d="M82.45,1072c12.53-12.24,16.72-25,18-33.6a43.74,43.74,0,0,0-.19-16l-2.44.61c.06.24,5.78,24.74-17.16,47.15Z"/><g class="cls-7"><path class="cls-2" d="M1587.09,1033.17s124.82-442,243.49-403.62S1681.31,907.2,1649.05,1037Z"/></g><g class="cls-7"><path class="cls-2" d="M1058.37,960.93s162.2-142.33,199.16-96.86-129.82,71.28-175.72,114.21Z"/></g><path class="cls-3" d="M1695.25,925.47S1910.73,552,2030.06,615.55s-210.88,217.57-269.48,328.3Z"/><path class="cls-6" d="M1731.71,936.08c39.07-77.22,107.75-147,158.48-192,55-48.75,101.31-79.58,101.77-79.89l-1.91-2.88c-.47.3-47,31.28-102.16,80.18-51,45.16-119.94,115.31-159.27,193Z"/><path class="cls-3" d="M1059.33,920.75s132.22-229.16,205.45-190.18S1135.37,864.07,1099.41,932Z"/><path class="cls-6" d="M1081.7,927.25c24-47.38,66.12-90.21,97.25-117.8a637.16,637.16,0,0,1,62.45-49l-1.18-1.76a637.74,637.74,0,0,0-62.68,49.2c-31.27,27.71-73.61,70.76-97.74,118.44Z"/><path class="cls-2" d="M2010.26,985c-51.79,14.86-37.77,93.81-98.62,83s-56.15-15-83.21,13c0,0-9.55,25.88-33.08,31.65-92.85,22.73-230.55-107.67-137.63-190.75,6.71-6,16.87-8.82,28.16-11.36,61.23-13.77,82.4,13.35,126.29-62.81s117,24,158.27,17.55,77-21.32,112.24,20.5S2062,970.16,2010.26,985Z"/><g class="cls-8"><path class="cls-5" d="M1694.38,1021l-2.17-2.8c1.23-1,126.71-95.95,398.75-120.42l.32,3.53C1820.26,925.66,1695.61,1020,1694.38,1021Z"/><path class="cls-5" d="M1856.91,904.49c-38.09-30-46.12-55.21-46.44-56.27l3.39-1c.08.25,8.13,25.34,45.24,54.53Z"/><path class="cls-5" d="M1865.67,942.22c-11.28-17.12-12-42.83-2.17-74.34a238.1,238.1,0,0,1,18.34-42.62l3.07,1.77c-.43.74-42.21,73.87-16.28,113.25Z"/><path class="cls-5" d="M1937,931.31c-4.52-3.29-7-5.47-7.1-5.57l2.37-2.63c.51.46,52.5,46.16,124.29,39.22l.34,3.52C1999,971.45,1953.79,943.59,1937,931.31Z"/><path class="cls-5" d="M1977.73,1010.72c-17.63-17.22-23.53-35.21-25.38-47.27-2-13.13.17-22.09.26-22.46l3.44.85c-.08.35-8.13,34.81,24.16,66.35Z"/></g><rect class="cls-9" x="764.15" y="752.22" width="394.43" height="419.55"/><rect class="cls-9" x="1293.88" y="549.27" width="394.43" height="622.51"/><rect class="cls-9" x="274.58" y="937.45" width="394.43" height="233.84"/><ellipse class="cls-10" cx="471.8" cy="937.45" rx="197.22" ry="29.33"/><ellipse class="cls-9" cx="471.8" cy="1171.3" rx="197.22" ry="29.33"/><path class="cls-9" d="M1158.58,1171.78c0,16.2-88.3,29.33-197.22,29.33S764.15,1188,764.15,1171.78s88.29-29.33,197.21-29.33S1158.58,1155.58,1158.58,1171.78Z"/><path class="cls-10" d="M1158.58,752.22c0,16.2-88.3,29.33-197.22,29.33s-197.21-13.13-197.21-29.33,88.29-29.32,197.21-29.32S1158.58,736,1158.58,752.22Z"/><ellipse class="cls-10" cx="1491.1" cy="549.27" rx="197.22" ry="29.33"/><path class="cls-9" d="M1688.31,1171.78c0,16.2-88.29,29.33-197.21,29.33s-197.22-13.13-197.22-29.33,88.3-29.33,197.22-29.33S1688.31,1155.58,1688.31,1171.78Z"/><path class="cls-11" d="M1204.26,238.74l-7.39-22.68c1.82-1.3,61.58-30.6,106.75-97.1,0,0,1.76-3.64,16.85,4.13,15.46,8,14.3,14,14.3,14C1298.44,207.19,1205.3,238,1204.26,238.74Z"/><path class="cls-12" d="M1414.57,533.7s-.28,11.19-7.85,14.34-29.5,6-21.3,13.2c4.7,4.12,26.86,1.46,33.11,1.46s12.13,2.72,16.78-1.46c5.12-4.61,0-27.54,0-27.54s-5.4,2.81-10.25,2.69C1418.06,536.21,1414.57,533.7,1414.57,533.7Z"/><path class="cls-12" d="M1545,534s3.16,10.74-3.09,16.06-26.25,14.72-16.25,19.07c5.74,2.49,26-6.82,32-8.73s12.38-1.11,15.53-6.52c3.46-5.95-8.41-26.22-8.41-26.22s-4.28,4.33-9,5.69C1549.1,535.35,1545,534,1545,534Z"/><path class="cls-13" d="M1358.42,259.8c1.94,21.4,7.83,70.17,13.44,103.9,10.79,64.85,23.53,130.19,29.77,161.51a24.44,24.44,0,0,0,22.83,19.85l6,.24c12.07.49,21.87-9.89,21-22.22l-14-196.43-1.11-15.5-2.7-50.36c-9.28,3,20.39-10.86,14.06-4.52l13.61-12S1380.53,234.94,1358.42,259.8Z"/><path class="cls-13" d="M1408.65,261.05l28.76,65.6,86.69,197.72a27.14,27.14,0,0,0,27.32,16.35l5-.48c11.9-1.12,19.75-13.12,16.25-24.83,0,0-69.12-270.54-72.32-280.21,0,0-37.82,6.46-64.28,14.94C1426.83,253.12,1415,254.71,1408.65,261.05Z"/><path class="cls-14" d="M1436.75,326.9l-8.32-20c-5.27-12.56-8.77-18.62-20.08-24l.6-1.28c11.71,5.52,15.49,12.07,20.78,24.69l8.33,20Z"/><path class="cls-15" d="M1454.2,75.58S1439.57,47.93,1384.64,61c-48.51,11.55-57,39.75-51.22,90.46,3.66,32.12,10.16,84.27,18.34,129.73,0,0,69.65,3.18,151.26-45C1503,236.23,1472.7,102.38,1454.2,75.58Z"/><path class="cls-15" d="M1482.87,76s-3.39,4.36-16.06,27.21c-14.19,25.59-92.69,38.27-114.35,39.92s-50.8-28.1-50.8-28.1,27.85-32.74,64.06-48.06q5.1-2.17,10.72-3.95a119.83,119.83,0,0,1,19.15-4.27C1456.84,50.17,1482.87,76,1482.87,76Z"/><path class="cls-16" d="M1387.82,65.23c1.06-4.65-2.57-3.68-5.08-7.06L1375,47.69l-2.26-3-13.31-17.93,6.22,20.3,3.73,12.18,1.19,3.86c.8,2.62.22,3.23-.9,6.15-.46,1.18-2.06,5.87,2.36,6.29C1376,75.88,1386.48,71.17,1387.82,65.23Z"/><path class="cls-12" d="M1377.77,41.52s17-14.07,8.74-27.55-13,19.77-13,19.77l2,7.91Z"/><path class="cls-12" d="M1374.91,47.35c0,.11,0,.23,0,.34,1,6.77-5.56,11.54-5.56,11.54l-.06,0L1365.61,47c2.05-1.3,5-2.85,7.09-2.37C1373.78,44.89,1374.6,45.69,1374.91,47.35Z"/><path class="cls-16" d="M1341.68,36.7c-2.76-12.14,3.16-23.83,13.22-26.12s20.46,5.69,23.22,17.83S1375,52.23,1364.9,54.52,1344.44,48.83,1341.68,36.7Z"/><path class="cls-12" d="M1374.87,26.45s-5.34,3.3-9.39-.09-6.85-6.55-16.73-2.47-20.18,1.21-21.73-4.28,3.29-9.28,9.26-8.59-1-3.08,3.51-8.41S1354.53,3.82,1360,1.4s24.3-3.52,26.54,12.57Z"/><path class="cls-16" d="M1378.64,29.91a3.88,3.88,0,0,1-5.36,1,3.88,3.88,0,0,1-.43-5.44,3.66,3.66,0,1,1,5.79,4.4Z"/><path class="cls-17" d="M1338.08,18.29a4.41,4.41,0,0,1-1.33-.19c-2-.65-2.47-1.69-2.28-2.44.22-.9,1.47-1.64,3.17-1.35a7.73,7.73,0,0,0,4.61-.38l.12.22a7.74,7.74,0,0,1-4.77.41c-1.56-.28-2.69.38-2.88,1.16s.31,1.54,2.1,2.13c3.73,1.22,10.57-4.06,10.64-4.11l.15.2C1347.36,14.14,1342,18.29,1338.08,18.29Z"/><path class="cls-17" d="M1356.08,6.2a15.92,15.92,0,0,1-8.3-2.49l.21-.15-.1.07.1-.07c.21.26,5.92,3.54,11,2a45.06,45.06,0,0,0,4.6-1.79c2.89-1.26,5.38-2.35,8-1.64l-.06.25c-2.59-.69-5,.38-7.89,1.62a41.81,41.81,0,0,1-4.63,1.8A10.13,10.13,0,0,1,1356.08,6.2Z"/><path class="cls-17" d="M1381.8,12.58c-.85,0-2.66-1.64-3.09-2.69-.23-.57,0-.81.17-.89,1.33-.71,3.27,2.46,3.35,2.59v0c.13.66-.09.87-.29.93A.39.39,0,0,1,1381.8,12.58Zm-2.5-3.43a.63.63,0,0,0-.3.07c-.06,0-.24.13,0,.57.42,1.05,2.34,2.7,2.92,2.53.19-.06.18-.36.13-.61C1381.52,10.92,1380.23,9.15,1379.3,9.15Z"/><path class="cls-18" d="M1356.28,32.88a.34.34,0,0,1-.26-.21.37.37,0,0,1,.18-.5,4.11,4.11,0,0,1,5,.82.38.38,0,0,1,0,.53.41.41,0,0,1-.53,0,6.44,6.44,0,0,0-4.12-.68A.4.4,0,0,1,1356.28,32.88Z"/><path class="cls-18" d="M1359.51,36.87c.08.9-.39,1.68-1,1.74s-1.25-.63-1.33-1.53.39-1.68,1-1.73S1359.43,36,1359.51,36.87Z"/><path class="cls-18" d="M1342.75,36.69a.28.28,0,0,1-.26-.1.47.47,0,0,1,0-.54,2.65,2.65,0,0,1,3.77-.92.44.44,0,0,1,.2.49.29.29,0,0,1-.38.2,3.94,3.94,0,0,0-3.13.76A.28.28,0,0,1,1342.75,36.69Z"/><path class="cls-18" d="M1347.33,39.13a1.45,1.45,0,0,1-.3,2c-.58.31-1.39-.1-1.8-.9a1.25,1.25,0,1,1,2.1-1.1Z"/><path class="cls-14" d="M1358.28,49.39a11.11,11.11,0,0,1-3.08-.42.25.25,0,0,1-.16-.33.26.26,0,0,1,.33-.17c.26.08,6.3,2,9.7-3.08a.27.27,0,1,1,.44.3A8.32,8.32,0,0,1,1358.28,49.39Z"/><path class="cls-14" d="M1366,46.65a.26.26,0,0,1-.25-.2,3.06,3.06,0,0,0-1.4-1.61l-.07-.05a.26.26,0,0,1,0-.37.28.28,0,0,1,.37-.05,3.62,3.62,0,0,1,1.66,2,.26.26,0,0,1-.19.32Z"/><path class="cls-17" d="M1344.69,51.73a5.69,5.69,0,0,1-1.15-.12c-2.77-.57-5.52-3.13-7.34-6.82-3-6-2.6-13.28.81-16.19a5.09,5.09,0,0,1,4.46-1.12c2.78.58,5.52,3.13,7.34,6.83,3,6,2.6,13.28-.81,16.18A5,5,0,0,1,1344.69,51.73Zm-4.36-23.58a4.3,4.3,0,0,0-2.81,1.05c-3.15,2.69-3.43,9.52-.61,15.24,1.71,3.48,4.25,5.88,6.79,6.4a4.32,4.32,0,0,0,3.79-1c3.15-2.68,3.43-9.52.61-15.24-1.71-3.48-4.25-5.87-6.78-6.4A4.89,4.89,0,0,0,1340.33,28.15Z"/><g class="cls-19"><path class="cls-17" d="M1368.4,27.16c2.32,5.94,1.07,12.88-2.79,15.5s-8.89-.07-11.21-6-1.08-12.89,2.79-15.51S1366.07,21.22,1368.4,27.16Z"/></g><g class="cls-19"><path class="cls-17" d="M1349.05,34.79c2.33,6,1.46,13-1.94,15.6s-8-.06-10.37-6-1.47-12.95,1.93-15.59S1346.72,28.82,1349.05,34.79Z"/></g><path class="cls-17" d="M1361.85,43.94a6.75,6.75,0,0,1-2-.33c-2.88-.9-5.37-3.53-6.83-7.22-2.51-6.35-1.09-13.82,3.18-16.66a6.44,6.44,0,0,1,5.67-.81c2.87.9,5.36,3.53,6.83,7.23,2.51,6.34,1.08,13.82-3.18,16.66A6.47,6.47,0,0,1,1361.85,43.94Zm-2.08-24.55a5.68,5.68,0,0,0-3.19,1c-4,2.65-5.26,9.7-2.88,15.72,1.36,3.42,3.72,5.95,6.33,6.76a5.65,5.65,0,0,0,5-.71c4-2.64,5.27-9.7,2.88-15.72h0c-1.35-3.41-3.72-5.94-6.33-6.76A6,6,0,0,0,1359.77,19.39Z"/><path class="cls-17" d="M1348.46,37.22A.7.7,0,0,1,1348,37a.73.73,0,0,1-.06-1,8,8,0,0,1,6.23-2.18.73.73,0,0,1,.7.76.76.76,0,0,1-.77.7A6.55,6.55,0,0,0,1349,37,.75.75,0,0,1,1348.46,37.22Z"/><path class="cls-12" d="M1386.66,14.11l-.3-.29a4.4,4.4,0,0,0,.4-5.34l.35-.23A4.84,4.84,0,0,1,1386.66,14.11Z"/><path class="cls-12" d="M1390.24,17.5s-2.4-1.78-4.18-1.54l-.06-.41c2-.26,4.38,1.54,4.49,1.62Z"/><path class="cls-16" d="M1574.13,195.62h0a3.13,3.13,0,0,1,4.39.51l14.63,18.54a3.13,3.13,0,0,1-.51,4.39h0a3.14,3.14,0,0,1-4.39-.52L1573.61,200A3.13,3.13,0,0,1,1574.13,195.62Z"/><rect class="cls-16" x="1574.99" y="197.01" width="6.25" height="33.13" rx="3.07" transform="translate(2948.44 -597.77) rotate(141.66)"/><path class="cls-16" d="M1556.54,189.72h1.11a3.8,3.8,0,0,1,3.77,3.79l-.08,20.25a3.79,3.79,0,0,1-3.79,3.76h-1.11a3.8,3.8,0,0,1-3.77-3.8l.08-20.24A3.78,3.78,0,0,1,1556.54,189.72Z"/><path class="cls-16" d="M1561.57,205.53h0a3.13,3.13,0,0,1,4.39.52l14.82,18.77a3.13,3.13,0,0,1-.52,4.39h0a3.14,3.14,0,0,1-4.39-.52l-14.81-18.77A3.13,3.13,0,0,1,1561.57,205.53Z"/><path class="cls-16" d="M1569,180.33s16.64,6.48,20.31,18.63c1.27,4.2-13.83,22.73-18.26,20.59s-17-20.23-17-20.23Z"/><path class="cls-16" d="M1580.18,190.81l.35-.27a2.89,2.89,0,0,1,4.06.47l10.76,13.63a2.91,2.91,0,0,1-.48,4.07l-.34.28a2.91,2.91,0,0,1-4.07-.48l-10.76-13.63A2.91,2.91,0,0,1,1580.18,190.81Z"/><path class="cls-12" d="M1482.87,76c2.8,3.51-1.68,11.89-10,18.71s-17.36,9.51-20.16,6,1.69-11.89,10-18.72S1480.07,72.48,1482.87,76Z"/><path class="cls-16" d="M1552.68,194.66,1579,186c-32.16-56.1-81.85-97.89-94.38-106.89a7.06,7.06,0,0,0-6.34-1,33.65,33.65,0,0,0-13,8.06A78.59,78.59,0,0,0,1456,97a4.14,4.14,0,0,0,.93,5.69C1470.11,112.46,1524.91,146.21,1552.68,194.66Z"/><path class="cls-16" d="M681.48,474.89h0a3.13,3.13,0,0,0,4.41.27l16.91-14.94a3.14,3.14,0,0,0,.27-4.41h0a3.13,3.13,0,0,0-4.41-.27l-16.91,14.94A3.13,3.13,0,0,0,681.48,474.89Z"/><path class="cls-16" d="M676.18,468.9h0a3.14,3.14,0,0,0,4.41.27l21.92-19.37a3.13,3.13,0,0,0,.27-4.41h0a3.13,3.13,0,0,0-4.41-.27l-21.92,19.37A3.13,3.13,0,0,0,676.18,468.9Z"/><path class="cls-16" d="M663.11,477.57l1.1.2a3.79,3.79,0,0,0,4.38-3.07l3.52-19.93a3.78,3.78,0,0,0-3.06-4.38l-1.1-.19a3.78,3.78,0,0,0-4.37,3.06l-3.53,19.93A3.79,3.79,0,0,0,663.11,477.57Z"/><path class="cls-16" d="M670.88,462.91h0a3.13,3.13,0,0,0,4.41.27l17.92-15.84a3.13,3.13,0,0,0,.27-4.41h0a3.14,3.14,0,0,0-4.41-.27L671.15,458.5A3.13,3.13,0,0,0,670.88,462.91Z"/><path class="cls-16" d="M673.68,489s17.53-3.41,23.3-14.72c2-3.91-9.56-24.82-14.3-23.51s-20.33,16.88-20.33,16.88Z"/><path class="cls-16" d="M686.64,480.78l.15.17a3,3,0,0,0,4.24.26l13.66-12.07a3,3,0,0,0,.26-4.24l-.14-.17a3,3,0,0,0-4.25-.26L686.9,476.54A3,3,0,0,0,686.64,480.78Z"/><path class="cls-16" d="M676.63,487.85c4.09-5.7-13.67-21.32-13.67-21.32-2.11-1-28.38,34.11-66.28,28.88-13.5-1.86-35-21.24-36.89-24.34-.24-.42-26.67,14.6-26.67,14.6,3.34,5.63,9.29,24.24,25.24,34.56C591.36,541.58,656.35,527.8,676.63,487.85Z"/><path class="cls-16" d="M366.68,595.67h0a3.13,3.13,0,0,0-4.31,1l-12.65,19.94a3.13,3.13,0,0,0,1,4.31h0a3.13,3.13,0,0,0,4.31-1L367.65,600A3.13,3.13,0,0,0,366.68,595.67Z"/><path class="cls-16" d="M373.49,600l-.1-.06a3.08,3.08,0,0,0-4.23,1l-14.46,22.8a3.07,3.07,0,0,0,.95,4.23l.09.06a3.08,3.08,0,0,0,4.24-1l14.45-22.79A3.08,3.08,0,0,0,373.49,600Z"/><path class="cls-16" d="M383.57,588l-1.11.12a3.79,3.79,0,0,0-3.35,4.16l2.16,20.13a3.8,3.8,0,0,0,4.16,3.35l1.11-.12a3.79,3.79,0,0,0,3.35-4.16l-2.16-20.13A3.79,3.79,0,0,0,383.57,588Z"/><path class="cls-16" d="M380.19,604.24h0a3.13,3.13,0,0,0-4.31,1l-12.81,20.2a3.13,3.13,0,0,0,1,4.31h0a3.13,3.13,0,0,0,4.31-1l12.81-20.2A3.13,3.13,0,0,0,380.19,604.24Z"/><path class="cls-16" d="M370.23,579.93s-15.88,8.16-18.28,20.62c-.83,4.32,16.09,21.19,20.28,18.61s14.82-21.87,14.82-21.87Z"/><path class="cls-16" d="M360.17,591.51l-.37-.23a2.9,2.9,0,0,0-4,.89l-9.3,14.67a2.9,2.9,0,0,0,.9,4l.37.24a2.91,2.91,0,0,0,4-.9l9.3-14.66A2.91,2.91,0,0,0,360.17,591.51Z"/><path class="cls-9" d="M472.83,474.56s18.11-28.14,56.65-17.63,60.43,49.82,31.83,207c0,0-44.62-47.63-137-40.83C424.35,623.08,445.27,515.3,472.83,474.56Z"/><path class="cls-9" d="M446,466.31l23.4,24.08s69.12,23.68,88.71,24.68,28.84-29.41,28.84-29.41-21.95-30.6-72.3-33.91C480,449.47,446,466.31,446,466.31Z"/><path class="cls-15" d="M545.67,438.13l-.2-.42s4.75-2.33,5.4-6c.34-1.92-.46-3.9-2.39-5.88-.9-.94-1.73-1.78-2.49-2.55-5.24-5.31-7.2-7.3-7.26-12.58h.47c0,5.1,1.83,6.91,7.12,12.26l2.5,2.55c2,2.1,2.87,4.21,2.51,6.29C550.63,435.69,545.88,438,545.67,438.13Z"/><path class="cls-15" d="M539,410.67a23.57,23.57,0,0,0,7,15.23c7,7,2.69,14.26-5,12.67s-8.4,7.95-18.47,5S539,410.67,539,410.67Z"/><path class="cls-16" d="M506.46,451.55c3.81-1.29,5.34-1.64,6.09-5.59l2.33-12.2.68-3.57,4-21,3,20.16,1.78,12.1.5,3.44c.32,2.12,1.64,7.52,3.43,8.47s.63,5.74-3.51,6.05C511.62,460.44,506.46,451.55,506.46,451.55Z"/><path class="cls-12" d="M514.78,433.43c0,.11.06.22.1.33,1.89,6.29,9.39,7.76,9.39,7.76l0,0-1.78-12.1c-2.27-.31-5.42-.43-7,.81A2.87,2.87,0,0,0,514.78,433.43Z"/><path class="cls-16" d="M539.8,408.06c-2.82-12.7-13.45-21.15-23.74-18.86s-16.36,14.43-13.54,27.13,13.44,21.14,23.74,18.86S542.62,420.76,539.8,408.06Z"/><path class="cls-16" d="M505.78,419.24c2.56,1.55,5.56,1.1,6.7-1s0-5.06-2.57-6.6-5.56-1.1-6.7,1S503.22,417.7,505.78,419.24Z"/><path class="cls-20" d="M534.5,424.85a41.36,41.36,0,0,1-13.2.73s.86,6.4,7.85,5.29C533.22,430.22,534.5,424.85,534.5,424.85Z"/><path class="cls-17" d="M534.5,424.85s-1.26,1.62-4.86,2.4-8.34-1.67-8.34-1.67S529.44,426,534.5,424.85Z"/><path class="cls-18" d="M523,412a.44.44,0,0,0-.13-.82,4.71,4.71,0,0,0-5.22,2.44.45.45,0,0,0,.15.6.48.48,0,0,0,.6-.15,7.42,7.42,0,0,1,4.33-2A.41.41,0,0,0,523,412Z"/><path class="cls-18" d="M520.69,417.42c.19,1,.95,1.73,1.69,1.59a1.7,1.7,0,0,0,1-2.1c-.2-1-1-1.73-1.69-1.59S520.5,416.4,520.69,417.42Z"/><path class="cls-18" d="M538.64,410.87a.4.4,0,0,0,.32-.2.43.43,0,0,0-.14-.6,4.68,4.68,0,0,0-5.75.27.44.44,0,0,0-.09.61.49.49,0,0,0,.61.09,7.44,7.44,0,0,1,4.78-.23A.42.42,0,0,0,538.64,410.87Z"/><path class="cls-18" d="M534.43,415a1.7,1.7,0,0,0,1,2.12c.74.15,1.51-.55,1.72-1.57a1.68,1.68,0,0,0-1-2.11C535.41,413.27,534.64,414,534.43,415Z"/><path class="cls-15" d="M524.9,391.61s1.37,8.07-8.3,11.64-15.6,9.31-12.67,16.19,22.3,18.21,11.77,26.6-10.4-2.93-22.64,2.4-18.34-11.24-11.73-23.12-2.78-37.32,30.53-43.48,27,22.88,27,22.88S526.83,400.43,524.9,391.61Z"/><path class="cls-17" d="M512.63,448.27l-.15-.23c2.22-1.52,3.34-3.24,3.43-5.24.26-5.53-7.71-12.19-14.74-18.06-1.87-1.55-3.63-3-5.22-4.45-4.43-4-6-9.54-4-14.53,2.13-5.48,7.71-8.87,14.59-8.87H507c6.57,0,10.6-2.27,12.83-4.2a12.56,12.56,0,0,0,3.32-4.29l.26.1a12.66,12.66,0,0,1-3.39,4.39c-2.27,2-6.35,4.28-13,4.28h-.49c-6.76,0-12.25,3.32-14.34,8.7-1.92,5-.44,10.27,4,14.22,1.59,1.42,3.35,2.89,5.21,4.45,7.09,5.91,15.11,12.61,14.85,18.29C516.09,444.88,514.9,446.71,512.63,448.27Z"/><path class="cls-13" d="M540.68,426.23a5.39,5.39,0,0,1-3-.21c-4.56-1.6-7.74-8.8-7.09-16h0c.41-4.43,2.18-8.07,4.75-9.72a5.45,5.45,0,0,1,5-.59c4.56,1.59,7.74,8.77,7.09,16-.4,4.44-2.18,8.08-4.75,9.73A6,6,0,0,1,540.68,426.23Zm-9.28-16.14c-.62,6.85,2.31,13.65,6.53,15.14a4.76,4.76,0,0,0,4.2-.52c2.36-1.51,4-4.92,4.36-9.09.62-6.87-2.3-13.66-6.52-15.14a4.72,4.72,0,0,0-4.21.52c-2.35,1.51-4,4.9-4.36,9.09Z"/><g class="cls-19"><path class="cls-17" d="M508,410.39c0,6.9,3.91,13.42,8.83,14.57s8.93-3.52,9-10.42S521.91,401.12,517,400,508.06,403.49,508,410.39Z"/></g><g class="cls-19"><path class="cls-17" d="M530.5,410.59c0,6.93,3.54,13.64,8,15s8.1-3.18,8.14-10.11-3.55-13.64-8-15S530.54,403.66,530.5,410.59Z"/></g><path class="cls-13" d="M520.17,425.08a6.91,6.91,0,0,1-3.13,0c-5.41-1.2-9.74-8.19-9.66-15.57h0c0-4.29,1.52-7.91,4.07-9.94a7,7,0,0,1,6-1.39c5.41,1.22,9.75,8.2,9.67,15.58,0,4.3-1.53,7.92-4.09,9.95A7.31,7.31,0,0,1,520.17,425.08Zm-5.61-26.14a6.51,6.51,0,0,0-2.58,1.25c-2.32,1.85-3.72,5.32-3.76,9.29h0c-.07,7,4,13.61,9,14.74a6.32,6.32,0,0,0,5.31-1.21c2.32-1.84,3.73-5.32,3.77-9.3.07-7-4-13.61-9-14.75A6.54,6.54,0,0,0,514.56,398.94Z"/><path class="cls-13" d="M531.92,412.85a.76.76,0,0,1-.53-.07h0a7.15,7.15,0,0,0-5.77.25.83.83,0,0,1-1-.41.77.77,0,0,1,.41-1,8.53,8.53,0,0,1,7.13-.23.79.79,0,0,1,.34,1.07A.75.75,0,0,1,531.92,412.85Z"/><path class="cls-12" d="M445.13,467.28c-2.42,3.78,2.9,11.65,11.9,17.58s18.25,7.67,20.67,3.89-2.91-11.66-11.9-17.58S447.55,463.5,445.13,467.28Z"/><path class="cls-16" d="M387.92,592.51l-27.07-6c26.21-59.11,71.33-105.79,82.87-116a7.09,7.09,0,0,1,6.21-1.61,33.59,33.59,0,0,1,13.77,6.69A78.31,78.31,0,0,1,474,485.43a4.15,4.15,0,0,1-.34,5.76C461.58,502.24,410.55,541.46,387.92,592.51Z"/><path class="cls-12" d="M424.35,623.08c-1.23,5.6,25.66,17.38,64.54,25.73s71.19,20.71,72.42,15.1-26.88-28-65.76-36.33S425.59,617.47,424.35,623.08Z"/><path class="cls-12" d="M505,916.69s.28,11.19,7.85,14.35,29.5,6,21.31,13.19c-4.71,4.13-26.86,1.46-33.12,1.46s-12.13,2.73-16.78-1.46c-5.12-4.61,0-27.54,0-27.54s5.4,2.82,10.25,2.69C501.53,919.2,505,916.69,505,916.69Z"/><path class="cls-12" d="M378.44,917.72s-5.75,9.6-1,16.32,21.72,20.84,11,22.54c-6.18,1-23.48-13.13-28.77-16.48s-11.71-4.18-13.4-10.2c-1.86-6.63,14.73-23.27,14.73-23.27s3,5.26,7.23,7.75C374.15,918,378.44,917.72,378.44,917.72Z"/><path class="cls-21" d="M558.59,663.91c-1.94,21.4-5.25,49.06-10.86,82.78C536.94,811.54,524.2,876.88,518,908.21a24.42,24.42,0,0,1-22.83,19.84l-6,.24c-12.08.49-21.88-9.88-21-22.22l14.05-196.43,1.12-15.5L486,643.78c9.28,3-20.39-10.86-14.06-4.52l-13.61-12S536.48,639.05,558.59,663.91Z"/><path class="cls-21" d="M510.94,644l-28.76,65.6L395.49,907.36a27.14,27.14,0,0,1-27.32,16.36l-5-.48c-11.9-1.13-19.75-13.13-16.26-24.84l74.06-247.54c.66-2,4.24-16.56,7.44-26.22,0,0,28.65,0,55.11,8.5C492.76,636.11,504.61,637.7,510.94,644Z"/><path class="cls-14" d="M482.84,709.89l-1.31-.55,8.33-20a53.58,53.58,0,0,1,26.53-27.87l.61,1.28a52.22,52.22,0,0,0-25.84,27.13Z"/><path class="cls-12" d="M1044.91,708.11s-3.39,10.66,2.72,16.12,25.91,15.34,15.81,19.45c-5.79,2.36-25.86-7.42-31.77-9.47s-12.35-1.4-15.38-6.88c-3.32-6,9-26,9-26s4.17,4.43,8.8,5.9C1040.79,709.33,1044.91,708.11,1044.91,708.11Z"/><path class="cls-21" d="M1029.4,711.9l-7.52-5.22a18.17,18.17,0,0,1-7.35-18.92c6.68-29.87,13.37-70.79,8.82-90-7.76-32.76-49.83-94-74.89-123l72.19-56.69c8.48,9.75,57.44,92.93,69.09,168.71,5.73,37.27-19.23,91.16-34.14,118.82A18.05,18.05,0,0,1,1029.4,711.9Z"/><path class="cls-16" d="M733.43,424.46h0a3.14,3.14,0,0,1-2,3.94l-21.46,7a3.13,3.13,0,0,1-3.93-2h0a3.13,3.13,0,0,1,2-3.94l21.46-7A3.14,3.14,0,0,1,733.43,424.46Z"/><path class="cls-16" d="M731,416.86h0a3.14,3.14,0,0,1-2,3.94l-27.82,9a3.14,3.14,0,0,1-3.94-2h0a3.13,3.13,0,0,1,2-3.94l27.81-9A3.13,3.13,0,0,1,731,416.86Z"/><path class="cls-16" d="M745.06,410l-.39,1a3.79,3.79,0,0,1-4.86,2.21l-19-7.08a3.79,3.79,0,0,1-2.21-4.86l.39-1a3.78,3.78,0,0,1,4.86-2.22l19,7.08A3.79,3.79,0,0,1,745.06,410Z"/><path class="cls-16" d="M728.48,409.25h0a3.14,3.14,0,0,1-2,3.94l-22.74,7.39a3.14,3.14,0,0,1-3.94-2h0a3.14,3.14,0,0,1,2-3.94l22.75-7.4A3.13,3.13,0,0,1,728.48,409.25Z"/><path class="cls-16" d="M749.56,424.92s-11.85,13.37-24.51,12.6c-4.39-.26-16.54-20.84-13-24.26s24.87-8.94,24.87-8.94Z"/><path class="cls-16" d="M735.88,431.91l.07.2a3,3,0,0,1-1.93,3.8l-17.33,5.63a3,3,0,0,1-3.8-1.93l-.07-.21a3,3,0,0,1,1.94-3.79L732.09,430A3,3,0,0,1,735.88,431.91Z"/><path class="cls-12" d="M915.93,737.69s-3.4,10.66,2.72,16.12,25.9,15.33,15.8,19.44c-5.79,2.36-25.86-7.42-31.77-9.47s-12.35-1.4-15.37-6.87c-3.32-6,9-26,9-26s4.18,4.43,8.81,5.9C911.81,738.91,915.93,737.69,915.93,737.69Z"/><path class="cls-21" d="M982.43,441l3.42,44.17L930.17,723.7a27.15,27.15,0,0,1-22.87,22.17l-5,.68c-11.84,1.62-22.22-8.26-21.49-20.47l15.56-257.91c.2-2.06.35-17.08,1.26-27.22,0,0,27.89-6.53,55.59-4.32C962.92,437.41,974.82,436.25,982.43,441Z"/><path class="cls-16" d="M1171.88,251h0a3.15,3.15,0,0,0,4.32,1l19.06-12.07a3.13,3.13,0,0,0,1-4.31h0a3.13,3.13,0,0,0-4.31-1l-19.07,12.07A3.13,3.13,0,0,0,1171.88,251Z"/><path class="cls-16" d="M1167.61,244.2h0a3.13,3.13,0,0,0,4.31,1l24.72-15.65a3.14,3.14,0,0,0,1-4.31h0a3.14,3.14,0,0,0-4.32-1l-24.71,15.65A3.12,3.12,0,0,0,1167.61,244.2Z"/><path class="cls-16" d="M1153.33,250.69l1.05.36a3.79,3.79,0,0,0,4.81-2.33l6.64-19.12a3.78,3.78,0,0,0-2.33-4.81l-1-.36a3.78,3.78,0,0,0-4.8,2.33L1151,245.88A3.8,3.8,0,0,0,1153.33,250.69Z"/><path class="cls-16" d="M1163.32,237.44h0a3.13,3.13,0,0,0,4.31,1l20.21-12.79a3.13,3.13,0,0,0,1-4.31h0a3.13,3.13,0,0,0-4.31-1l-20.21,12.79A3.13,3.13,0,0,0,1163.32,237.44Z"/><path class="cls-16" d="M1161.94,263.67s17.85-.59,25.34-10.83c2.6-3.54-5.49-26-10.38-25.49s-22.75,13.44-22.75,13.44Z"/><path class="cls-16" d="M1176.05,257.59l.11.19a3,3,0,0,0,4.16.93l15.4-9.74a3,3,0,0,0,.93-4.15l-.12-.19a3,3,0,0,0-4.15-.93l-15.4,9.74A3,3,0,0,0,1176.05,257.59Z"/><path class="cls-16" d="M1167.87,261.88l-14.76-18.75c-2.09.8-72,33.5-152.4,34.12l1.88,40C1081.05,325.93,1166.67,262.34,1167.87,261.88Z"/><path class="cls-22" d="M1009.82,291.8s-11.7-29-67.69-21.67c-49.44,6.5-60.79,33.67-60.27,84.71.34,32.32,7.39,77.34,6.35,122.81,0,0,63.42,16.15,154.18-26.37C1042.39,451.28,1025.46,320.36,1009.82,291.8Z"/><path class="cls-22" d="M1027.09,275.94s9.11,20.27-7.57,44.63c-16.54,24.14-96.14,28.51-117.86,27.92S854,315.31,854,315.31s31.07-29.7,68.67-41.21c3.53-1.09,7.21-2,11.07-2.82A111.26,111.26,0,0,1,953.26,269C1002.74,267.83,1027.09,275.94,1027.09,275.94Z"/><path class="cls-16" d="M945,264.6l-8.29-11.78-2.41-3.43-14.18-20.17,6.29,22.59,3.77,13.55,1.2,4.29c.81,2.92-.75,4.09-2.08,7.27-.53,1.3-4.08,9.22,3.09,10,8.94.93,21.86-9,25.21-17.67C957.57,269.22,947.7,268.41,945,264.6Z"/><path class="cls-12" d="M888.75,341.31c-3.29,4.3-13.74,2-23.33-5.21S850.73,319.61,854,315.31s13.74-2,23.33,5.22S892.05,337,888.75,341.31Z"/><path class="cls-23" d="M899.56,226.57a30.84,30.84,0,0,0,4,12.23c3.61,6.34,5.13-12.61,5.13-12.61Z"/><path class="cls-16" d="M903.32,241c-2.52-13.71,4.65-26.52,16-28.61s22.63,7.33,25.15,21-4.66,26.51-16,28.6S905.84,254.73,903.32,241Z"/><path class="cls-12" d="M942.76,226.42l-10,2.11a7.35,7.35,0,0,1-6.23-1.47c-3-2.45-5.86-3.27-14.74,0-11.25,4.1-21-.26-24.12-5.82s1.28-11.68,7.93-10.62,1.91-5.27,7.17-7.8c9.82-4.73,14.3,2.57,22.63-.41,10.93-3.9,33.4-1.9,30.3,20.55Z"/><path class="cls-18" d="M922.53,236.57a.45.45,0,0,1-.29-.25.42.42,0,0,1,.23-.55,4.6,4.6,0,0,1,5.51,1.15.43.43,0,0,1,0,.6.47.47,0,0,1-.6,0,7.3,7.3,0,0,0-4.57-1A.42.42,0,0,1,922.53,236.57Z"/><path class="cls-18" d="M926,241.19c0,1-.51,1.86-1.24,1.89s-1.37-.76-1.42-1.77.52-1.86,1.25-1.89S925.91,240.17,926,241.19Z"/><path class="cls-18" d="M907.21,240.2a.33.33,0,0,1-.29-.13.53.53,0,0,1,0-.6,3,3,0,0,1,4.27-.86.49.49,0,0,1,.19.56.32.32,0,0,1-.43.21,4.42,4.42,0,0,0-3.54.71A.32.32,0,0,1,907.21,240.2Z"/><path class="cls-18" d="M912.22,243.15a1.63,1.63,0,0,1-.43,2.22c-.66.31-1.55-.18-2-1.1a1.65,1.65,0,0,1,.43-2.22A1.64,1.64,0,0,1,912.22,243.15Z"/><path class="cls-23" d="M955.74,222.93s-2,16.52-11.12,20.62c0,0,4.1-13.41-14.15-14.89C930.47,228.66,944.5,221.57,955.74,222.93Z"/><path class="cls-16" d="M945,235.16a4.1,4.1,0,1,1-.23-6.1A4.33,4.33,0,0,1,945,235.16Z"/><path class="cls-23" d="M930.47,228.66s5.19,11.64,3.47,14.72-17.61,9.28-26.11,8.8h0a16.54,16.54,0,0,0,18.09,11.67,24.1,24.1,0,0,0,7.73-2.52h0c5-2.64,9.43-6.49,10-12.1C943.86,247.52,939,239,939,239s-2.47-5.16-.24-9C938.72,230,934.05,227.88,930.47,228.66Z"/><path class="cls-17" d="M913.22,255.24a42.83,42.83,0,0,0,13.33-3.17s1,6.6-6.24,7.57C916.08,260.2,913.22,255.24,913.22,255.24Z"/><path class="cls-12" d="M896.4,209.29l-.16-.55c2.66-.77,2.2-2.94,2.18-3l.56-.12A3.19,3.19,0,0,1,896.4,209.29Z"/><path class="cls-17" d="M907.11,224.88a38.22,38.22,0,0,1-6.63-.58c-4.88-.9-8-2.75-9.11-5.35-.75-1.81-.82-3.16-.23-4.13.94-1.54,3.37-1.74,5.51-1.92l.92-.08,0,.28-.93.08c-2.07.18-4.42.37-5.29,1.79-.54.89-.46,2.16.26,3.87,2.51,6.08,15.79,5.76,15.92,5.75v.29Z"/><path class="cls-17" d="M920.05,205.71a20.33,20.33,0,0,1-3.24-.25,15.2,15.2,0,0,1-5.42-1.82l.15-.24c.08,0,7.93,4.86,19.24-.56l.12.26A25,25,0,0,1,920.05,205.71Z"/><path class="cls-14" d="M979.65,514.81l-1.38-.32c4.06-17.39,14.2-25.53,14.63-25.86l.88,1.11C993.68,489.82,983.59,497.93,979.65,514.81Z"/><path class="cls-16" d="M744.4,428.34l-5-23.32c2-1.1,64.41-24.1,116.19-85.59,0,0,2.13-3.44,16.34,5.84,14.56,9.52,12.78,15.43,12.78,15.43C841.33,406.66,745.52,427.71,744.4,428.34Z"/><path class="cls-11" d="M1195,228.28h0a3.13,3.13,0,0,0-4.41-.17L1174,243.46a3.13,3.13,0,0,0-.16,4.41h0a3.13,3.13,0,0,0,4.41.17l16.55-15.34A3.14,3.14,0,0,0,1195,228.28Z"/><path class="cls-11" d="M1200.43,234.15h0A3.13,3.13,0,0,0,1196,234l-21.45,19.89a3.14,3.14,0,0,0-.17,4.42h0a3.14,3.14,0,0,0,4.42.16l21.45-19.89A3.13,3.13,0,0,0,1200.43,234.15Z"/><path class="cls-11" d="M1213.29,225.16l-1.1-.17a3.8,3.8,0,0,0-4.31,3.17l-3,20a3.79,3.79,0,0,0,3.17,4.31l1.1.17a3.79,3.79,0,0,0,4.3-3.17l3-20A3.78,3.78,0,0,0,1213.29,225.16Z"/><path class="cls-11" d="M1205.88,240h0a3.14,3.14,0,0,0-4.42-.17l-17.53,16.26a3.14,3.14,0,0,0-.17,4.42h0a3.14,3.14,0,0,0,4.42.16l17.53-16.26A3.13,3.13,0,0,0,1205.88,240Z"/><path class="cls-11" d="M1202.45,214s-17.44,3.83-22.94,15.27c-1.9,4,10.15,24.59,14.86,23.17S1214.29,235,1214.29,235Z"/><path class="cls-11" d="M1189.69,222.52l-.15-.17a3,3,0,0,0-4.25-.16l-13.36,12.4a3,3,0,0,0-.16,4.25l.14.16a3,3,0,0,0,4.26.16l13.36-12.39A3,3,0,0,0,1189.69,222.52Z"/></g></g></svg>