<svg xmlns="http://www.w3.org/2000/svg" viewBox="0 0 459.22 343.63"><defs><style>.cls-1{fill:#cadff5;}.cls-2{fill:#3b73a9;}.cls-3{fill:#fd7c78;}.cls-4{fill:#015288;}.cls-5{opacity:0.5;}.cls-6{fill:#d64e5a;}.cls-7{fill:#b2304f;}.cls-8{fill:#01305a;}.cls-9{fill:#001336;}.cls-10{fill:#ededed;}.cls-11{fill:#fff;}.cls-12{fill:#fb9e82;}.cls-13{fill:#fc7972;}.cls-14{fill:#fdbeab;}.cls-15{fill:#375bc7;}</style></defs><g id="Layer_2" data-name="Layer 2"><g id="OBJECTS"><path class="cls-1" d="M203.32,96C188.19,41.08,120,23.4,80.92,64.42q-.84.89-1.68,1.8c-56,60.9-29.56,211,87.36,249S405.14,283.81,412,221.72s-47.11-81.61-130.82-64.24C233.85,167.29,212.74,130.14,203.32,96Z"/><path class="cls-1" d="M56.29,225.77c-9.48-12.7-23.77-10.16-26.92,5.1-1.05,5-.81,11.34,1.74,19.17,9.72,29.82,29.44,38.07,39.47,18.88C76.77,257.07,65.68,238.36,56.29,225.77Z"/><path class="cls-1" d="M418,227.14c-.57,11.33,9.63,17.88,19.36,12.19,3.22-1.87,6.28-5.06,8.69-10.25,9.14-19.77,1.07-34.52-14.95-30.66C421.21,200.79,418.58,215.91,418,227.14Z"/><path class="cls-1" d="M37.71,132.89c-1.65,7.5-9.49,10-14.82,4.49a14.81,14.81,0,0,1-3.83-8.25c-2.43-14.55,5.49-22.73,15.26-17.34C40.35,115.12,39.36,125.46,37.71,132.89Z"/><path class="cls-1" d="M303.44,42.28a4.52,4.52,0,0,1-4.5,4.52H202.46A4.53,4.53,0,0,1,198,42.28a4.54,4.54,0,0,1,4.51-4.51H207a11.76,11.76,0,0,1,19.14-3.64A16.34,16.34,0,0,1,245,26.77a18.67,18.67,0,0,1,34.49,3.77A11.77,11.77,0,0,1,296,37.77h2.91A4.52,4.52,0,0,1,303.44,42.28Z"/><path class="cls-1" d="M361.06,121.88a4.23,4.23,0,0,1-4.23,4.23H266.31a4.24,4.24,0,0,1-4.23-4.23,4.25,4.25,0,0,1,4.23-4.23h4.28a11,11,0,0,1,18-3.42,15.32,15.32,0,0,1,17.66-6.9,17.52,17.52,0,0,1,32.36,3.53,11,11,0,0,1,15.54,6.79h2.72A4.24,4.24,0,0,1,361.06,121.88Z"/><path class="cls-2" d="M383.57,53.16a6.37,6.37,0,1,1,6.36-6.36A6.38,6.38,0,0,1,383.57,53.16Zm0-10.73a4.37,4.37,0,1,0,4.36,4.37A4.37,4.37,0,0,0,383.57,42.43Z"/><path class="cls-3" d="M406.47,75.48a6.37,6.37,0,1,1,6.36-6.37A6.37,6.37,0,0,1,406.47,75.48Zm0-10.73a4.37,4.37,0,1,0,4.36,4.36A4.37,4.37,0,0,0,406.47,64.75Z"/><path class="cls-2" d="M414.33,96.15a1,1,0,0,1-1-1v-4.4a1,1,0,0,1,2,0v4.4A1,1,0,0,1,414.33,96.15Z"/><path class="cls-2" d="M414.33,103.85a1,1,0,0,1-1-1v-4.4a1,1,0,1,1,2,0v4.4A1,1,0,0,1,414.33,103.85Z"/><path class="cls-2" d="M420.51,97.8h-4a1,1,0,0,1,0-2h4a1,1,0,0,1,0,2Z"/><path class="cls-2" d="M412.1,97.8h-4a1,1,0,0,1,0-2h4a1,1,0,0,1,0,2Z"/><path class="cls-4" d="M379.2,71.49a1,1,0,0,1-1-1v-4.4a1,1,0,1,1,2,0v4.4A1,1,0,0,1,379.2,71.49Z"/><path class="cls-4" d="M379.2,79.19a1,1,0,0,1-1-1v-4.4a1,1,0,0,1,2,0v4.4A1,1,0,0,1,379.2,79.19Z"/><path class="cls-4" d="M385.38,73.14h-4a1,1,0,0,1,0-2h4a1,1,0,0,1,0,2Z"/><path class="cls-4" d="M377,73.14h-4a1,1,0,0,1,0-2h4a1,1,0,0,1,0,2Z"/><path class="cls-2" d="M79.5,38.53a6.37,6.37,0,1,1,6.37,6.36A6.37,6.37,0,0,1,79.5,38.53Zm2,0a4.37,4.37,0,1,0,4.37-4.37A4.37,4.37,0,0,0,81.5,38.53Z"/><path class="cls-3" d="M54,62.78a6.36,6.36,0,1,1,6.36,6.36A6.36,6.36,0,0,1,54,62.78Zm2,0a4.37,4.37,0,1,0,4.37-4.37A4.37,4.37,0,0,0,56,62.78Z"/><path class="cls-2" d="M40.73,71.71a1,1,0,0,0,1-1v-4.4a1,1,0,0,0-2,0v4.4A1,1,0,0,0,40.73,71.71Z"/><path class="cls-2" d="M40.73,79.41a1,1,0,0,0,1-1V74a1,1,0,0,0-2,0v4.4A1,1,0,0,0,40.73,79.41Z"/><path class="cls-2" d="M34.55,73.36h4a1,1,0,0,0,0-2h-4a1,1,0,0,0,0,2Z"/><path class="cls-2" d="M43,73.36h4a1,1,0,0,0,0-2H43a1,1,0,0,0,0,2Z"/><path class="cls-4" d="M63.72,37.88a1,1,0,0,0,1-1v-4.4a1,1,0,1,0-2,0v4.4A1,1,0,0,0,63.72,37.88Z"/><path class="cls-4" d="M63.72,45.58a1,1,0,0,0,1-1v-4.4a1,1,0,1,0-2,0v4.4A1,1,0,0,0,63.72,45.58Z"/><path class="cls-4" d="M57.55,39.53h4a1,1,0,0,0,0-2h-4a1,1,0,0,0,0,2Z"/><path class="cls-4" d="M66,39.53h4a1,1,0,0,0,0-2H66a1,1,0,0,0,0,2Z"/><path class="cls-3" d="M313.79,61.74V80.15a4.41,4.41,0,0,1-4.41,4.41H276l-10.1,3.62a1.28,1.28,0,0,1-1.63-1.67l3.82-9.86V61.74a4.41,4.41,0,0,1,4.41-4.41h36.92A4.41,4.41,0,0,1,313.79,61.74Z"/><g class="cls-5"><path class="cls-6" d="M306.75,67H276.08a1.22,1.22,0,0,1-1.22-1.22h0a1.22,1.22,0,0,1,1.22-1.21h30.67A1.21,1.21,0,0,1,308,65.73h0A1.22,1.22,0,0,1,306.75,67Z"/><path class="cls-6" d="M306.75,71.85H276.08a1.22,1.22,0,0,1-1.22-1.22h0a1.22,1.22,0,0,1,1.22-1.22h30.67A1.22,1.22,0,0,1,308,70.63h0A1.22,1.22,0,0,1,306.75,71.85Z"/><path class="cls-6" d="M306.75,76.75H276.08a1.22,1.22,0,0,1-1.22-1.22h0a1.22,1.22,0,0,1,1.22-1.22h30.67A1.22,1.22,0,0,1,308,75.53h0A1.22,1.22,0,0,1,306.75,76.75Z"/></g><path class="cls-1" d="M186.23,15.92a.62.62,0,0,0,.33,0c1.22-.32,1.93-.45,1.94-.45a.68.68,0,0,0-.25-1.34s-.75.14-2,.47a.68.68,0,0,0,0,1.32Z"/><path class="cls-1" d="M146.77,47.05c-.63,1.15-1.24,2.35-1.81,3.55a.67.67,0,0,1-.78.37l-.13,0a.68.68,0,0,1-.32-.91c.58-1.23,1.2-2.45,1.85-3.63a.68.68,0,0,1,.92-.27A.69.69,0,0,1,146.77,47.05Z"/><path class="cls-1" d="M143.36,54.26c-.49,1.22-1,2.48-1.38,3.75a.69.69,0,0,1-.81.44l0,0a.67.67,0,0,1-.43-.86c.44-1.29.91-2.57,1.41-3.82a.69.69,0,0,1,.89-.37A.68.68,0,0,1,143.36,54.26Z"/><path class="cls-1" d="M137.6,74.16a.67.67,0,0,1-.5-.75c.17-1.35.37-2.7.61-4a.68.68,0,1,1,1.33.24c-.22,1.29-.42,2.62-.6,4a.67.67,0,0,1-.76.59Z"/><path class="cls-1" d="M140.33,61a.67.67,0,0,1,.47.83c-.16.6-.33,1.2-.48,1.8S140,65,139.83,65.7a.69.69,0,0,1-.82.52h0a.68.68,0,0,1-.5-.81c.16-.7.33-1.42.51-2.11s.31-1.22.48-1.83a.68.68,0,0,1,.82-.48Z"/><path class="cls-1" d="M148.8,43.61a.71.71,0,0,1-.75.3.82.82,0,0,1-.19-.09.68.68,0,0,1-.21-.94c.72-1.14,1.49-2.28,2.28-3.37a.68.68,0,0,1,1.1.8C150.26,41.38,149.5,42.49,148.8,43.61Z"/><path class="cls-1" d="M182.75,17.07c-1.24.43-2.49.9-3.74,1.41a.68.68,0,0,1-.42,0,.71.71,0,0,1-.46-.4.67.67,0,0,1,.37-.89c1.26-.52,2.55-1,3.81-1.44a.69.69,0,0,1,.87.42A.67.67,0,0,1,182.75,17.07Z"/><path class="cls-1" d="M171.82,22a.68.68,0,0,1-.5.07.69.69,0,0,1-.42-.33.66.66,0,0,1,.26-.92c1.18-.66,2.4-1.3,3.62-1.89a.67.67,0,0,1,.9.32.68.68,0,0,1-.31.91C174.17,20.69,173,21.32,171.82,22Z"/><path class="cls-1" d="M158.94,31.34a.69.69,0,0,1-.63.17.67.67,0,0,1-.33-.2.68.68,0,0,1,0-1c1-.92,2-1.83,3.06-2.69a.68.68,0,1,1,.87,1.05C160.91,29.55,159.91,30.44,158.94,31.34Z"/><path class="cls-1" d="M165.09,26.26a.64.64,0,0,1-.56.11.68.68,0,0,1-.24-1.21c1.09-.79,2.23-1.56,3.37-2.29a.68.68,0,1,1,.73,1.14C167.27,24.73,166.16,25.49,165.09,26.26Z"/><path class="cls-1" d="M153.47,37.15a.68.68,0,0,1-.69.23.73.73,0,0,1-.26-.14.67.67,0,0,1-.09-1c.86-1,1.77-2.07,2.69-3.06a.68.68,0,0,1,1,0,.67.67,0,0,1,0,1C155.21,35.13,154.32,36.13,153.47,37.15Z"/><polygon class="cls-3" points="186.9 11.32 185.53 0 221.53 5.5 186.9 11.32"/><polygon class="cls-6" points="221.53 5.5 188.27 14.2 188.18 14.23 186.51 16.27 186.9 11.32 221.53 5.5"/><polygon class="cls-7" points="186.51 16.27 189.5 16.23 188.18 14.23 186.51 16.27"/><polygon class="cls-3" points="192.37 13.13 188.18 14.23 194.99 24.55 221.53 5.5 192.37 13.13"/><path class="cls-2" d="M110.48,334.36c-12.75-12.95-38.82-41.51-55.4-73.83C30.68,213,6.21,217.22,1.41,234c-10.87,38,43.77,79,77.92,100.33Z"/><path class="cls-4" d="M100.33,334.36C81,319.16,64.6,301.89,53.22,288.64a363.51,363.51,0,0,1-26.31-34.33,1.17,1.17,0,0,0-2,1.28,366,366,0,0,0,26.47,34.55,349.53,349.53,0,0,0,45.14,44.22Z"/><path class="cls-4" d="M108.37,318.58c-5.72-11.42-16.57-35.35-20.6-59.73-6-36.43-23-38.8-29.71-28.76-18.41,27.59,25.73,78.34,39.8,93.36Z"/><path class="cls-8" d="M104.37,320.44C93.62,305.35,85.69,289,80.62,276.94a248.72,248.72,0,0,1-10.06-28.13.81.81,0,0,0-1.57.43,252.71,252.71,0,0,0,10.12,28.31c5.08,12.06,13,28.44,23.77,43.58Z"/><path class="cls-2" d="M359.18,217.49c10.92-12.79,34.61-42.62,48.48-75.52,19.9-47.2,43.59-44.9,49.38-29.18,15,40.66-51.5,91.08-79.23,109.94Z"/><path class="cls-4" d="M365.74,219.34c19.2-16.79,35.05-36.14,45.71-50.64A346.49,346.49,0,0,0,434.13,134a1.13,1.13,0,0,1,1.53-.44,1.12,1.12,0,0,1,.44,1.52A349.57,349.57,0,0,1,413.29,170c-10.54,14.33-26.1,33.36-45,50.06Z"/><path class="cls-4" d="M360.9,201.28c4.65-11.33,13.3-35,15.39-58.57,3.13-35.24,19.2-38.73,26.33-29.61,19.58,25-18.95,76.71-31.33,92.07Z"/><path class="cls-8" d="M364.86,202.76c9.19-15.19,15.59-31.4,19.57-43.27A238.51,238.51,0,0,0,392,131.88a.78.78,0,0,1,1.53.3A240.68,240.68,0,0,1,385.91,160c-4,11.89-10.39,28.11-19.57,43.35Z"/><path class="cls-2" d="M426.42,254.63c3.42-18.09,10-34.59,17.45-27.78s-4.37,35-22,50.62l-4.74,6.75c12.67-11.61,33.06-18.53,38.6-12s-8.49,9.89-21.79,10.84c-10.12.73-16.58,3.52-19.71,5.26l-22.38,31.88C412,301.9,444.14,291,452.9,301.38s-13.47,15.69-34.57,17.2c-15.94,1.14-26.16,5.52-31.17,8.29l-4.46,6.35c-1.23-.6-2.45-1.21-3.66-1.82l26.62-37.93a52.21,52.21,0,0,0-2.14-16.28c-3.63-12.82-5.21-27.13,2.79-24.17,6.94,2.57,8.21,18.93,4.18,33.57l9.21-13.12C421.86,268.92,425,262.44,426.42,254.63Z"/><path class="cls-2" d="M73.85,109.94C72,95,67.57,81.11,61.1,86.27s1.66,28.86,15.25,42.59l3.51,5.78c-9.73-10.18-26-17-30.91-11.9s6.4,8.55,17.22,10.06c8.23,1.14,13.36,3.78,15.83,5.37l16.56,27.29c-15.46-16.08-41.19-26.74-48.92-18.74S59.8,160.29,77,162.67c13,1.81,21.09,5.94,25,8.48l3.3,5.44,3.09-1.29L88.7,142.83a43,43,0,0,1,2.64-13.19c3.67-10.29,5.74-21.9-1-19.92-5.81,1.72-7.74,15-5.25,27.22l-6.82-11.23A62.14,62.14,0,0,1,73.85,109.94Z"/><path class="cls-8" d="M224.75,328.51c.18-2.91.34-5.68.49-8.25.62-10.49,1-17.66,1-17.66l-4.11-.18-2.32-.1-27.94-1.25s-.51,8-1.11,19.78c-.12,2.41-.25,5-.38,7.66Z"/><path class="cls-9" d="M222.15,302.42l4.11.18s-.4,7.17-1,17.66a248.87,248.87,0,0,1-34.46.59c.6-11.76,1.11-19.78,1.11-19.78l27.94,1.25Z"/><path class="cls-9" d="M220.68,328.51c.65-11.21,1.18-20.82,1.47-26.09l-2.32-.1c-.29,5.29-.82,14.94-1.47,26.19Z"/><path class="cls-8" d="M233.76,328.51h34.35c-.13-2.69-.26-5.25-.38-7.66-.6-11.76-1.11-19.78-1.11-19.78l-27.94,1.25-2.32.1-4.11.18s.4,7.17,1,17.66C233.42,322.83,233.58,325.6,233.76,328.51Z"/><path class="cls-9" d="M236.36,302.42l-4.11.18s.4,7.17,1,17.66a248.87,248.87,0,0,0,34.46.59c-.6-11.76-1.11-19.78-1.11-19.78l-27.94,1.25Z"/><path class="cls-9" d="M240.15,328.51c-.65-11.25-1.18-20.9-1.47-26.19l-2.32.1c.29,5.27.82,14.88,1.47,26.09Z"/><path class="cls-2" d="M270.59,297.19c0,3.31,0,5.92,0,7.69a165.88,165.88,0,0,1-23.45,4.57l-.62.07-1,.12-.26,0c-1.36.14-2.71.28-4.07.39-2.81.23-6.91.43-9.73.51l-2.18-13-2.19,13c-1.61,0-4.44-.08-6.05-.15l-1.77-.1-1.59-.09-.72-.05-1.34-.1a163.9,163.9,0,0,1-29.61-5.2c-.05-3.89-.11-11.81-.12-22v-1.7c0-11.27,0-25.1.17-39.34l0-3.39c0-1.52,0-3.06,0-4.6,0-.31,0-.62,0-.93,0-.61,0-1.24,0-1.85,0-.9,0-1.8,0-2.7l.09-6.11c.48-28.27,1.43-54.26,3.25-60.87A4.72,4.72,0,0,1,190,160a6.87,6.87,0,0,1,.7-.9,16.19,16.19,0,0,1,1.17-1.19c3-2.78,8.28-6,13.61-9.1l1.86-1.06c.1,0,14.48-4.9,14.57-5l15,1c1.81,1.07,16,5.9,17.78,7l1.53,1c4.09,2.64,7.57,5.25,9.09,7.48,2.19,3.22,3.51,32.09,4.28,63.5,0,.72,0,1.44.05,2.17.08,3.32.15,6.66.22,10s.13,6.58.18,9.85c.09,5.34.16,10.6.23,15.67,0,.58,0,1.15,0,1.72.06,4.94.1,9.68.14,14.1,0,.58,0,1.15,0,1.72.05,6.64.09,12.52.09,17.24h0Z"/><polygon class="cls-10" points="229.96 165.48 238.71 239.33 229.24 257.61 219.52 239.33 228.8 165.5 229.96 165.48"/><polygon class="cls-11" points="235.39 162.54 229.3 172.3 223.03 162.63 229.21 150.82 235.39 162.54"/><path class="cls-4" d="M220.57,141.65s-5.41-.06-7.24,4.3c0,0-.56,13.39,9.7,16.68l6.18-11.81S221.51,148.44,220.57,141.65Z"/><path class="cls-4" d="M237.28,141.65a8.87,8.87,0,0,1,6.48,5s1.87,12.65-8.38,15.94l-6.17-11.81S236.35,148.44,237.28,141.65Z"/><path class="cls-4" d="M231.39,265.22a2.19,2.19,0,1,1-2.18-2.19A2.19,2.19,0,0,1,231.39,265.22Z"/><path class="cls-4" d="M231.39,282.64a2.19,2.19,0,1,1-2.18-2.18A2.19,2.19,0,0,1,231.39,282.64Z"/><path class="cls-4" d="M240,186.53h18.48a0,0,0,0,1,0,0v11.3a8.79,8.79,0,0,1-8.79,8.79h-.89a8.79,8.79,0,0,1-8.79-8.79v-11.3A0,0,0,0,1,240,186.53Z"/><path class="cls-8" d="M208.5,104.48s.34-8-.74-11.21c-1.91-5.64-1-10,3.23-11.33,4.84-1.54.86-4.91,5.53-6.38s5.79,2.5,8.62,1,3.79-2.6,6.59-3C236,73,236.26,77,239.2,76.5c4.88-.9,7.61,2.25,8.6,5.44s.24,4.1,2.5,5c3.35,1.39,2.74,6.92.9,9.25s-1.54,3.25-1.67,6.94S208.5,104.48,208.5,104.48Z"/><path class="cls-12" d="M247.44,111.64s3.53-4.71,6.16-.82-1.09,15.39-7.51,12.58Z"/><path class="cls-13" d="M247.49,119.85a.53.53,0,0,0,.52-.39c1-3.55,4.67-5,4.71-5a.55.55,0,0,0,.32-.7.54.54,0,0,0-.7-.31,9.31,9.31,0,0,0-5.37,5.72.54.54,0,0,0,.37.67A.39.39,0,0,0,247.49,119.85Z"/><path class="cls-13" d="M251.2,118.06a.51.51,0,0,0,.29-.08.54.54,0,0,0,.17-.75,5,5,0,0,0-2-1.65.55.55,0,0,0-.72.28.55.55,0,0,0,.27.72,3.8,3.8,0,0,1,1.57,1.24A.55.55,0,0,0,251.2,118.06Z"/><path class="cls-12" d="M211.07,111.64s-3.53-4.71-6.15-.82,1.08,15.39,7.51,12.58Z"/><path class="cls-13" d="M211,119.85a.54.54,0,0,1-.52-.39c-1-3.55-4.67-5-4.71-5a.54.54,0,1,1,.39-1,9.36,9.36,0,0,1,5.37,5.72.54.54,0,0,1-.38.67A.39.39,0,0,1,211,119.85Z"/><path class="cls-13" d="M207.31,118.06A.51.51,0,0,1,207,118a.54.54,0,0,1-.16-.75,4.85,4.85,0,0,1,2-1.65.54.54,0,0,1,.72.28.55.55,0,0,1-.27.72,3.88,3.88,0,0,0-1.57,1.24A.54.54,0,0,1,207.31,118.06Z"/><path class="cls-14" d="M220.57,133.15v11.43s3.41,5.82,8,6.22,8.69-5,8.69-5V134Z"/><path class="cls-12" d="M220.57,133.15v5.07c3.09,3.44,8.58,4.29,16.71,3.09V134Z"/><path class="cls-14" d="M208.52,103.8A110.43,110.43,0,0,0,210,118.24h0a.08.08,0,0,0,0,0h0c.21,1.08.45,2.1.7,3,.16.54.32,1.1.51,1.68,2.71,8.5,9,20.8,24.76,15.17,6.65-2.37,10.11-9.23,11.87-16.67.1-.44.2-.88.28-1.31.06-.28.12-.55.17-.82l.08-.4a1.15,1.15,0,0,0,0-.14.08.08,0,0,0,0,0,81.34,81.34,0,0,0,1.12-15.64A11.94,11.94,0,0,0,243.48,93c-9.94-5.64-20.44-3.53-27.34-.88A11.88,11.88,0,0,0,208.52,103.8Z"/><path class="cls-8" d="M210,118.24h0a.08.08,0,0,0,0,0h0c.11.37.66,2.41,1.21,4.7,2.71,8.5,9,20.8,24.76,15.17,6.65-2.37,10.11-9.23,11.87-16.67.1-.44.2-.88.28-1.31.06-.28.12-.55.17-.82l.08-.4a1.15,1.15,0,0,0,0-.14.08.08,0,0,0,0,0l-2.32-.47a17.9,17.9,0,0,1-2.63,6.11c-2-4.7-11.92-1.58-11.92-1.58l0,0a6.24,6.24,0,0,1-3.76,0s-9.84-3.26-11.88,1.23a63.61,63.61,0,0,1-3.43-6l-2.42.18ZM229.61,125c11.26-1.52,9.49,4.54,9.49,4.54a19.27,19.27,0,0,1-3.16,2.41,12.93,12.93,0,0,1-6.64,1.8c-1.72-.07-2.2.28-6.57-2.08a10.81,10.81,0,0,1-2.31-1.76h0C220.22,128.71,218.32,123.05,229.61,125Z"/><path class="cls-8" d="M219.4,112.07c0,1.22.63,2.2,1.41,2.2s1.4-1,1.4-2.2-.63-2.21-1.4-2.21S219.4,110.85,219.4,112.07Z"/><path class="cls-8" d="M237,112.07c0,1.22.63,2.2,1.41,2.2s1.4-1,1.4-2.2-.63-2.21-1.4-2.21S237,110.85,237,112.07Z"/><path class="cls-8" d="M215.81,104.62s5.8-2.3,10.27-.37l-.45,2.49s-6.56-.56-9.86.78A4.25,4.25,0,0,1,215.81,104.62Z"/><path class="cls-8" d="M243.4,104.63s-5.84-2.31-10.35-.37l.45,2.51s6.61-.56,9.94.79A4.34,4.34,0,0,0,243.4,104.63Z"/><path class="cls-12" d="M229.07,121.94a6,6,0,0,1-2-.41.54.54,0,0,1-.29-.71.54.54,0,0,1,.7-.3,3.29,3.29,0,0,0,2.18.21.61.61,0,0,0,.27-.51,82.62,82.62,0,0,0-.33-8.32.55.55,0,0,1,.5-.58.53.53,0,0,1,.58.49,82.75,82.75,0,0,1,.33,8.52,1.67,1.67,0,0,1-.79,1.33A2.29,2.29,0,0,1,229.07,121.94Z"/><path class="cls-11" d="M236,126.08c-.41,2.07-1.78,5.89-6.4,5.89s-5.92-3.49-6.37-5.89Z"/><path class="cls-8" d="M208.52,103.8A110.61,110.61,0,0,0,210,118.24l2.43-.18s-.59-3.75-.86-6.19-.74-7,1.35-7.58.86-5.78,3.75-8S226,93.37,230.31,96s9.08-.2,11,.26,4.65,3.16,3.92,5.7,1.45,4.07,2,6.69-1.15,9.68-1.15,9.68l2.32.47a81.34,81.34,0,0,0,1.12-15.64A11.92,11.92,0,0,0,243.48,93c-9.95-5.64-20.44-3.54-27.34-.88A11.88,11.88,0,0,0,208.52,103.8Z"/><path class="cls-2" d="M193.13,156.89s-14.28,9.53-23.46,12.36L175.81,195s.85-.35,11.27-4.78Z"/><path class="cls-2" d="M263.15,156.89s27.3,14,36.48,16.82c-3.52,6.34-5.76,12.22-8.75,20.71a206.86,206.86,0,0,1-23.53-7.89Z"/><path class="cls-15" d="M374.07,328.68c-.51-9.56-.9-15.8-.9-15.8l-28,1.24-2.33.11-4.12.18s.32,5.65.82,14.27Z"/><path class="cls-8" d="M374.07,328.68c-.51-9.56-.9-15.8-.9-15.8l-28,1.24-2.33.11-4.12.18s.32,5.65.82,14.27Z"/><path class="cls-9" d="M346,328.68c-.35-6.12-.63-11.21-.81-14.55l-2.33.1c.18,3.33.46,8.37.81,14.45Z"/><path class="cls-8" d="M330.7,328.68c.51-8.62.82-14.27.82-14.27l-4.48-.2-2.32-.1-27.67-1.23s-.3,4.79-.72,12.4c-.06,1.07-.12,2.21-.18,3.4Z"/><path class="cls-9" d="M326.24,328.68c.34-6.09.62-11.14.8-14.47l-2.32-.1c-.18,3.35-.46,8.44-.81,14.57Z"/><path class="cls-8" d="M313.22,108.94c0,12.63,7.77,21.33,20.39,21.33s21.43-9.36,21.43-22a26.94,26.94,0,0,0-1.66-9.62c-.06-.17-.13-.34-.2-.5-.13-.33-.27-.66-.42-1-.22-.49-.47-1-.72-1.43-3.29-5.91-9.19-9.68-17.1-9.68C319.79,86.09,313.22,96.31,313.22,108.94Z"/><path class="cls-8" d="M320.89,89.46a13.25,13.25,0,1,0,13.24-13.24A13.24,13.24,0,0,0,320.89,89.46Z"/><path class="cls-12" d="M316.05,114.38s-3.51-4.68-6.12-.81,1.08,15.29,7.47,12.5Z"/><path class="cls-13" d="M316,122.54a.53.53,0,0,1-.51-.39c-1-3.53-4.65-5-4.69-5a.56.56,0,0,1-.31-.7.54.54,0,0,1,.7-.31,9.26,9.26,0,0,1,5.33,5.68.53.53,0,0,1-.37.67Z"/><path class="cls-13" d="M312.32,120.76a.53.53,0,0,1-.46-.83,5,5,0,0,1,2-1.63.54.54,0,1,1,.44,1,3.9,3.9,0,0,0-1.56,1.24A.53.53,0,0,1,312.32,120.76Z"/><path class="cls-12" d="M352.2,114.38s3.51-4.68,6.12-.81-1.08,15.29-7.47,12.5Z"/><path class="cls-13" d="M352.25,122.54a.55.55,0,0,0,.52-.39,8.31,8.31,0,0,1,4.68-5,.54.54,0,0,0,.31-.7.52.52,0,0,0-.69-.31,9.26,9.26,0,0,0-5.34,5.68.55.55,0,0,0,.37.67Z"/><path class="cls-13" d="M355.94,120.76a.51.51,0,0,0,.29-.08.55.55,0,0,0,.16-.75,4.91,4.91,0,0,0-2-1.63.55.55,0,0,0-.72.27.54.54,0,0,0,.27.71,3.81,3.81,0,0,1,1.56,1.24A.55.55,0,0,0,355.94,120.76Z"/><path class="cls-14" d="M342.76,135.76v11.36s-3.39,5.79-8,6.18-8.64-5-8.64-5V136.56Z"/><path class="cls-12" d="M342.76,135.76v5c-3.07,3.41-8.53,4.26-16.61,3.07v-7.31Z"/><path class="cls-14" d="M314,109.48c0,.2,0,.41,0,.63,0,.55,0,1.11.06,1.69,0,.29,0,.58,0,.88s0,.59.06.89v.1l.06.8a67.84,67.84,0,0,0,.86,6.87s0,.11,0,.16c.07.37.15.75.22,1.13,1.63,8,5.07,15.6,12.13,18.12,16.74,6,22.72-8.38,25.12-16.75.21-.76.41-1.59.59-2.47l.12-.59a1,1,0,0,1,0-.16,110.2,110.2,0,0,0,1.45-14.07v-.13A11.81,11.81,0,0,0,347.17,95c-6.87-2.64-17.3-4.73-27.17.87A11.86,11.86,0,0,0,314,106C314,107,314,108.21,314,109.48Z"/><path class="cls-8" d="M315.07,121.34s0,.11,0,.16c1.53,8.37,5,16.61,12.35,19.25,16.74,6,22.72-8.38,25.12-16.75.26-.93.5-2,.71-3.06a1,1,0,0,1,0-.16l-1.8-.12a64.79,64.79,0,0,1-3.49,6.15c-2.09-4.58-12.14-1.25-12.14-1.25a6.4,6.4,0,0,1-3.84,0h0s-10.17-3.19-12.18,1.61a18.27,18.27,0,0,1-2.69-6.24Zm18.87,6.39c11.53-2,9.58,3.8,9.39,5h0a11.27,11.27,0,0,1-2.37,1.79c-4.46,2.42-4.95,2.06-6.71,2.13a13.23,13.23,0,0,1-6.78-1.84,19.36,19.36,0,0,1-3.23-2.46S322.43,126.18,333.94,127.73Z"/><path class="cls-8" d="M327,115.86c0,1.21-.63,2.2-1.4,2.2s-1.39-1-1.39-2.2.62-2.2,1.39-2.2S327,114.65,327,115.86Z"/><path class="cls-8" d="M343.4,115.81c0,1.22-.62,2.2-1.39,2.2s-1.4-1-1.4-2.2.63-2.19,1.4-2.19S343.4,114.6,343.4,115.81Z"/><path class="cls-8" d="M346.56,108.27s-4.41-1.74-7.8-.28l.34,1.89s5-.42,7.49.59A3.32,3.32,0,0,0,346.56,108.27Z"/><path class="cls-8" d="M320.89,108.27s4.41-1.74,7.8-.28l-.34,1.89s-5-.42-7.48.59A3.26,3.26,0,0,1,320.89,108.27Z"/><path class="cls-12" d="M334.8,125.06a5.67,5.67,0,0,0,1.95-.41.54.54,0,0,0-.41-1,3.24,3.24,0,0,1-2.16.21.59.59,0,0,1-.27-.51,81.39,81.39,0,0,1,.33-8.26.54.54,0,0,0-1.08-.09,79.23,79.23,0,0,0-.32,8.46,1.64,1.64,0,0,0,.78,1.32A2.26,2.26,0,0,0,334.8,125.06Z"/><path class="cls-11" d="M327.07,129.19c.89,3.11,3.44,6.22,7,6.26s6.06-3.15,7-6.26Z"/><path class="cls-8" d="M314,109.48c0,.2,0,.41,0,.63,0,.55,0,1.12.06,1.69,0,.29,0,.58,0,.88s0,.59.06.89v.1l.06.8a67.84,67.84,0,0,0,.86,6.87s0,.11,0,.16c.07.37.15.75.22,1.13l1.86-1.39c-.11-1.2-1.07-9.08-.92-9.83.52-2.61,3.65-5.4,2.92-7.91s-1.79-5.77.17-6.22,10-.53,15-.36,12.14-.81,15,1.45-5.38,6.74,1,8.7c2,.62,1.32,11.13,1.05,13.59l1.73.87.12-.59a1,1,0,0,1,0-.16,110.2,110.2,0,0,0,1.45-14.07v-.13A11.81,11.81,0,0,0,347.17,95c-6.87-2.64-17.3-4.73-27.17.87A11.86,11.86,0,0,0,314,106C314,107,314,108.21,314,109.48Z"/><path class="cls-3" d="M343.1,147.36a58,58,0,0,0,5.84,3.57l4.28,2.29c2.33,1.22,4.81,2.52,7.27,3.85h0c3.64,2,7.22,4,10.2,5.93a26.42,26.42,0,0,1,6.5,5.4c1.68,2.33,2.77,17.38,3.47,37.18,0,.69,0,1.4.08,2.11V208c0,.72.05,1.46.08,2.2.06,2.23.13,4.5.19,6.82,0,.49,0,1,0,1.47l0,1.11c.07,2.83.13,5.72.19,8.64,0,2,.08,4,.11,6.05.62,35.3.47,73.6.32,84a194.15,194.15,0,0,1-22.89,4.37h0c-2,.25-4,.48-6,.67l-2,.18c-3.58.3-7.16.51-10.73.61q-8.87.26-17.74-.35-6.09-.42-12.19-1.23a198.54,198.54,0,0,1-22.12-4.25c-.13-12.42.16-65.51,1.64-105.22,0-.64.05-1.27.08-1.9.88-22.87,2.18-40.91,4-43.46,2.24-3.06,8.3-6.84,14.71-10.44,2.6-1.47,5.27-2.91,7.76-4.25,4.11-2.22,7.75-4.21,9.85-5.68h0s4.08,6.4,8.65,6c4.17-.36,7.42-5.3,8-6.18Z"/><path class="cls-6" d="M359.21,293.51h0c-15.38-.07-28.5-7.07-36.8-12.92a85.08,85.08,0,0,1-14.48-12.82.74.74,0,0,1,1.14-.95,82.93,82.93,0,0,0,14.22,12.58c8.12,5.72,20.95,12.56,35.92,12.63a.74.74,0,1,1,0,1.48Z"/><path class="cls-6" d="M343.19,298.73c-13.34,0-26.65-7.6-27.25-8a.74.74,0,1,1,.74-1.28c.15.09,15.81,9,29.69,7.59a.74.74,0,1,1,.15,1.47A31,31,0,0,1,343.19,298.73Z"/><path class="cls-6" d="M323.07,172.62a.74.74,0,0,1-.13-1.46c18.74-3.56,24.39-15.62,24.44-15.74a.74.74,0,1,1,1.35.61c-.23.52-6,12.88-25.52,16.58Z"/><path class="cls-6" d="M350.85,190.81h18.48a0,0,0,0,1,0,0v11.3a8.79,8.79,0,0,1-8.79,8.79h-.89a8.79,8.79,0,0,1-8.79-8.79v-11.3A0,0,0,0,1,350.85,190.81Z"/><path class="cls-14" d="M264.1,328.68s0-.08,0-.12c-1.42-8.4,2.62-16,4.37-15.77s-1.45,9.18.11,12.4,3.56-3,5.55-6.83c2.07-3.94,1.95-12.53,1-18.67s10.18-43.39,10.23-54.19l1.36-4.58,5-16.76,7.76-26.24s-4.65-19.86-12.49-18.16c0,0-4.15,13.84-8.59,29.44l-2.27,8.05c-3.16,11.31-6.13,22.48-7.51,29.11-3.65,17.5-3.93,53.87-3.93,53.87s-6.44,13.36-6.59,19.31a29,29,0,0,0,1.64,9.14Z"/><path class="cls-12" d="M276.08,217.25l10.63,23.67,5-16.76-13.32-15Z"/><path class="cls-3" d="M275.56,210.19c4.66,8,9.4,15.94,14.12,23.9,1.55-5.2,3.16-10.2,4.67-14.8l0,0q.9-2.76,1.76-5.31s0-.06,0-.08c.19-.6.38-1.18.58-1.76h0c2.25-6.82,4-12.23,4.5-15.39,1.34-8.5-1.81-23.58-6.48-27.86l-.53-.41c-.31-.18-.42-.45-.76-.1a46.38,46.38,0,0,0-7.44,12.2l-.79,2C282.36,190,278.82,199.62,275.56,210.19Z"/><path class="cls-6" d="M289,238.79c1.53-6.35,3.47-13.42,5.38-19.5l0,0c.59-1.88,1.18-3.67,1.75-5.31a.2.2,0,0,1,0-.08c.17-.52.36-1,.53-1.51a.74.74,0,0,0,.05-.25h0a.73.73,0,0,0-1.41-.24c-2,5.35-4.28,13-6.27,20.61C289,234.57,289,236.68,289,238.79Z"/><path class="cls-6" d="M374.75,212.11h0a.79.79,0,0,0,.05.25c.18.49.36,1,.53,1.5a.36.36,0,0,1,0,.09c.58,1.64,1.16,3.42,1.76,5.3,0,0,0,0,0,0,1.46,4.66,2.94,9.9,4.24,15q0-3-.11-6c-1.69-6.1-3.52-12-5.11-16.33a.73.73,0,0,0-1.41.24Z"/><path class="cls-14" d="M409.77,228.69h0c-4.11-8.77-32.31-59.79-32.31-59.79-5.32,3.17,3.68,53.36,3.68,53.36l11.19,28.56a11.71,11.71,0,0,0,16.81,6l.32-.18C420.25,250.21,409.77,228.69,409.77,228.69Z"/><path class="cls-3" d="M377.46,168.9l26.06,37.27s-10.36,22.58-22.26,21.73C381.26,227.9,366.6,176.55,377.46,168.9Z"/><polygon class="cls-8" points="410.43 205.28 410.1 209.05 409.54 215.4 409.43 216.62 408.97 222.02 408.45 227.9 408.43 228.17 407.84 234.91 407.32 240.91 406.67 248.35 385.98 248.35 385.82 246.65 385.2 239.41 384.81 235.04 384.19 227.9 384.18 227.78 383.8 223.42 383.21 216.62 383.17 216.12 382.79 211.79 382.22 205.28 410.43 205.28"/><polygon class="cls-11" points="409.43 216.62 408.97 222.02 408.45 227.9 384.19 227.9 384.18 227.78 383.8 223.42 383.21 216.62 409.43 216.62"/><rect class="cls-4" x="380.77" y="199.77" width="31.1" height="5.51"/><path class="cls-8" d="M384.6,195.09h23.46a1.48,1.48,0,0,1,1.48,1.48v3.2a0,0,0,0,1,0,0H383.12a0,0,0,0,1,0,0v-3.2A1.48,1.48,0,0,1,384.6,195.09Z"/><path class="cls-14" d="M411.13,209.22a65.08,65.08,0,0,0-9.54,1.58c-2.85.66-9,4.4-6.41,5.78,2.09,1.08,11.48-1.54,13.34-.69,0,0-4.44.91-8.22,1.49-3.42.53-8.71,2.53-6.65,3.62s6.82.61,8.55.65c2.3.06,5.22,0,5.22,0a71.09,71.09,0,0,0-8,1.92c-2,.6-7.7,1.18-5.88,3.76.91,1.3,8.63.36,12.51.71,0,0-7.15,1.21-9.22,3.15-1.64,1.54.6,1.75,3.48,1.95a61.16,61.16,0,0,0,7.12,0c2.26,0,6.06-1.6,6.14-3.92s-1.21-3.28-.81-4.74,1.34-3.68.81-5-.37-2.35.16-4S413.31,209.9,411.13,209.22Z"/><path class="cls-11" d="M336.44,116.67a6.73,6.73,0,1,1,6.73,6.72A6.74,6.74,0,0,1,336.44,116.67Zm1.05,0a5.68,5.68,0,1,0,5.68-5.68A5.69,5.69,0,0,0,337.49,116.67Z"/><path class="cls-11" d="M318.05,116.67a6.73,6.73,0,1,1,6.73,6.72A6.74,6.74,0,0,1,318.05,116.67Zm1.05,0a5.68,5.68,0,1,0,5.68-5.68A5.69,5.69,0,0,0,319.1,116.67Z"/><path class="cls-11" d="M355.21,111.58a.53.53,0,0,0-.53-.53,9.54,9.54,0,0,0-6.29,2.55.51.51,0,0,0,0,.74.49.49,0,0,0,.37.16.53.53,0,0,0,.37-.15,8.55,8.55,0,0,1,5.54-2.24.54.54,0,0,0,.54-.53Z"/><path class="cls-11" d="M319.35,113.54a18.58,18.58,0,0,0-6-2.45.53.53,0,0,0-.62.52h0a.52.52,0,0,0,.42.51,18.32,18.32,0,0,1,5.6,2.29.47.47,0,0,0,.28.09.54.54,0,0,0,.44-.24A.52.52,0,0,0,319.35,113.54Z"/><path class="cls-11" d="M331.14,115.15a4.24,4.24,0,0,1,2.89-1.7,3.89,3.89,0,0,1,2.76,1.7l.88-.57A4.86,4.86,0,0,0,334,112.4a5.19,5.19,0,0,0-3.74,2.14Z"/><path class="cls-14" d="M157.8,188.92l13.31,48.42.27.89c0,.22,0,.44,0,.69.49,11.73,11.28,48.09,10.34,54.18s-1.07,14.91,1,18.9c2,3.84,4.05,10.17,5.62,6.91s-1.66-12.3.11-12.55,5.87,7.46,4.42,16,3.67,10.79,3.28,6.59,3-9.31,2.83-15.73c-.16-6-6.67-19.55-6.67-19.55s-.29-36.83-4-54.54S170,165.74,170,165.74C161.71,174.53,157.8,188.92,157.8,188.92Z"/><path class="cls-12" d="M171.12,237.37l.26.86c0,.21,0,.43,0,.66a56.6,56.6,0,0,1,6.87-2,.76.76,0,1,0-.28-1.49A56.82,56.82,0,0,0,171.12,237.37Z"/><path class="cls-8" d="M175,328.48c-.51-3.29-1-6.6-1.49-9.88-.33-2.2-.64-4.38-.95-6.53-1.18-8.22-2.23-16-3.07-22.46-.32-2.45-.61-4.71-.87-6.73-.82-6.44-1.3-10.45-1.3-10.45l-36.19,1.37-36.31-1.37s-.93,7.92-2.43,19.4c-.27,2.09-.57,4.3-.87,6.6-.81,6-1.73,12.68-2.72,19.49l-.05.3c-.31,2.12-.62,4.26-.95,6.4a.22.22,0,0,1,0,.08h0l-.57,3.77Z"/><path class="cls-9" d="M103.16,283.3a3.42,3.42,0,1,1-3.41-3.41A3.42,3.42,0,0,1,103.16,283.3Z"/><path class="cls-9" d="M111.62,296.52a3.41,3.41,0,1,1-3.41-3.41A3.41,3.41,0,0,1,111.62,296.52Z"/><path class="cls-9" d="M128.27,289.7a3.41,3.41,0,1,1-3.41-3.41A3.41,3.41,0,0,1,128.27,289.7Z"/><path class="cls-9" d="M102,310.55a3.41,3.41,0,1,1-3.41-3.41A3.41,3.41,0,0,1,102,310.55Z"/><path class="cls-9" d="M122.8,309.09a3.41,3.41,0,1,1-3.41-3.41A3.42,3.42,0,0,1,122.8,309.09Z"/><path class="cls-9" d="M94.6,295a3.41,3.41,0,0,1-3.09,3.4c.3-2.3.6-4.51.87-6.6A3.41,3.41,0,0,1,94.6,295Z"/><path class="cls-9" d="M156.65,328.48a3.41,3.41,0,0,0-6.7,0Z"/><circle class="cls-9" cx="151.69" cy="310.55" r="3.41"/><path class="cls-9" d="M173.5,318.6a3.52,3.52,0,0,1-1.34.27,3.41,3.41,0,1,1,0-6.82,2.55,2.55,0,0,1,.39,0C172.86,314.22,173.17,316.4,173.5,318.6Z"/><path class="cls-9" d="M90.75,321.33a3.4,3.4,0,0,1-3,3.37.22.22,0,0,0,0-.08c.33-2.14.64-4.28.95-6.4A3.43,3.43,0,0,1,90.75,321.33Z"/><path class="cls-9" d="M113.37,324.75a3.41,3.41,0,1,1-3.41-3.41A3.41,3.41,0,0,1,113.37,324.75Z"/><path class="cls-9" d="M131.69,321.34a3.42,3.42,0,1,1-3.42-3.41A3.42,3.42,0,0,1,131.69,321.34Z"/><path class="cls-9" d="M139.93,303.34a3.41,3.41,0,1,1-3.41-3.41A3.41,3.41,0,0,1,139.93,303.34Z"/><path class="cls-9" d="M169.48,289.61a3,3,0,0,1-.73.09,3.41,3.41,0,0,1-.14-6.82C168.87,284.9,169.16,287.16,169.48,289.61Z"/><path class="cls-9" d="M151.69,289.7a3.41,3.41,0,1,1-3.41-3.41A3.41,3.41,0,0,1,151.69,289.7Z"/><path class="cls-9" d="M164.18,301.85a3.41,3.41,0,1,1-3.41-3.41A3.4,3.4,0,0,1,164.18,301.85Z"/><path class="cls-3" d="M168.92,273.33c-19.09,12.46-54.15,11.49-76.18,0,2.11-13.11,4.88-26.23,4.28-43.68q-.09-2.86-.24-5.7c-.08-1.63-.18-3.26-.28-4.87-1.91-29-6.86-52.75-4.42-55.82a23.44,23.44,0,0,1,5-4.28c.86-.58,1.78-1.17,2.75-1.76,2.28-1.4,4.83-2.8,7.38-4.17,6-3.24,12.2-6.24,15.28-8.28a19.53,19.53,0,0,0,8.11,2h.45a19.53,19.53,0,0,0,8.11-2c2.86,1.9,8.24,4.55,13.73,7.44a119.21,119.21,0,0,1,11.32,6.57,23,23,0,0,1,4.84,4.16c1.2,1.52.7,8.18-.34,18.06-1,9.71-2.54,22.55-3.47,36.65-.25,3.92-.47,7.93-.61,12C164.05,247.1,166.82,260.22,168.92,273.33Z"/><path class="cls-6" d="M155.52,259.67h0c-15.38-.07-28.5-7.06-36.8-12.92a83.77,83.77,0,0,1-14.47-12.82.72.72,0,0,1,.09-1,.74.74,0,0,1,1,.09,82.29,82.29,0,0,0,14.23,12.58c8.12,5.73,20.94,12.56,35.92,12.63a.74.74,0,0,1,0,1.48Z"/><path class="cls-6" d="M139.5,264.89c-13.34,0-26.65-7.6-27.25-7.95a.74.74,0,0,1-.27-1,.75.75,0,0,1,1-.27c.16.09,15.81,9,29.69,7.6a.73.73,0,0,1,.81.65.75.75,0,0,1-.66.82C141.73,264.84,140.61,264.89,139.5,264.89Z"/><path class="cls-6" d="M127.69,182.16a.74.74,0,0,1-.14-1.47c18.74-3.56,24.39-15.62,24.45-15.74a.74.74,0,0,1,1.35.61c-.24.53-6,12.88-25.52,16.58Z"/><path class="cls-14" d="M152.9,152.21c-3.72,8.49-12.46,20-24.35,17.94-11.52-2-17.39-10.8-21.33-17.1,6-3.24,12.2-6.23,15.28-8.28a19.69,19.69,0,0,0,8.11,2h.45a19.69,19.69,0,0,0,8.11-2C142,146.67,147.41,149.32,152.9,152.21Z"/><path class="cls-8" d="M131.06,147.11h0Z"/><path class="cls-8" d="M150.08,85.76s9,13.94,8,28.46,1.33,31.28-11.66,30.55-36.17,5.21-43.54-6.1S150.08,85.76,150.08,85.76Z"/><path class="cls-12" d="M111.93,111.3s-3.59-4.78-6.25-.83,1.1,15.63,7.63,12.78Z"/><path class="cls-13" d="M111.88,119.64a.56.56,0,0,1-.53-.4c-1-3.61-4.74-5.07-4.78-5.08a.55.55,0,0,1-.32-.71.56.56,0,0,1,.71-.33c.17.07,4.29,1.67,5.45,5.82a.54.54,0,0,1-.38.68Z"/><path class="cls-13" d="M108.11,117.82a.51.51,0,0,1-.29-.08.55.55,0,0,1-.17-.77,5,5,0,0,1,2.07-1.66.55.55,0,1,1,.45,1,3.9,3.9,0,0,0-1.59,1.26A.55.55,0,0,1,108.11,117.82Z"/><path class="cls-12" d="M148.89,111.3s3.58-4.78,6.25-.83-1.11,15.63-7.63,12.78Z"/><path class="cls-13" d="M148.93,119.64a.56.56,0,0,0,.53-.4c1-3.61,4.75-5.07,4.79-5.08a.56.56,0,0,0-.39-1,9.54,9.54,0,0,0-5.46,5.82.56.56,0,0,0,.38.68Z"/><path class="cls-13" d="M152.7,117.82a.54.54,0,0,0,.3-.08.56.56,0,0,0,.17-.77,5,5,0,0,0-2.08-1.66.54.54,0,0,0-.72.27.55.55,0,0,0,.27.73,4.07,4.07,0,0,1,1.6,1.26A.52.52,0,0,0,152.7,117.82Z"/><path class="cls-14" d="M139.23,133.15v11.62s-3.46,5.91-8.14,6.31-8.84-5.09-8.84-5.09V134Z"/><path class="cls-12" d="M139.23,133.15v5.16c-3.14,3.48-8.72,4.72-17,3.5V134Z"/><path class="cls-14" d="M151.48,103.33A114,114,0,0,1,150,118c-.21,1.12-.46,2.18-.73,3.13-2.44,8.56-8.55,23.23-25.67,17.12-7.55-2.7-11.06-11.11-12.62-19.68a82.46,82.46,0,0,1-1.14-15.89A12.11,12.11,0,0,1,116,92.37c10.1-5.73,20.76-3.59,27.78-.9A12.09,12.09,0,0,1,151.48,103.33Z"/><path class="cls-8" d="M122.87,112c0,1.24-.64,2.24-1.43,2.24s-1.42-1-1.42-2.24.64-2.25,1.42-2.25S122.87,110.74,122.87,112Z"/><path class="cls-8" d="M140.49,112c0,1.24-.64,2.24-1.42,2.24s-1.43-1-1.43-2.24.64-2.25,1.43-2.25S140.49,110.74,140.49,112Z"/><path class="cls-8" d="M118.62,105.3a23.63,23.63,0,0,1,6.1-.92,1.06,1.06,0,0,1,1.06,1.24v0a1.06,1.06,0,0,1-1.09.87c-1.71-.08-6.23.16-8.35,1a1.55,1.55,0,0,1,.48-1.13A3.58,3.58,0,0,1,118.62,105.3Z"/><path class="cls-8" d="M141.67,105.34a23.64,23.64,0,0,0-6.1-.91,1.07,1.07,0,0,0-1.06,1.24v0a1,1,0,0,0,1.09.86c1.72-.08,6.23.16,8.36,1a1.63,1.63,0,0,0-.49-1.14A3.72,3.72,0,0,0,141.67,105.34Z"/><path class="cls-12" d="M130.6,122.22a2.34,2.34,0,0,1-1.2-.29,1.68,1.68,0,0,1-.8-1.34,82.46,82.46,0,0,1,.33-8.66.54.54,0,0,1,.59-.5.55.55,0,0,1,.51.59c0,.07-.53,6.53-.34,8.45a.62.62,0,0,0,.28.52c.51.31,1.71,0,2.21-.21a.55.55,0,0,1,.72.3.56.56,0,0,1-.3.72A5.92,5.92,0,0,1,130.6,122.22Z"/><path class="cls-11" d="M123.59,125.7c.42,2.1,1.81,6,6.48,6s6-3.53,6.44-6Z"/><path class="cls-12" d="M130,134.88a5.52,5.52,0,0,1-2.59-.76.55.55,0,0,1-.18-.76.57.57,0,0,1,.76-.18h0a4.35,4.35,0,0,0,2,.6,4.63,4.63,0,0,0,2.12-.6.55.55,0,0,1,.57.95A5.78,5.78,0,0,1,130,134.88Z"/><path class="cls-8" d="M153.7,102.43a1.83,1.83,0,0,1-1.33,1,34.64,34.64,0,0,1-.2,4.08c-.68,8-2.69,9.37-3.15,7.4a92.87,92.87,0,0,1-.13-11.26,27.05,27.05,0,0,1-2.92-.37l-1.85-7.74-.65,7.64c-2.78,1-9.25-.58-9.25-.58L132.05,95l-1.34,7.34c-4.16,2-9.36.68-9.36.68l-1.2-7.92L117.39,103s-8.87,3.19-9,0c-.06-1.85,1.3-7.07,2.44-11.11a16.73,16.73,0,0,1,8.07-10.24c11-5.91,22.65-2.76,26.65-.38C154.05,86.34,153.7,102.43,153.7,102.43Z"/><path class="cls-8" d="M113.56,86.35S106,95,103.6,110.57s-5.74,27,3.62,32.12c10.12,5.54,12.07-3.9,11.93-7s-11.59-13.47-5.84-37.28C115.16,90.73,113.56,86.35,113.56,86.35Z"/><path class="cls-11" d="M151.61,123.51a1.3,1.3,0,1,1-1.29-1.29A1.29,1.29,0,0,1,151.61,123.51Z"/><path class="cls-14" d="M96.5,219.08c-1.91-29-6.86-52.75-4.42-55.82a23.44,23.44,0,0,1,5-4.28C99.32,169.43,104.94,200.85,96.5,219.08Z"/><path class="cls-14" d="M168.72,181c-1,9.71-2.54,22.55-3.47,36.65-7.49-18.19-3.25-48.31-1-58.87a23,23,0,0,1,4.84,4.16C170.26,164.46,169.76,171.12,168.72,181Z"/><path class="cls-14" d="M100.64,194.17l-8.42,27.05L83,246.94a9.05,9.05,0,0,1-12.5,5.83l-.26-.12c-8.77-4.14-3.94-21.34-3.94-21.34l1.66-.13c.67-1.89,2.49-6.7,4.81-12.73.28-.74.58-1.51.87-2.28.5-1.28,1-2.61,1.53-4l2.27-5.89c5.69-14.74,10.4-30.75,10.4-30.75l3.92-11.65Z"/><path class="cls-12" d="M77,236.81h-.1a.69.69,0,0,1-.69-.58c-1.28-8.16-2.57-14.18-3.43-17.79.28-.74.58-1.51.87-2.28.8,3.18,2.37,10,3.93,19.85A.69.69,0,0,1,77,236.81Z"/><path class="cls-14" d="M75.73,237.21s-1.21-19.59-5.39-23.76-8-5.76-11.92-5.62-7.61.63-7.37,2.24c0,0-9-1.36-13,1s11.91,4.37,16.64,4.5,7.23,2.76,7.42,5.58S65,242.63,65,242.63Z"/><path class="cls-9" d="M80.5,211.34l-59.7.4a4.07,4.07,0,0,1-4.1-4v0a4.08,4.08,0,0,1,4-4.1l59.7-.39a4.07,4.07,0,0,1,4.1,4v0A4.07,4.07,0,0,1,80.5,211.34Z"/><path class="cls-8" d="M16.74,211.77,3.67,164.1a4.23,4.23,0,0,1,4.05-5.34l28.06-.19a4.22,4.22,0,0,1,4.08,3.06l14.38,49.89Z"/><path class="cls-9" d="M39.87,161.63l14.25,49.48,3.21,0L43.07,161.61A4.23,4.23,0,0,0,39,158.55l-3.2,0A4.24,4.24,0,0,1,39.87,161.63Z"/><path class="cls-2" d="M32.82,187.26c.75,3.15-1.19,5.72-4.34,5.74a7.61,7.61,0,0,1-7.06-5.66,4.39,4.39,0,0,1,4.34-5.73A7.61,7.61,0,0,1,32.82,187.26Z"/><rect class="cls-4" x="35.51" y="328.48" width="389.66" height="15.16" rx="7.23"/><path class="cls-2" d="M425.17,335.71v.34H35.51v-.34a7.23,7.23,0,0,1,7.23-7.23h375.2A7.23,7.23,0,0,1,425.17,335.71Z"/></g></g></svg>