<svg xmlns="http://www.w3.org/2000/svg" viewBox="0 0 2841.87 1162.08"><defs><style>.cls-1{fill:#e2b897;}.cls-2{fill:#f8bd8c;}.cls-3{fill:#31185e;}.cls-4{fill:#2a1656;}.cls-5{fill:#1d1647;}.cls-6{fill:#eab186;}.cls-7{fill:#1a1a1a;}.cls-8{fill:#fcfcfc;}.cls-9{fill:#666b6d;}.cls-10{fill:#c5a2fd;}.cls-11{fill:#f2b588;}.cls-12{fill:#1b191b;}.cls-13{fill:#9e4aff;}.cls-14{fill:#2c2a30;}.cls-15{fill:#755faa;}.cls-16{fill:#ff7c90;}.cls-17{fill:#b08174;}.cls-18{fill:#fff;}.cls-19{fill:#0b0635;}.cls-20{fill:#ccdde7;}.cls-21{fill:#dc4070;}.cls-22{fill:#080305;}.cls-23{fill:#231347;}.cls-24{fill:#ababab;}.cls-25{fill:#190444;}.cls-26{fill:#8e8d8e;}.cls-27{fill:#d1d1d3;}.cls-28{fill:#999;}.cls-29{fill:#333;}</style></defs><g id="Layer_2" data-name="Layer 2"><g id="Layer_1-2" data-name="Layer 1"><path class="cls-1" d="M455.34,1160.88H61.3l7-193.34.2-5.85,0-1.21,324-14.81,46.53-2.12,1.35,18,5.95,79.35v.12l2.15,28.83h0l.94,12.55Z"/><path class="cls-1" d="M267.54,1160.88H61.15l3.7-196.49.08-3.91,3.54,1.21,37.76,13,93.82,32.22.15.05,62.14,21.35Z"/><polygon class="cls-2" points="308 450.85 194.74 464.12 191.97 387.87 191.77 382.62 191.41 372.59 284.06 361.73 290.09 361.02 295.16 386.45 308 450.85"/><path class="cls-3" d="M177.31,439.13s-132,55-135.63,66-18.32,42.15-18.32,42.15S87.5,703,71,756.19s-5.5,141.12-5.5,168.62-11,38.48,9.16,45.81,86.14,3.67,122.8,0,111.79,1.14,128.29,4.24,115.46-13.4,115.46-13.4,12.83-69.64,9.17-104.47,1.31-117.29.65-130.12,6.28-18.33.06-49.48S476,475.78,476,475.78L323.93,420.34Z"/><polygon class="cls-4" points="246.22 432.7 227.19 496.34 143.45 454.09 163.75 432.7 246.22 432.7"/><path class="cls-5" d="M228.11,498.49l-87.14-44L163.1,431.2h85.13Zm-82.18-44.83,80.33,40.54,18-60H164.39Z"/><polygon class="cls-4" points="229.9 432.7 255.56 496.34 351.08 429.08 328.27 404.49 229.9 432.7"/><path class="cls-5" d="M254.87,498.66l-27-67,100.86-28.92,24.61,26.53Zm-23-65L256.24,494l92.57-65.19-21-22.65Z"/><path class="cls-3" d="M88.67,478s56.38,21.84,51.21,243l205.38-47.15,25.19,104.06s-225.4,97.54-283.91,95.92S-9.81,605.55,2.24,576.28s15.35-70.95,84.18-97Z"/><polygon class="cls-2" points="356.14 679.11 409.05 659.3 395.93 739.21 354.56 741.28 345.51 684.69 356.14 679.11 356.14 679.11"/><polygon class="cls-2" points="191.15 712.25 147.9 722.22 146.18 711.73 143.32 694.36 146.28 695.47 191.15 712.25 191.15 712.25"/><path class="cls-3" d="M428.06,489.53,394.17,730.71,179,701.77,153.55,807.88S445,878.62,502.6,859.33,533.1,574.75,517.86,541,492.3,480.81,472,474.38s-43.92,15.15-43.92,15.15Z"/><path class="cls-6" d="M295.16,386.45c-4.54,10.39-12.43,20-24.64,24.42-26.92,9.68-60.59-10.53-78.56-23l-.19-5.25c1.55.24,3.31.45,5.29.62,11.86,1,29.56.66,51.83-4.9,15.92-4,27.3-10.42,35.17-16.61l6-.71Z"/><path class="cls-2" d="M308.27,262.59c4.94,62.47-24.58,115.89-70.45,119.52s-87.06-44.08-92-106.55,28.24-116,74.12-119.68S303.33,200.12,308.27,262.59Z"/><path class="cls-7" d="M245.56,399.61c-43.91,6.53-86.95-38.85-96.19-101.24-.87-6-1.39-11.95-1.68-17.81,10.26,60.63,52.64,104.25,95.74,97.87,39.59-5.87,66.27-51.91,64.37-106.67.22,1,.36,2.05.51,3.08C317.55,337.23,289.47,393.09,245.56,399.61Z"/><path class="cls-7" d="M180.36,124.51s-.52,46.43,11,53.15,24.78-5.5,35.28-7.33,31.74-3.64,46.62,9.33S301,230.45,301,230.45l3.27,12.67s8.7,2.2,9.62-9.72-1.53-61.85,0-66.74.91-9.77-4.59-15.27-12.52-14-10.38-17.72,11.3-13.13,2.44-21.38-51.62-13.44-59.56-6.11S204.19,85.41,180.36,124.51Z"/><path class="cls-7" d="M172.27,128s-41.7,4.58-42.62,41.24c0,0-5,8.24-15.12,21.53s1.84,35.74,4.59,49,8.4,24.28,8.09,28.25,7.32,11.61,14.2,8.56,8.4-11.21,8.4-11.21.62-51.72,8.25-60.88,20.62-18.17,28.1-22,9.17-11,9.17-11.91-9.47-51-9.47-51Z"/><path class="cls-2" d="M163.09,285.05c5.74,11.82,3.64,24.68-4.71,28.74s-19.76-2.23-25.51-14-3.63-24.67,4.71-28.73S157.35,273.24,163.09,285.05Z"/><path class="cls-2" d="M325,268.9c-1.5,13.05-10.19,22.77-19.4,21.71s-15.48-12.5-14-25.55,10.19-22.76,19.41-21.7S326.46,255.86,325,268.9Z"/><path class="cls-7" d="M199.18,245.28a125.66,125.66,0,0,0-17.4,2.3c-5.65,1.19-11.32,2.88-15.55,5.5l-.21.14a4.77,4.77,0,0,1-5.13-8c6.13-4,12.42-5.87,18.67-7.44a134.49,134.49,0,0,1,18.94-3.08,5.32,5.32,0,1,1,1,10.6h-.32Z"/><path class="cls-7" d="M194.33,268c.68,4.55-1.89,8.7-5.73,9.27s-7.49-2.66-8.17-7.22,1.89-8.7,5.73-9.27S193.66,263.41,194.33,268Z"/><path class="cls-7" d="M247.62,239.49a125.14,125.14,0,0,1,17.46-1.7c5.78-.13,11.68.23,16.4,1.83l.23.08a4.76,4.76,0,0,0,3.17-9c-6.88-2.53-13.43-2.91-19.86-3a134.06,134.06,0,0,0-19.15,1.3,5.32,5.32,0,1,0,1.43,10.54l.14,0Z"/><path class="cls-7" d="M257.48,260.49c.38,4.59,3.82,8.05,7.69,7.73s6.69-4.29,6.32-8.88-3.82-8-7.69-7.73S257.11,255.9,257.48,260.49Z"/><path class="cls-7" d="M204.79,371.09c2.42,1.64,10.8-.38,13.52-1,4.62-1,9.9-2.74,12.8-6.74,3.31-4.57,1.77-11.47,1.36-16.69-.12-1.5.14-5.61-1.1-6.84L243.59,338c-1.08.16,2.16,17.23,2.67,18.62,1.38,3.72,5.12,5.82,8.79,6.75a38.38,38.38,0,0,0,11.95.79c1-.07,10.43-.88,10.52-1.87a3.67,3.67,0,0,1-1.28,2.11A239.87,239.87,0,0,1,256.42,382s-32.38,2.75-33.3,1.83S204.83,371.11,204.79,371.09Z"/><path class="cls-8" d="M265.1,326.11c-4.26,7.55-13.27,13.85-24.64,16.05-15.1,2.93-29.17-2.2-34.6-11.73,0-.15.15-.29.29-.44a37.22,37.22,0,0,1,6-4.18l44.36-5.28C260,321.27,263,322.59,265.1,326.11Z"/><path class="cls-7" d="M201.93,377.13c-1-9.23-3.6-38.79.26-47.59v-.6l1.32-1.49a40,40,0,0,1,6.89-4.85,55,55,0,0,1,25.83-7,95.64,95.64,0,0,1,15.59.53l1.24.15c1.44.17,2.84.34,4.24.64,3.55.76,8,2.28,11,7.31,3.05,5.2,4.35,10.82,5.62,16.26.32,1.4.65,2.79,1,4.18,2.12,8.46,2.78,15.62,2.07,22.54l-7.29-.75c.61-6,0-12.4-1.89-20-.36-1.42-.7-2.87-1-4.32-1.19-5.13-2.31-10-4.8-14.22-1.21-2.08-2.94-3.15-6.17-3.84-1.19-.26-2.36-.39-3.55-.53l-1.28-.15a89.94,89.94,0,0,0-14.41-.49,48,48,0,0,0-22.5,6,33.26,33.26,0,0,0-5.11,3.49l-.06.08c-2.13,3.27-1.53,25.31.36,43.85Z"/><path class="cls-7" d="M222.87,300a1,1,0,0,1-.47-1.88l7.88-4.2a6.16,6.16,0,0,0,3.56-6.15l-4-27.76a1,1,0,0,1,.85-1.14,1,1,0,0,1,1.13.85l4,27.77a8.14,8.14,0,0,1-4.6,8.2l-7.88,4.19A1,1,0,0,1,222.87,300Z"/><path class="cls-9" d="M267.88,1124.36a2,2,0,0,1-2-1.95c-.78-33.11-2.81-86.91-5-92.66-7.27-4.33-43.16-15.53-61.42-20.94a2,2,0,1,1,1.14-3.83c2.21.65,54.33,16.11,62.81,21.63,1.32.87,3,1.94,4.94,49.46,1,23,1.51,46,1.51,46.24a2,2,0,0,1-1.95,2Z"/><path class="cls-5" d="M145.33,724.22a2,2,0,0,1-1.18-.39,2,2,0,0,1-.82-1.52c-.29-5.95-8.3-100.94-8.38-101.9a2,2,0,1,1,4-.34c.31,3.65,7,83.58,8.23,99.58,11.2-3,59.35-15.81,78.62-19.62a2,2,0,1,1,.77,3.92c-21.62,4.28-80.11,20-80.7,20.2A2.32,2.32,0,0,1,145.33,724.22Z"/><path class="cls-5" d="M92.93,871.77A55.45,55.45,0,0,1,76,869.56c-28.69-9.4-48.32-86.51-49.14-89.79a2,2,0,1,1,3.88-1c.19.78,19.9,78.24,46.51,87,27,8.84,92.09-14.22,92.75-14.45a2,2,0,0,1,1.34,3.76C169.11,855.88,124.25,871.77,92.93,871.77Z"/><path class="cls-5" d="M249.7,826.53a2,2,0,0,1-.9-3.79l60.87-30.5a2,2,0,1,1,1.79,3.57l-60.86,30.5A2,2,0,0,1,249.7,826.53Z"/><path class="cls-5" d="M392.24,731.72l-.32,0a2,2,0,0,1-1.66-2.3l16.82-104.94a2,2,0,0,1,3.95.63L394.21,730A2,2,0,0,1,392.24,731.72Z"/><path class="cls-5" d="M421.79,861.21l-.31,0L320.66,845.54a2,2,0,1,1,.62-3.95L422.1,857.23a2,2,0,0,1-.31,4Z"/><polygon class="cls-2" points="926.4 245.86 908.23 312.24 947.42 358.13 1003.41 330.06 1001.07 260.13 926.4 245.86"/><polygon class="cls-3" points="1126.46 831.68 1126.46 1160.88 959.5 1160.88 959.5 840.03 1115.51 832.23 1126.46 831.68"/><path class="cls-3" d="M1013.77,847l-5.71,15.8-5.63,15.6-18.91,52.37-24,66.49-38.56,163.64H769.89c.09.46.13.69.13.69l-20.74.51.14-1.2,8.33-67L759,1084l3.26-26.29,3.06-24.61,2.3-18.6,10.81-87,2.94-23.69,7-56.81Z"/><path class="cls-10" d="M912.51,300.05s-82.08,50.11-118.26,67.72S734.43,411.1,726.08,426s-27.82,28.44-26.43,37.92-32,50.11-39,84-19.48,146.27-19.48,150.33,22.26,97.51,22.26,97.51,65.39,65,79.31,79.91,55.65,39.27,61.21,39.27,40.35-23,39-46-11.13-89.39-20.87-100.22c-7.62-8.48-16.94-16.12-24-27.47a66.23,66.23,0,0,1-5.26-10.45c-7-17.61,12.52-59.6,12.52-59.6s62.61-149,59.83-169.29,18.08-92.09,12.52-111S912.51,300.05,912.51,300.05Z"/><path class="cls-10" d="M1133.72,482.81s13.91,191,12.52,223.54-8.15,51.46.1,88,4.27,47.4,0,60.94-57.14,12.19-57.14,12.19L841.47,853.08,748.34,718.54,869.38,342l43.13-42s49.39,42,90.43,16.93c0,0,114.09,64.33,130.09,76.52S1133.72,482.81,1133.72,482.81Z"/><path class="cls-10" d="M1134.65,398.46s39.88,39.73,38.95,65.91,10.21,123.7,8.35,151.69,2.78,28.89,6.49,49.66,19,62.3,20.41,108.34,21.56,79.23,7.65,102.25-24.35,29.8-24.35,29.8-3.47-35.14-9.73-38.56-36.08-12.23-36.08-12.23l-33-364.76Z"/><path class="cls-6" d="M917.44,255.1c-4-9.33,26.67,51.65,58,48.23,26.86-2.93,28-52.59,28-52.59s-9.53,15.69-37.89,15.72c-31.62,0-48.08-11.36-48.08-11.36Z"/><path class="cls-11" d="M1059,176.13c-.72,13.4-9.61,23.81-19.84,23.26s-18-11.86-17.23-25.26,9.61-23.81,19.85-23.26S1059.72,162.73,1059,176.13Z"/><path class="cls-11" d="M910.73,167.93c-.72,13.4-9.61,23.82-19.84,23.26s-17.95-11.86-17.23-25.26,9.61-23.81,19.85-23.26S911.45,154.54,910.73,167.93Z"/><path class="cls-2" d="M1050.64,175.49c-9.71,57-42.79,106.06-88.38,103.6s-69.52-44.92-76.72-112.52C879.23,107.28,928.33,60.51,973.93,63S1060.66,116.64,1050.64,175.49Z"/><path class="cls-3" d="M946,85.4c.13,3.78-.46,9.85-.09,11.68,1,5,3.66,10,8,12.28,3,1.6,6.39,1.85,9.71,1.94,12.11.31,24.76-4.9,36.38-4.36,5.35.24,9.41,4.12,13.95,7.15,8.4,5.61,23.86,4.29,23.86,4.29,7.92,11.07,8.68,27.58,16.76,37.8a50.31,50.31,0,0,0,5.51-4.33c10.87-9.14,11.5-10.8,8-25.14-2.81-11.48,4.91-16.39,8.81-25.58,5.37-12.61,14.7-24.3,5.19-34.13-12.35-12.78-21.32-23-29.2-39.78-4.39-9.33-10.28-19.52-19.91-21.31-15.52-2.89-27.35,14.17-43,3.76C984.24,5.87,978.77,1,972.1.13c-6.92-.88-13.67,2.8-19.31,7.25-7,5.55-13.4,12.06-21.61,15.62C917.66,28.88,902.1,31.23,891,42.21c-7.43,7.35-11.53,17.3-15.27,27.12-3.18,8.33-8.8,17.9-9.62,26.84-.93,10.07,4.93,31.65,12.9,38,3.85,3.07,6.69,10.43,6.69,10.43S898,122.07,900,116.92s12.15-18.46,19.1-23.35,9.28-6.66,14.76-9.23C937.5,82.64,945.77,78.63,946,85.4Z"/><path class="cls-12" d="M930.87,164.14a7.19,7.19,0,1,1-6.79-7.56A7.18,7.18,0,0,1,930.87,164.14Z"/><path class="cls-12" d="M1016.56,168.77a7.19,7.19,0,1,1-6.79-7.56A7.19,7.19,0,0,1,1016.56,168.77Z"/><path class="cls-3" d="M906.43,143.47a4.82,4.82,0,0,1-1.82-9.26c23.18-9.65,40.69-.41,41.43,0a4.82,4.82,0,0,1-4.57,8.48c-.67-.36-14.45-7.37-33.16.43A5,5,0,0,1,906.43,143.47Z"/><path class="cls-3" d="M993.62,146.53a4.82,4.82,0,0,1-1.23-9.36c23.74-8.17,40.63,2.16,41.34,2.6a4.81,4.81,0,0,1-5.09,8.17c-.64-.39-14-8.26-33.12-1.66A5,5,0,0,1,993.62,146.53Z"/><path class="cls-12" d="M1053.38,154.62h0a5,5,0,0,0-1.38-2.74,3.23,3.23,0,0,0-.56-.48h0a5,5,0,0,0-1.24-.7,53,53,0,0,0-7.13-2.06c-1.82-.41-4.73-1-8.33-1.53s-7.55-1.14-11.92-1.62h0a176.94,176.94,0,0,0-19.46-1.19h0a85.21,85.21,0,0,0-9.88.54c-1,.12-1.94.25-2.8.39-11.5,1.76-12,4.59-11.93,6.16a.29.29,0,0,1-.45.27,18.88,18.88,0,0,0-16.25-.88.3.3,0,0,1-.43-.32c.29-1.66,0-4.85-14-8.1-.27-.07-.54-.13-.82-.18a95.37,95.37,0,0,0-11.7-1.68h0c-4.88-.44-10-.62-14.79-.65h0c-7.15-.06-13.74.23-18.32.56-1.76.13-3.22.25-4.3.38a58.13,58.13,0,0,0-7.73,1.36,4.62,4.62,0,0,0-2.38,1.47h0a4.8,4.8,0,0,0-1.22,3c0,.09,0,.19,0,.27a4.78,4.78,0,0,0,2.83,4.46,5.12,5.12,0,0,1,2.17,1.73c1.77,2.36,2.22,4.37,4.34,5.36a.27.27,0,0,1,.18.27c-.33,4.67-.28,12.63,1.55,18.65a21.09,21.09,0,0,0,5.33,9.21,22.8,22.8,0,0,0,9.08,5.24,48.3,48.3,0,0,0,12.14,2.16,44.39,44.39,0,0,0,12.58-1c8.11-2,14.28-7.72,17.35-16.23,2.78-7.74,3.91-15.35,3.72-19.8a1.79,1.79,0,0,0,1.8-.42h.08a3,3,0,0,0,.38-.34c1-.89,4.07-3.16,10.17-2.83s8.94,2.91,9.81,3.9c.1.15,0,.26.09.38h-.19a2.33,2.33,0,0,0,1.65.66.29.29,0,0,1,.32.32c-.58,4.46-.08,12,1.8,19.74,2.13,8.79,7.69,15.19,15.55,18a44.72,44.72,0,0,0,12.43,2.32,47.91,47.91,0,0,0,12.29-.84,26.22,26.22,0,0,0,6.32-2.15c4.36-2.19,7.41-5.63,9.56-10.67,2.47-5.78,3.34-13.68,3.52-18.36a.27.27,0,0,1,.2-.26c2.2-.75,2.67-2.71,4.68-4.87a5.29,5.29,0,0,1,2.09-1.43,4.93,4.93,0,0,0,2-1.35,5.14,5.14,0,0,0,1.27-3.08c0-.08,0-.17,0-.27A4.56,4.56,0,0,0,1053.38,154.62ZM952.23,176.17c-2.87,8-8.6,13.36-16.14,15.17a47.08,47.08,0,0,1-23.71-1.15,21,21,0,0,1-8.48-4.87,19.58,19.58,0,0,1-4.81-8.47c-2-6.54-1.75-15.51-1.31-19.62v0c.62-2.61,2.19-7.54,5.58-10.09a8.47,8.47,0,0,1,1.59-1c6.07-2.71,18.87-4,31.43-1.21s17.31,6.06,19.14,9.76a2.75,2.75,0,0,0,.2.38C956.49,158.5,955.41,167.33,952.23,176.17ZM1041.47,165c0,4.12-.73,13.07-3.42,19.36-2.1,4.89-5,8.1-9.26,10.09a24.88,24.88,0,0,1-5.39,1.74,47.13,47.13,0,0,1-23.7-1.41c-7.29-2.62-12.41-8.6-14.41-16.83-2.21-9.12-2.33-18-1.19-21.33l.24-.36c2.21-3.47,7.28-6.25,20.07-7.63,11.89-1.29,23.6.88,29.81,3.89.47.22.9.46,1.31.69,4.26,2.49,5.55,8.7,5.94,11.74Z"/><path d="M962.9,239.38a29.09,29.09,0,0,1-15.17-4.19.74.74,0,0,1-.2-1,.76.76,0,0,1,1.05-.19c.6.41,15.07,10.07,32.14-2.2a.75.75,0,1,1,.87,1.22A31.56,31.56,0,0,1,962.9,239.38Z"/><path d="M964.71,211.75a.77.77,0,0,1-.4-.12c-.15-.09-3.62-2.34-3.91-5.1-.25-2.48.79-15.06.83-15.59a.75.75,0,1,1,1.5.12c-.38,4.48-1,13.44-.83,15.32.17,1.7,2.38,3.46,3.22,4a.76.76,0,0,1,.23,1A.77.77,0,0,1,964.71,211.75Z"/><path class="cls-13" d="M785,585.11a2,2,0,0,1-.85-.19,2,2,0,0,1-1-2.66c2.18-4.6,20.39-59.16,20.7-63.36a2,2,0,1,1,4,.3c-.37,5-19.13,60.66-21.08,64.77A2,2,0,0,1,785,585.11Z"/><path class="cls-13" d="M975.64,327.5c-7.76,0-17.15-1.45-28.24-5.48-1.45-.53-21.8-10.91-25.87-13a2,2,0,0,1,1.82-3.56c9.2,4.69,24.24,12.31,25.43,12.78,35.58,13,52.62-2.57,52.78-2.73a2,2,0,0,1,2.77,2.89C1003.79,318.93,994.55,327.5,975.64,327.5Z"/><path class="cls-13" d="M959.5,999.24a2.08,2.08,0,0,1-.68-.12,2,2,0,0,1-1.2-2.56l24-66.5a2,2,0,0,1,3.77,1.36l-24,66.5A2,2,0,0,1,959.5,999.24Z"/><polygon class="cls-2" points="1658.87 373.93 1539.18 376.04 1547.64 278.23 1648.29 278.23 1658.87 373.93"/><path class="cls-7" d="M1683.14,205.42c0,63.91-38.47,115.72-85.93,115.72s-85.94-51.81-85.94-115.72c0-26.53-6.38-67.19,4.77-86.71,15.72-27.5,53.41-29,81.17-29,27.61,0,60.3-6.43,76,20.82C1684.53,130.11,1683.14,178.69,1683.14,205.42Z"/><path class="cls-7" d="M1696.23,156.76s9.17-89.7-4.93-104.53-6.24-19.07-21.46-23.3-15.43-12-40.5-12c-4.32,0-6.42-2.83-30.41-2.83-7.75,0-20.44-6.35-38.42,3.54s-29.44-3.89-42.39,12.8-17.9,7.68-29.18,33.81,3.53,38.84,6.35,67.09,17.65,50.85,17.65,50.85l179.27-5.75Z"/><path class="cls-2" d="M1683.14,186.64c0,63.91-38.47,115.72-85.93,115.72s-85.94-51.81-85.94-115.72c0-26.53-6.38-67.18,4.77-86.7,15.72-27.5,53.41-29,81.17-29,27.61,0,60.3-6.43,76,20.83C1684.53,111.34,1683.14,159.92,1683.14,186.64Z"/><path class="cls-2" d="M1528.75,193.14c1.11,13.58-5.07,25.17-13.8,25.89s-16.71-9.71-17.82-23.29,5.06-25.17,13.79-25.88S1527.63,179.56,1528.75,193.14Z"/><path class="cls-2" d="M1664.17,192.14c-2,13.48,3.46,25.44,12.13,26.71s17.29-8.63,19.26-22.11-3.46-25.44-12.13-26.71S1666.14,178.66,1664.17,192.14Z"/><path class="cls-7" d="M1571.68,128.7c-2.09-.06-3.9,0-5.83.07s-3.79.21-5.68.39c-3.78.36-7.55.89-11.3,1.62a87.07,87.07,0,0,0-11.19,3,52.07,52.07,0,0,0-10.73,5.15,4.46,4.46,0,0,0,3.63,8l.24-.07c3.18-.9,6.44-1.62,9.76-2.24s6.74-1,10.17-1.4,6.9-.57,10.37-.73c1.73-.09,3.47-.14,5.21-.2s3.52-.06,5.08-.09h.18a6.75,6.75,0,0,0,.09-13.5Z"/><path class="cls-7" d="M1661.43,138.89a52.24,52.24,0,0,0-10.72-5.15,87.64,87.64,0,0,0-11.2-3c-3.75-.73-7.52-1.26-11.3-1.62-1.89-.18-3.78-.32-5.68-.39s-3.74-.13-5.82-.07a6.75,6.75,0,0,0,.1,13.5h.17c1.55,0,3.37,0,5.08.09s3.47.11,5.2.2q5.22.24,10.38.73t10.16,1.4c3.32.62,6.58,1.34,9.76,2.24l.24.07a4.46,4.46,0,0,0,3.63-8Z"/><path class="cls-7" d="M1560.15,174.41c0,4.29-2.8,7.77-6.25,7.77s-6.26-3.48-6.26-7.77,2.8-7.77,6.26-7.77S1560.15,170.12,1560.15,174.41Z"/><path class="cls-7" d="M1641.85,174.41c0,4.29-2.8,7.77-6.25,7.77s-6.26-3.48-6.26-7.77,2.8-7.77,6.26-7.77S1641.85,170.12,1641.85,174.41Z"/><path class="cls-14" d="M1597.34,221.7h0c-.92,0-9-.48-10.85-3.06a2,2,0,0,1-.29-1.82c1.11-3.64,5.25-27.69,5.29-27.93a.5.5,0,1,1,1,.17c-.17,1-4.19,24.36-5.31,28.05a1,1,0,0,0,.15.95c1.31,1.86,7.72,2.54,10.07,2.64a.5.5,0,0,1,0,1Z"/><path class="cls-7" d="M1500.73,80.81s19.24,27.68,37.17,22.82,28.13-25.39,36.62-16.1,23.23,7.79,34.74.54,7.74,2.06,22.84,4.43,22.43-2.31,33.49,11.7,22.38,7.32,18.61-11.7-29.45-59.85-52.1-48.18S1500.73,80.81,1500.73,80.81Z"/><path class="cls-7" d="M1682.9,146.89l-1.12-.28a113.85,113.85,0,0,0-18.54-2.55,170.35,170.35,0,0,0-19.56-.08h0c-12.42.64-23.63,2.47-30.25,4.65-5.37,1.77-11.7,4.29-17.09,4.29s-11.71-2.52-17.08-4.29c-7.2-2.37-19.81-4.33-33.53-4.79h0a162,162,0,0,0-20.42.54,104.36,104.36,0,0,0-15.6,2.53h-.05c-1.52.38-3,.79-4.41,1.25l.69,12.8a5,5,0,0,1,3.62.75,4.18,4.18,0,0,1,.83.76,6,6,0,0,1,1.13,2.18c.31,1.07.74,2.91,1.26,5.21.79,3.42,1.81,7.85,3.12,12.21,1.6,5.35,3.61,10.57,6.1,13.74a19.61,19.61,0,0,0,6.61,5.26c8,4.11,19,4.23,27.08,3.88,14.32-.62,23.7-7,27.71-17.79.94-2.55,1.79-5,2.56-7.34,2.52-7.47,4.31-13.39,6.25-15.62a6,6,0,0,1,8.33,0c1.89,2.16,3.62,7.8,6,15,.84,2.51,1.76,5.2,2.79,8,4,10.8,13.39,17.17,27.72,17.79,8,.34,18.92.23,26.93-3.81a19.63,19.63,0,0,0,6.74-5.33c3.31-4.19,5.77-12,7.54-18.95.63-2.43,1.17-4.74,1.63-6.74.55-2.41,1-4.36,1.33-5.47a5.43,5.43,0,0,1,1.58-2.64,2.4,2.4,0,0,1,.41-.32,4.93,4.93,0,0,1,3.58-.73l.7-12.8C1686,147.69,1684.47,147.27,1682.9,146.89Zm-106,40.28c-3.85,7.26-10.32,11-20,12.19s-21.3-.67-27.15-4.16a8,8,0,0,1-.94-.66c-3.22-2.59-5.3-7.86-6.65-12.66-.53-1.93-1-3.77-1.28-5.34-.18-.87-.39-1.89-.58-3h0c-1.12-6.42-1.92-16.11,3.19-19.65,6-4.17,21.1-4.48,31.1-3.86,7.55.46,23.86,2.47,26.93,8.32,2.22,4.22.49,14.22-1.83,21.7A44.13,44.13,0,0,1,1576.93,187.17Zm94.82-10.63c0,.18-.07.36-.11.54-1.18,5.49-3.43,13.84-7.73,17.39a7.75,7.75,0,0,1-1,.73c-5.86,3.49-17.45,5.39-27.15,4.16s-16.16-4.93-20-12.19a47.15,47.15,0,0,1-3.11-8.18c-2.13-7.35-3.61-16.63-1.51-20.65,3.08-5.85,19.4-7.86,26.94-8.32,10-.62,25.1-.31,31.1,3.86,5.41,3.75,4.18,14.42,3,20.76C1672,175.33,1671.87,176,1671.75,176.54Z"/><path class="cls-1" d="M1782.25,376s70.89,29.35,85.35,46.46,63.66,163.25,63.66,239.93,11.58,194.41,0,216.57-63.66,132-98.38,157.4-49,23.45-49,23.45l-8.49-114.13,37.18-180.57-18.86-272.07Z"/><path class="cls-15" d="M1594.78,998.34c-3.56,16.62-8.09,81.8-12.21,153.49-.17,3-.34,6-.51,9.05h-179.7c-2-109.08,1.7-213.84,1.7-213.84l4.75.27c1.56.11,3.48.22,5.71.38l.66,0h.12c16.31,1.12,48.16,3.71,80.58,8.5,16.94,2.51,34,5.63,49.15,9.45,21.22,5.37,38.53,12.14,46,20.62a18.94,18.94,0,0,1,1.41,1.78h0c.28.41.54.8.78,1.22A12.31,12.31,0,0,1,1594.78,998.34Z"/><polygon class="cls-15" points="1783.93 965.7 1783.93 1160.88 1585.03 1160.88 1583.3 1153.17 1582.57 1151.83 1543.46 1080 1498.61 998.69 1491.21 985.28 1490.37 983.75 1480.41 965.7 1783.93 965.7"/><path class="cls-16" d="M1539.18,326.25h119.68l15.52,28,107.87,21.46s71.92,34.51,74,40.1,27.5,294.73,16.92,365.62-4.23,149.23-14.8,184.67S1420.55,981,1420.55,981s-86.72-526-59.22-550.28,165.69-61.87,170.27-70S1539.18,326.25,1539.18,326.25Z"/><path class="cls-1" d="M1873.2,784.38c-10.57,71.35-4.22,150.2-14.81,185.87-3.8,12.85-59.7,30.26-132.15,32.1-54.88,1.38-119.09-14.78-173.63-16.08l-12.23-.27c-67.62-1.41-119.83-.72-119.83-.72s-86.72-529.47-59.23-553.89c24.13-21.4,133.4-53.16,163-66.13l85.77,151.41L1685,356.54,1782.25,376s71.92,34.73,74,40.36S1883.78,713,1873.2,784.38Z"/><path class="cls-17" d="M1781.83,695.67a2,2,0,0,1-2-2L1778.56,603c-.16-11.32-5-45.67-5.1-46a2,2,0,1,1,4-.57c.2,1.42,5,34.95,5.14,46.52l1.27,90.67a2,2,0,0,1-2,2Z"/><path class="cls-18" d="M1567.72,250.86c1.9,9.79,15.27,16.71,30.69,15.61,13.41-1,24-7.68,26.52-15.93Z"/><path class="cls-17" d="M1611.29,518.81a2,2,0,0,1-1.74-1l-40.8-72a2,2,0,0,1,3.48-2l38.89,68.65,48.28-103.21a2,2,0,0,1,3.63,1.7L1613.1,517.65a2,2,0,0,1-1.73,1.15Z"/><path class="cls-5" d="M1715.21,1004.4a427.46,427.46,0,0,1-81.81-7.7c-74.63-14.64-125.34-10.06-125.85-10a2,2,0,1,1-.38-4c.51-.05,51.8-4.68,127,10.08,76.48,15,142.76,3.15,143.35,3a2,2,0,0,1,.91,3.9C1778.06,999.77,1752.75,1004.4,1715.21,1004.4Z"/><path class="cls-5" d="M1610.47,1117.43a2,2,0,0,1-2-2v-54a2,2,0,0,1,0-.42l6.34-29.9a2,2,0,0,1,3.92.83l-6.31,29.7v53.8A2,2,0,0,1,1610.47,1117.43Z"/><path class="cls-19" d="M624.89,281.91s24.77-9.16,47.17,2.29c23.84,12.19,36,24.37,41.43,126.74S718.37,564.5,719,572.42s-195,5.49-195,5.49V323.2Z"/><path class="cls-8" d="M526.13,573.41s-99.58,10.85-97.71,182.45-34.71,159.63-4.8,281.85c0,0,67.67,13.69,106.44-14l-3.93-337.52V573.41Z"/><path class="cls-16" d="M768.86,1162.08l.14-1.2H449.6c3.19-19.09,10.48-47.32,19.45-78.43.83-2.89,1.68-5.81,2.54-8.74l.05-.17c3.16-10.8,6.5-21.85,9.91-32.93l.16-.54c15.5-50.39,32.44-101,41.71-128.3a0,0,0,0,0,0,0c2.19-6.43,3.94-11.55,5.15-15.07v0l1.89-5.44H738.31c.6,1.73,1.66,6.2,3.08,12.82h0q.52,2.48,1.13,5.34c4.1,19.78,10.43,52.84,17.12,88.63,0,0,0,0,0,0,.52,2.78,1,5.54,1.57,8.35,3,16,6,32.47,8.94,48.34.34,1.86.68,3.7,1,5.54q1.11,6,2.17,11.8c.06.34.13.68.19,1,.66,3.65,1.33,7.25,2,10.78s1.23,6.74,1.84,10c6.44,35.36,11.31,62.43,12.14,67,.09.46.13.69.13.69Z"/><path class="cls-8" d="M530.66,577.4s-45.16,13.12-39.07,108.05-45.12,212.64,28.63,226.32l203.22-2.52a35,35,0,0,0,34.58-35v-299l-42.59-7.39L530.66,577.4Z"/><polygon class="cls-2" points="655 543.17 581.47 545.39 583.99 482.24 651.34 482.24 655 543.17"/><path class="cls-8" d="M575.1,533.85H669a13,13,0,0,1,12.53,10.77l5.32,27.14-129.14,5,4.8-31.55A13,13,0,0,1,575.1,533.85Z"/><path class="cls-6" d="M652.71,505.09C648.54,514,640.88,522.74,630,524c-18.73,2.1-37-18.67-46-30.17-1.8-2.3-2.67-4.22-3.67-5.52a43.7,43.7,0,0,0,8.28,4.12,93.51,93.51,0,0,0,33,5.5,54.48,54.48,0,0,0,24.67-5.5l5.69-.09Z"/><path class="cls-2" d="M684.29,408.07c1.6,50.76-28.65,92.91-67.56,94.13S545,463.26,543.4,412.49s28.65-92.9,67.56-94.12S682.7,357.31,684.29,408.07Z"/><path class="cls-2" d="M700.34,413.62c0,10.51-9.11,20.66-16.63,20.66s-13.62-8.52-13.62-19,10-19,17.51-19S700.34,403.11,700.34,413.62Z"/><path d="M658.35,380.78a5.65,5.65,0,0,1-1.71-.27c-15.12-5-25.07-.45-25.49-.26a5.48,5.48,0,0,1-4.76-9.88c.57-.28,14.11-6.68,33.66-.29a5.49,5.49,0,0,1-1.7,10.7Z"/><path d="M553.27,389.47a5.48,5.48,0,0,1-3.15-10c.51-.36,12.93-8.77,33.23-5.4a5.48,5.48,0,0,1-1.79,10.82c-15.69-2.58-24.85,3.37-25.24,3.62A5.51,5.51,0,0,1,553.27,389.47Z"/><path d="M613.56,432.73h-5.48a.92.92,0,0,1-.92-.91V411.25a.92.92,0,0,1,1.83,0V430.9h4.57a.92.92,0,0,1,0,1.83Z"/><path d="M578.83,406.79c0,4.23-2.73,7.66-6.1,7.66s-6.09-3.43-6.09-7.66,2.73-7.65,6.09-7.65S578.83,402.57,578.83,406.79Z"/><path d="M649.66,399.14c0,4.23-2.72,7.65-6.09,7.65s-6.09-3.42-6.09-7.65,2.73-7.66,6.09-7.66S649.66,394.91,649.66,399.14Z"/><path class="cls-8" d="M591.65,458.17c2.06,9.4,13.12,15.51,25.37,13.76,10.64-1.52,18.76-8.5,20.28-16.6Z"/><path class="cls-19" d="M623,279.92c19.12,38.35-27,52.13-44.52,72.88-19.11,22.69-32.31,67.48-31.28,97.3,2.81,81.37,30.32,146.59-23.34,221.07C535,625.94,518.09,591.38,504,550.33c-15.51-45.14-15.24-91.41-9.89-138.31,4-35.32,5.35-92.49,31.92-119.17C541.27,277.53,610.83,255.48,623,279.92Z"/><path class="cls-19" d="M618.6,318.67s8.55,15,27.7,24.28c27.13,13.09,32.94,56.19,32.94,56.19l11-6L668.94,313Z"/><path class="cls-2" d="M775.63,1072.81l-13.51-4.42a5.07,5.07,0,0,1,.18-5.45c1.86-3.06,6.29-3,8.45-2.74a40.29,40.29,0,0,1,6.62,1.9s5.3-6,10.71-8.79c0,0-1.41-7.43,1.1-12.27a19.54,19.54,0,0,1-4.95-14s-.57-1-1.41-2.55c-.71.32-2.08.94-3,1.45-1.24.71-1.34,4.73-.85,7.14a53.62,53.62,0,0,1,.26,14.47c-.77,4.38-4.11,7.35-9.1,7.18s-5.16-5.06-6.13-9.4-.55-8.41-.2-16.22-1.68-11.72-3.18-19.1a50.85,50.85,0,0,1-.94-13.31,81,81,0,0,1,3.76-15.51c-.72-4.45-.66-8.64.75-11.75,2.54-5.59-5.71-46.4-5.71-46.4l41.71,4.72-3.88,46.16s13.06,27.33,17.38,39.62,7.46,18.76,6.86,24.86c0,0-6.34,24.57-12.85,30-6.67,5.56-21.51,15.32-25.84,15.65-4.68.36-17.09-1.31-17.09-1.31a12.81,12.81,0,0,1-4.83-1.25s-2,0-.46-4.15S765.35,1074.18,775.63,1072.81Z"/><path class="cls-8" d="M735,571s58.37-4.17,78.93,77.69,18.4,112.56,17.32,164.7,59.72,155.09,4.53,221.44c0,0-46.74-23.26-90-32.11,0,0-7.57-8.26-3.24-94.3S735,571,735,571Z"/><path class="cls-6" d="M481.71,1040.08s-17.34,1.06-20.71,1c0,0,.25,24.18,10.36,32.41l.24.19Z"/><path class="cls-20" d="M510.14,866.83a2,2,0,0,1-2-1.8,141.62,141.62,0,0,1,2.35-40.11c2.24-10.29.71-16.22-1.61-25.21A166.24,166.24,0,0,1,503.24,765c-2.25-36.2,11.2-56.62,11.77-57.47a2,2,0,0,1,3.32,2.23c-.21.31-13.25,20.34-11.1,55a161.38,161.38,0,0,0,5.55,34c2.37,9.2,4.08,15.84,1.64,27.06-4.23,19.45-2.3,38.66-2.28,38.85a2,2,0,0,1-1.79,2.19Z"/><path class="cls-20" d="M736.68,897.63h-.21a2,2,0,0,1-1.78-2.2c1.63-15.78,2.87-30,1.41-44-.76-7.36-1.67-14.75-2.55-21.88-1.95-15.87-4-32.27-4.4-48.92a2,2,0,0,1,4-.1c.42,16.45,2.34,32,4.37,48.53.88,7.16,1.8,14.56,2.56,22,1.49,14.41.24,28.84-1.42,44.85A2,2,0,0,1,736.68,897.63Z"/><path class="cls-21" d="M640.86,913.77H520.22a2,2,0,0,1,0-4H640.86a2,2,0,1,1,0,4Z"/><rect class="cls-2" x="2189.63" y="270.88" width="99.23" height="89.48"/><path class="cls-6" d="M2288.86,278.18V306a47.39,47.39,0,0,1-29.69,14.3c-26.83,2.41-53.06-17.51-69.54-32.93v-9.23l.24.07c12.1,3.6,30.58,7.36,55.22,7.33,17.82,0,31.45-3.39,41.29-7.33Z"/><path class="cls-11" d="M2171.53,194.53c1.23,14.95-4.61,27.64-13.06,28.33S2142.19,212,2141,197.05s4.61-27.63,13.05-28.33S2170.29,179.58,2171.53,194.53Z"/><path class="cls-11" d="M2334.7,197.61c-1.77,14.89-10,26.16-18.44,25.15s-13.79-13.89-12-28.78,10-26.16,18.45-25.16S2336.48,182.71,2334.7,197.61Z"/><ellipse class="cls-2" cx="2238.68" cy="194.69" rx="80.53" ry="107.37"/><path class="cls-1" d="M2218.87,37c-2.4,0-24-15.82-51.77,10.55S2145.69,68.79,2138,75.82s-5.75,14.44-16,21-12.15,9.71-7.67,17.38,7.6,15.34-2.28,20.45-13.7,6.39-8.59,10.87.8,10.38,12.31,12.3,17.73,3.14,19.65,8,6.23,4.9,12,6.82,6.71,2.87,8.63,5.75,4,1.92,4,1.92,11.62-28.36,12.21-40.54,4.42.27,13.53-12.19,10.95-11.41,18.69-21.21,3.16-3.65,9.49-10.63S2218.87,37,2218.87,37Z"/><path class="cls-22" d="M2239.32,226.81c-.92,0-1.59,0-1.84,0a1,1,0,0,1-.91-1,1,1,0,0,1,1-.92c3.8.18,10.4-.22,11.92-2s.76-11.83-.21-18.42a1,1,0,0,1,.81-1.09,1,1,0,0,1,1.09.81c.41,2.79,2.33,16.88-.21,19.93C2248.92,226.48,2242.56,226.81,2239.32,226.81Z"/><path class="cls-18" d="M2212.64,248.36h53.21s-16.94,27.88-43.08,9.82C2221.87,257.56,2212.64,248.36,2212.64,248.36Z"/><path class="cls-22" d="M2219.64,159.51c-3.12.33-6.4.58-9.57.83s-6.35.53-9.49.87-6.24.73-9.31,1.16-6,1.07-9,1.68l-.19,0a3.89,3.89,0,0,1-2.62-7.23,42.46,42.46,0,0,1,10-3.72,71.23,71.23,0,0,1,10.28-1.59,83.67,83.67,0,0,1,10.26-.1,60.77,60.77,0,0,1,10.2,1.32,3.41,3.41,0,0,1-.38,6.72Z"/><path class="cls-22" d="M2257.75,152.77a60.77,60.77,0,0,1,10.2-1.32,83.67,83.67,0,0,1,10.26.1,71.23,71.23,0,0,1,10.28,1.59,42.7,42.7,0,0,1,10,3.72,3.89,3.89,0,0,1-2.63,7.23l-.19,0c-3-.61-6-1.18-9-1.68s-6.17-.84-9.3-1.16-6.31-.59-9.5-.87-6.44-.5-9.57-.83l-.14,0a3.41,3.41,0,0,1-.39-6.72Z"/><path class="cls-22" d="M2204.81,186c0,4.81-3,8.71-6.63,8.71s-6.63-3.9-6.63-8.71,3-8.71,6.63-8.71S2204.81,181.17,2204.81,186Z"/><path class="cls-22" d="M2284.18,186c0,4.81-3,8.71-6.63,8.71s-6.63-3.9-6.63-8.71,3-8.71,6.63-8.71S2284.18,181.17,2284.18,186Z"/><path class="cls-1" d="M2205.23,73.92s1.92,37.64,37.39,46.92c0,0,10.07-1,17.74,13.41s-.48,12.89,8.62,17.54,8.15-.52,22.53,5.67,9.59,10.44,20.13,16.56,31.16,1.49,34-3.67,7.66-6.7,9.1-11.86,0-27.85,0-27.85-17.25-12.37-23-26.81,1.92-20.63-10.54-29.91-31.63-17.54-35.47-21.66-8.63-24.76-24.92-23.73-36.43-.59-43.62,0-11,6.74-12,13.44S2205.23,73.92,2205.23,73.92Z"/><path class="cls-16" d="M2447.37,1160.88H2263.52c-3.72-48.11-7-97.31-7.45-126.62-.09-5.9,0-14.83,0-14.83l-8.69,141.45H2038.52c.16-39.75,2.27-88.22,8-145.64.2-2,.39-3.94.6-5.92q2.91-28.61,7.09-60.13,1.5-11.27,3.17-22.93,1.77-12.37,3.78-25.19,1.46-9.47,3.06-19.17.74-4.56,1.52-9.18h0c.91-5.39,1.83-10.82,2.81-16.33q2.79-16,5.92-32.61h340.12s1.46,5.89,3.77,16.49c.82,3.65,1.7,7.85,2.68,12.57a.24.24,0,0,1,0,.08c.17.82.34,1.67.52,2.53,2.06,10,4.42,22.22,6.88,36.09,1.92,10.78,3.89,22.59,5.82,35.22,3.18,20.86,6.26,44,8.77,68.53q.61,6,1.19,12.15C2448.71,1055.9,2450.84,1109.15,2447.37,1160.88Z"/><path class="cls-15" d="M2380.33,364.3s74.44,23.31,89.63,36.9,66.85,129.66,66.85,190.57,12.16,154.41,0,172-66.85,104.87-103.31,125-51.4,18.64-51.4,18.64l-8.92-90.66,39.05-143.41-19.81-216.1Z"/><path class="cls-15" d="M2147.71,346.57c8.16-3.05,30-9.26,45.35-3.56s52.16,11.4,69.73,3.56,40.26-8.88,56.13-5.51,60.66,12.64,86.74,34,41.94,424.79,17.85,459c-8.41,11.95-50.33,52.67-116.72,40.45-53-9.76-113.18,32.92-169.76,3.86-44.21-22.7-79.47-22.93-79.47-22.93s-53.29-356.36-23.81-437.61C2033.75,417.85,2037.15,387.91,2147.71,346.57Z"/><path class="cls-5" d="M2256.07,1021.43H2256a2,2,0,0,1-1.94-2.07c.35-10.3,5.93-17.65,14.38-28.77a272.26,272.26,0,0,0,22.45-33.44,2,2,0,0,1,3.49,2,277,277,0,0,1-22.75,33.9c-8.28,10.89-13.27,17.46-13.57,26.49A2,2,0,0,1,2256.07,1021.43Z"/><path class="cls-15" d="M2149.11,352.06s-60.75,37.19-87,52.62-43.34,38-49.38,51-20.16,24.92-19.15,33.23-23.19,43.91-28.23,73.58-14.11,128.17-14.11,131.73,16.13,85.44,16.13,85.44,47.37,57,57.45,70,40.32,34.42,44.35,34.42,29.23-20.18,28.22-40.35-8.06-78.33-15.12-87.82c-5.52-7.43-12.27-14.12-17.36-24.07a62.88,62.88,0,0,1-3.81-9.16c-5-15.43,9.08-52.22,9.08-52.22s45.35-130.54,43.34-148.34,13.1-80.7,9.07-97.31S2149.11,352.06,2149.11,352.06Z"/><path class="cls-5" d="M2170.92,889.79c-35.43,0-51.48-19.26-52.17-20.1a2,2,0,0,1,3.11-2.53c.24.3,16.69,19.81,52.39,18.57,30.92-1.08,46.5-4.82,59-7.83,2.58-.62,5-1.2,7.49-1.75,22.59-5,53.91-10.84,65.07-4.65a2,2,0,0,1-2,3.5c-11.11-6.18-49.61,2.28-62.26,5.06-2.43.53-4.85,1.12-7.42,1.73-12.7,3.05-28.5,6.85-59.82,7.94C2173.22,889.77,2172.06,889.79,2170.92,889.79Z"/><path class="cls-5" d="M2070.21,712.88a2,2,0,0,1-1.95-1.59c-4.56-21.55-2.24-40.92,6.9-57.58,8.41-15.32,13.83-30.84,19.58-47.26,3.36-9.63,6.84-19.58,11-29.4a2,2,0,0,1,3.69,1.54c-4.06,9.71-7.52,19.61-10.87,29.18-5.54,15.85-11.27,32.25-19.84,47.86-8.66,15.8-10.85,34.24-6.5,54.83a2,2,0,0,1-2,2.42Z"/><path class="cls-5" d="M2231.26,352.74c-15.2,0-41.09-8.5-42.26-8.88a2,2,0,1,1,1.26-3.8c.3.1,30.25,9.93,43.83,8.55a108.52,108.52,0,0,1,16.2-.47c2.2.08,4.09.15,4.62-.19a2,2,0,0,1,2.16,3.37c-1.58,1-3.59.95-6.92.82a104.69,104.69,0,0,0-15.66.45C2233.48,352.69,2232.4,352.74,2231.26,352.74Z"/><path class="cls-23" d="M2747.5,528.5c-17.11,22-44,39.9-72.5,40.71-2.71.07-7.35.39-13.53.88-45.35,3.59-173.56,17-230.2,23.06-16.91,1.79-27.44,2.93-27.49,2.93-6.79.74-11.92-24-12.17-27.63-.85-12.61,3.65-24.85,9.75-35.68,6.21-11,19.8-23.82,14.79-37.67-4.43-12.29-21.41-14.86-28.79-25.63-5.3-7.77-4.44-18.48-.26-26.88,6.15-12.44,17.66-22.87,30.12-28.61,10.73-4.94,20-10.71,24.78-20.7a34.17,34.17,0,0,0,2.54-7.33c3.35-15.05.29-34,10.56-47.23,8.55-11,29.32-22.6,48.86-44.59q4.62-5.2,9.43-9.78c.71-.68,1.45-1.37,2.18-2,16.49-15.13,34.08-24.49,48.87-25.47,18.32-1.22,48.87,3.06,55.58,20.77s15.28,15.28,26.27,22,36,12.22,41.74,50.51c3.22,21.58,0,31.76-.13,39-.05,4.18.93,7.38,4.79,11.24a44.29,44.29,0,0,0,5.11,4.3c18.74,13.86,38.29,25.24,49.7,43.18S2764.6,506.51,2747.5,528.5Z"/><path class="cls-3" d="M2747.49,528.49c-17.1,22-44,39.91-72.49,40.71-2.72.07-7.36.39-13.54.88,1.59-9,3-19.74,2.17-26.92-1.56-14.67-2.49-8.17-5.74-17.94s6.53-25.24,5.7-36.65-13.83-18.72-19.55-39.09,6.71-33.13,6.71-33.13l37.15-27.2c-.05,4.18.93,7.38,4.79,11.24a45.11,45.11,0,0,0,5.1,4.3c18.74,13.85,38.29,25.24,49.7,43.17S2764.6,506.5,2747.49,528.49Z"/><path class="cls-2" d="M2609.53,558.1a119.74,119.74,0,0,1-24.26,7.72h-42.94a109,109,0,0,1-19.46-6l.51-23.19,3.49-54.92.28-4.34.63-9.92,71.77,1.93,1.19,9.35,2.32,18.33,5.08,40Z"/><path class="cls-2" d="M2652.12,412.67c-2.44,9.27-10.85,15.09-18.8,13s-12.41-11.29-10-20.56,10.85-15.09,18.79-13S2654.55,403.4,2652.12,412.67Z"/><path class="cls-18" d="M2741.68,580.45l-14.42,337.08-106.44,3.35-204.49,6.45L2400,574.92l123.34-38.25s29.37,22,84.76.39c1.33-.52,7.17.59,15.75,2.71,13.34,3.31,33.28,9.08,53,15,9,6.53,18,13,35.84,14.89C2721.49,570.6,2731.76,574.69,2741.68,580.45Z"/><path class="cls-3" d="M2499.88,435.55s6.53,33.13-5.3,54.32-16.69,22.4-11.8,41.73,5.94,15,4.89,26.24c-.54,6.06-29.28,22.46-56.4,35.31-16.91,1.79-27.44,2.93-27.49,2.93-6.79.74-11.92-24-12.17-27.63-.85-12.61,3.65-24.85,9.75-35.68,6.21-11,19.8-23.82,14.79-37.67-4.43-12.29-21.41-14.86-28.79-25.63-5.3-7.77-4.44-18.48-.26-26.88,6.15-12.44,17.66-22.87,30.12-28.61,10.73-4.94,20-10.71,24.78-20.7a34.17,34.17,0,0,0,2.54-7.33c3.35-15.05.29-34,10.56-47.23,8.55-11,29.32-22.6,48.86-44.59q4.62-5.2,9.43-9.78c.71-.68,1.45-1.37,2.18-2l7,77.72Z"/><path class="cls-2" d="M2632.64,398.17c0,52.63-30.08,95.29-67.19,95.29s-70.86-40.22-70.86-92.85,33.75-97.73,70.86-97.73S2632.64,345.54,2632.64,398.17Z"/><path d="M2538.08,372.74a49.37,49.37,0,0,0-6.28-1.45c-2.21-.37-4.45-.65-6.69-.8a67.27,67.27,0,0,0-13.46.4h-.06a4.64,4.64,0,0,1-1.36-9.18,77.58,77.58,0,0,1,23.07-.38,60.14,60.14,0,0,1,7.85,1.53,5.17,5.17,0,0,1-2.71,10l-.17-.05Z"/><path d="M2580.1,363.39a57.5,57.5,0,0,1,7.88-1.34,73.81,73.81,0,0,1,7.71-.45A76.87,76.87,0,0,1,2611,363a4.63,4.63,0,0,1-1.58,9.13h-.07a67.87,67.87,0,0,0-13.44-.73c-2.25.09-4.5.32-6.71.63a51,51,0,0,0-6.32,1.29l-.17.05a5.17,5.17,0,0,1-2.85-9.93Z"/><path d="M2534.09,387.91c0,4-2.83,7.21-6.31,7.21s-6.32-3.23-6.32-7.21,2.83-7.2,6.32-7.2S2534.09,383.94,2534.09,387.91Z"/><path d="M2599.56,389.14c0,4-2.83,7.2-6.32,7.2s-6.31-3.23-6.31-7.2,2.82-7.21,6.31-7.21S2599.56,385.16,2599.56,389.14Z"/><path class="cls-2" d="M2510.93,400.61c5.13,8.1,3.32,18.43-4,23.08s-17.47,1.86-22.59-6.24-3.32-18.43,4-23.08S2505.81,392.51,2510.93,400.61Z"/><path class="cls-3" d="M2692.69,400.39c-10.73,9.38-23.61,20.5-25,22.62-2.45,3.67-24.12,4.12-20.55-1.53,1.17-1.86,5.89-29.62-10.61-27.18s-17.71-7.33-22-14.05-.64-24.43,0-30.76-8.55-15.66-20.16-11.39-35.43,14.67-42.15,10.39-1.22-17.72-20.76-14.66-20.16-22.6-20.16-22.6l2.1-26.88c17.13-16.32,35.6-26.46,51-27.49,18.33-1.22,48.87,3.06,55.59,20.77s15.27,15.27,26.27,22,36,12.22,41.73,50.51C2693.1,384.09,2682.11,389.83,2692.69,400.39Z"/><path class="cls-1" d="M2741,1160.88H2419.79c1.34-49.34,12.78-106.77,24.41-153.45q1.74-7,3.49-13.66c8.09-31,15.79-55.87,19.71-68.06,1.7-5.27,2.69-8.18,2.69-8.18l43.33-2.32,12.35-.67,96.75-5.19,61.37-3.29s.25,4.76,1.14,12.79c1.87,16.77,6.52,47.82,17.57,79.73a250,250,0,0,0,14.28,33.64C2732.79,1062.92,2738.81,1117.44,2741,1160.88Z"/><path class="cls-10" d="M2510.12,536.06a1.63,1.63,0,0,1,1.91,1.76c-1.55,15.95-11.34,115.91-13.59,120.41-2.44,4.88-4.89,25.25-5.7,41.54s-.81,22,0,44.79a574.4,574.4,0,0,0,5.7,62.72c2.45,15.47,12.63,70.24,13.24,85.52s1.22,22.08,4.27,35.47,7.94,26.22,6.72,35.38S2395,1010.08,2395,1010.08s-12.82-8.55-14.66-22-10.38-20.16-12.21-34.21-6.52-96.49,3.25-136.21-26.87-69-25.24-75.55S2347.36,621,2359,610s40.76-37.87,63.53-40.32,31.16-12.21,43.37-20.15C2476.25,542.75,2502.49,537.49,2510.12,536.06Z"/><path class="cls-13" d="M2475.65,746.8a2,2,0,0,1-1.65-.86c-3.49-5-2.09-9-.61-13.19,1.66-4.68,3.53-10,.36-19.5-2.86-8.57-7.32-15.32-11.63-21.85-5-7.52-9.66-14.63-10.85-23.29-1-7.52,1.82-18,4.57-28.2,2.94-10.89,6-22.16,3.35-27.1s-8.81-9.84-14.75-14.51-11.51-9.06-13.51-13.61c-1.25-2.83-1.06-8.21,15-22.19,8.38-7.3,17.33-13.65,17.42-13.71a2,2,0,0,1,2.31,3.26c-16.47,11.65-32.87,26.9-31,31,1.6,3.63,6.81,7.73,12.33,12.07,6.26,4.93,12.73,10,15.8,15.78,3.38,6.34.27,17.84-3,30-2.65,9.78-5.38,19.9-4.46,26.62,1.06,7.76,5.3,14.18,10.22,21.63,4.25,6.43,9.06,13.72,12.08,22.78,3.61,10.83,1.31,17.34-.37,22.1-1.38,3.88-2.2,6.22.12,9.58a2,2,0,0,1-.51,2.78A2,2,0,0,1,2475.65,746.8Z"/><path class="cls-10" d="M2359,611.21c-3.26,6.9-44.21,48.92-48.4,79.53s-18.84,42.1-17.62,80.36-3.67,51,13.44,70.15,17.1,35.71,29.32,60-1.12,35.71,23.26,51,34.16-66.32,52.48-81.63,7.33-13.09,0-38.43-37.87-49.57-39.09-58.5,7.74-20.3,9.77-27.34c1.65-5.68,17.11-138.39,19.55-155s-12.89-6.12-12.89-6.12Z"/><path class="cls-13" d="M2392.23,911.91a2,2,0,0,1-.75-.15,2,2,0,0,1-1.1-2.61c9-22.1,11-24.58,14.3-28.7a67.52,67.52,0,0,0,4.78-6.62,61.68,61.68,0,0,1,7-9.23c1.81-2,2.29-2.53,3-6.5,1.05-5.86-4-10.65-5.29-11.72-1.14-.47-1.55-2.28-4.43-17.73-2.34-12.61-12.41-34.46-24.48-41-5.89-3.17-12.66-7.77-12.75-15.2-.05-4,1.38-7.71,2.76-11.26l.35-.9c7-18.25,10.13-38,12.21-54.81.86-7,1.06-14.13,1.26-21s.39-13.94,1.24-21a2,2,0,1,1,4,.48c-.82,6.85-1,13.84-1.21,20.6-.2,7-.41,14.22-1.29,21.41-2.11,17.1-5.24,37.1-12.45,55.76l-.35.91c-1.3,3.35-2.53,6.51-2.49,9.76.06,5.31,5.42,8.91,10.65,11.73,13.33,7.18,24,30,26.52,43.74,2.07,11.15,2.86,14.48,3.13,15.46,1.8,1.55,8,7.55,6.59,15.44-.89,4.9-1.81,6.07-4,8.48a58,58,0,0,0-6.58,8.7,70.8,70.8,0,0,1-5,7c-3.07,3.84-4.92,6.15-13.72,27.72A2,2,0,0,1,2392.23,911.91Zm24.68-68.18h0Z"/><path class="cls-17" d="M2525.77,916.54a2,2,0,0,1-.11-4l115.09-6.24a2,2,0,1,1,.21,4l-115.08,6.24Z"/><path class="cls-10" d="M2763.83,817.67c9.77,39.71,5.1,122.16,3.26,136.21s-10.39,20.77-12.22,34.21c-1.48,10.92-10.22,18.6-13.45,21.11a2.86,2.86,0,0,1-2.57.47c-13.67-4.06-125.16-37.41-126.3-46-1.23-9.16,3.66-22,6.71-35.38.61-2.69,1.13-5.11,1.56-7.39,1.74-9.07,2.23-15.88,2.72-28.09.61-15.27,10.79-70,13.24-85.52a576.49,576.49,0,0,0,5.7-62.7c.81-22.82.81-28.52,0-44.8s-3.26-36.65-5.7-41.54c-2.19-4.37-11-98-12.9-117.88a2.26,2.26,0,0,1,0-.58,2.85,2.85,0,0,1,3.33-2.51c9.06,1.51,32.39,5.9,42.13,12.24,2.63,1.7,5.08,3.5,7.54,5.27,9,6.53,18,13,35.84,14.89,8.76.94,19,5,28.95,10.79,14.88,8.64,29,21.06,36,32.23,13.12,20.88,8.14,50.9,9.17,74.27.76,17.32-2,38.27,2.25,55.17C2790.71,748.64,2754.06,778,2763.83,817.67Z"/><path class="cls-13" d="M2652.89,748.31a2,2,0,0,1-1.64-3.14c2.32-3.35,1.49-5.69.12-9.57-1.68-4.76-4-11.28-.38-22.1,3-9.07,7.84-16.36,12.09-22.79,4.91-7.44,9.16-13.87,10.22-21.63.91-6.72-1.82-16.83-4.46-26.62-3.29-12.18-6.4-23.68-3-30,3.07-5.75,9.54-10.85,15.8-15.77,5.51-4.35,10.72-8.45,12.33-12.08,1.91-4.33-12.86-20.31-27.65-32.64a2,2,0,0,1,2.56-3.07c7.76,6.47,32.75,28.26,28.75,37.33-2,4.54-7.6,8.94-13.52,13.6s-12.07,9.5-14.74,14.52.41,16.2,3.35,27.09c2.74,10.17,5.59,20.68,4.56,28.2-1.18,8.66-5.88,15.77-10.85,23.3-4.31,6.52-8.77,13.27-11.62,21.84-3.18,9.53-1.3,14.83.35,19.5,1.48,4.19,2.88,8.15-.61,13.19A2,2,0,0,1,2652.89,748.31Z"/><path class="cls-10" d="M2775.77,611.21c3.26,6.9,44.21,48.92,48.4,79.53s18.85,42.1,17.62,80.36,3.67,51-13.43,70.15-17.11,35.71-29.33,60,1.12,35.71-23.26,51-34.16-66.32-52.48-81.63-7.33-13.09,0-38.43,37.87-49.57,39.09-58.5-7.73-20.3-9.77-27.34c-1.64-5.68-17.1-138.39-19.55-155s12.89-6.12,12.89-6.12Z"/><path class="cls-13" d="M2713.26,934.94a2,2,0,0,1-1.78-1.09A60.23,60.23,0,0,0,2699.39,919c-1.38-1.26-2.74-2.41-4.06-3.53-7.09-6-13.2-11.14-11-25.59a32.45,32.45,0,0,1,6.51-15.77c2.78-4,5.64-8.11,7.93-18.17,4.62-20.26,34.49-98.75,35.76-102.08a2,2,0,0,1,3.74,1.42c-.31.82-31,81.56-35.6,101.55-2.46,10.81-5.69,15.46-8.54,19.57-2.53,3.65-4.72,6.8-5.84,14.08-1.89,12.24,2.68,16.09,9.6,21.93,1.35,1.15,2.75,2.33,4.19,3.65,9,8.23,12.79,15.66,12.94,16a2,2,0,0,1-.87,2.69A2,2,0,0,1,2713.26,934.94Z"/><path class="cls-17" d="M2571.31,1153.82a2,2,0,0,1-2-2V1033.24l-25.88-21.63a2,2,0,0,1,2.57-3.07l26.59,22.23a2,2,0,0,1,.72,1.54v119.51A2,2,0,0,1,2571.31,1153.82Z"/><path class="cls-6" d="M2603.06,497.1c-5.22,7.12-13.08,13.21-23.43,14.24-21.13,2.08-41.74-17.52-52.76-29.59l.28-4.34c1.1.46,2.35.93,3.78,1.39,8.5,2.79,21.49,5.69,38.8,5.67,12.52,0,22.1-2.62,29-5.67l2,0Z"/><path d="M2562.7,417.83h-5.48a.91.91,0,0,1-.91-.91V396.35a.91.91,0,0,1,1.82,0V416h4.57a.91.91,0,1,1,0,1.82Z"/><path class="cls-7" d="M2559.15,452.37a37,37,0,0,1-12.75-2.31,1,1,0,0,1-.6-1.28,1,1,0,0,1,1.29-.6c12.58,4.62,26,1.77,32.61-6.93a1,1,0,0,1,1.59,1.21C2576.4,448.88,2568.16,452.37,2559.15,452.37Z"/><path d="M2494.59,421a1.47,1.47,0,1,1-1.46-1.46A1.46,1.46,0,0,1,2494.59,421Z"/><path d="M2636.16,421.46a1.46,1.46,0,1,1-1.46-1.46A1.46,1.46,0,0,1,2636.16,421.46Z"/><circle cx="2487.7" cy="416.74" r="1.1"/><path class="cls-2" d="M2049.71,513.56l-34.57,41.14-11,13.07-97.59,116.15L1912.32,522A25.25,25.25,0,0,0,1936,496.76V442.37l69.29,2.53,2.82,18.72c.15,1.06.32,2.12.47,3.17,0,.16.05.31.07.46.54,3.58.86,7.81,1.27,12.25.08.9.15,1.81.25,2.73,1.6,16,5,33.47,23.94,32.29Z"/><path class="cls-6" d="M2010,479.5c-4.66,8.13-12.28,15.58-22.69,16.72-19.89,2.16-39.28-19.25-48.85-31.1a32,32,0,0,1-2.38-3.42v-1.38a43.71,43.71,0,0,0,7.28,3.36c7.67,2.79,19.4,5.69,35,5.67a59.38,59.38,0,0,0,26.19-5.67l3.63-.06c.15,1.06.32,2.12.47,3.17,0,.16.05.31.07.46C2009.22,470.83,2009.54,475.06,2010,479.5Z"/><path d="M2041,428.61s82.72-9,49.06-112.49S1952.86,237,1952.86,237s-76.59,31.21-85.85,96.82,46.28,83.61,46.28,83.61Z"/><path d="M2004.91,242.32s23.75-39.89,14.6-49.9-20.66-21.63-43.79-17.48-28,27.08-25.81,34.74A164,164,0,0,0,1965.35,245C1972.88,257.32,2004.91,242.32,2004.91,242.32Z"/><path class="cls-2" d="M1911.3,382.38c-4.73,49.67,22.29,92.87,60.36,96.5s72.77-33.69,77.51-83.37-22.29-92.88-60.37-96.5S1916,332.7,1911.3,382.38Z"/><path d="M1968.85,286.66s28.62,57.66,84.16,88.8,5.47-79.12,5.47-79.12Z"/><path class="cls-2" d="M1890.25,376.86c0,11.34,9.83,22.29,18,22.29s14.69-9.2,14.69-20.53-10.78-20.54-18.89-20.54S1890.25,365.52,1890.25,376.86Z"/><path class="cls-2" d="M2063.14,382.61c0,11.34-9.84,22.29-17.95,22.29s-14.69-9.19-14.69-20.53,10.77-20.53,18.89-20.53S2063.14,371.27,2063.14,382.61Z"/><path d="M1945.48,374.71c0,4.39,2.72,7.94,6.08,7.94s6.06-3.55,6.06-7.94-2.71-7.95-6.06-7.95S1945.48,370.32,1945.48,374.71Z"/><ellipse cx="2013.07" cy="378.62" rx="6.07" ry="7.94"/><path d="M1961.69,356.32a5.47,5.47,0,0,1-1.51,0c-13.58-2-21.9,2.15-22.25,2.33-2.27,1.17-5.21.67-6.56-1.12s-.63-4.19,1.63-5.38c.47-.25,11.77-6.11,29.32-3.52,2.59.38,4.2,2.41,3.61,4.54A4.83,4.83,0,0,1,1961.69,356.32Z"/><path d="M2030.86,360.53a5.36,5.36,0,0,1-1.43-.48c-12.32-6.05-21.51-4.63-21.9-4.57-2.52.42-5.17-1-5.91-3.06s.68-4.18,3.19-4.63c.53-.1,13.07-2.23,29,5.59,2.35,1.15,3.27,3.58,2,5.42A4.82,4.82,0,0,1,2030.86,360.53Z"/><path class="cls-22" d="M1982.26,406.43a4.88,4.88,0,0,1-2.9-.94c-2.57-1.88-2.7-3.2-2.4-6.24l1.25-12.77a.86.86,0,0,1,1.72.16l-1.24,12.78c-.27,2.72-.17,3.31,1.69,4.67a3.21,3.21,0,0,0,2.56.54l3.24-.68a.87.87,0,1,1,.36,1.7l-3.24.67A4.66,4.66,0,0,1,1982.26,406.43Z"/><path class="cls-18" d="M1955.06,428.64c1.52,9.8,12.51,16.78,25.22,15.76,11-.9,19.84-7.56,21.91-15.79Z"/><path class="cls-22" d="M1907.31,392.07a2.12,2.12,0,1,1-2.9.78A2.13,2.13,0,0,1,1907.31,392.07Z"/><path class="cls-22" d="M2050.35,396.19a2.12,2.12,0,1,1-2.89.78A2.11,2.11,0,0,1,2050.35,396.19Z"/><polygon class="cls-2" points="2099.74 992.21 2041.9 1017.21 2008.54 982.12 2081.26 929.64 2112.22 987.3 2099.74 992.21"/><path class="cls-2" d="M1772.15,1131.24l13.06-4.28a4.9,4.9,0,0,0-.18-5.27c-1.8-3-6.08-2.86-8.16-2.64a37.76,37.76,0,0,0-6.41,1.83s-5.11-5.85-10.35-8.5c0,0,1.37-7.18-1.06-11.86a18.84,18.84,0,0,0,4.78-13.55s.55-1,1.37-2.47c.68.31,2,.92,2.86,1.41,1.19.68,1.29,4.56.82,6.9a52.11,52.11,0,0,0-.25,14c.74,4.23,4,7.11,8.8,7s5-4.89,5.92-9.09.53-8.13.2-15.68,1.62-11.33,3.07-18.46a49.24,49.24,0,0,0,.91-12.87,79.1,79.1,0,0,0-3.64-15c.7-4.31.65-8.35-.72-11.36-2.46-5.41,5.52-44.85,5.52-44.85L1748.36,991l3.76,44.62s-12.62,26.42-16.8,38.3-7.22,18.14-6.63,24c0,0,6.12,23.74,12.42,29,6.45,5.38,20.79,14.81,25,15.13,4.52.35,16.52-1.26,16.52-1.26a12.49,12.49,0,0,0,4.67-1.21s1.93,0,.44-4S1782.09,1132.56,1772.15,1131.24Z"/><path class="cls-24" d="M1842.13,551s-34.88,19.06-39.93,46-21.88,64.9-31.14,80.73-21,48.27-22.72,59.35-25.25,170.16-18.52,208.15,1.52,67.53,14.51,72.81,54.51,0,54.51,0l60.6-369.33Z"/><path class="cls-25" d="M2094.69,1160.88H1760c.76-6.46,1.59-13.14,2.49-20q1.56-11.85,3.43-24.42,1.11-7.38,2.32-15h0c3.63-22.63,8-46.64,13.45-71.54h0c.34-1.61.7-3.22,1.06-4.85,0,0,0,0,0,0,.37-1.74.76-3.47,1.15-5.21l.09-.41c1.72-7.58,3.52-15.25,5.42-23q1.66-6.83,3.45-13.7c4.81-18.61,10.17-37.49,16.17-56.47h0q1.59-5,3.24-10.09a19.3,19.3,0,0,1,3.63-2.4c5.87-3.22,19.9-8.86,49.36-11.7h.13a460.93,460.93,0,0,1,55-1.56c25,.6,55.5,2.75,92.69,7.27,0,0,2.06,7.13,5.56,18.51,3.19,10.33,7.58,24.17,12.71,39.36,4.73,14,10.09,29.09,15.74,43.65l1.89,4.84c7.36,18.6,15.14,36,22.56,48.51C2082.37,1081,2089.94,1120.24,2094.69,1160.88Z"/><path class="cls-24" d="M1812.3,809.33c.84-8.42,5.46-64.81,5.46-64.81s3-80,.17-107.73c-1.79-17.44,10.4-51.81,19.69-75,1.62-4,3.13-7.64,4.51-10.83l18.11-7.48,62-25.65s-12.36,93.12-5.62,143.62c0,0,98.74-103.22,118.94-150.36,0,0,67.33,12.33,84.16,10.1s55,7.85,70.7,125.68,66.22,179.54,68.48,200.88,13.46,44.88-13.47,71.81-71.84,68.44-77.43,76.32-60.6,21.31-60.6,21.31l-57.13-103.7a6.5,6.5,0,0,1,3.11-9.12c9.59-4.14,26.79-11.61,31.57-14,6.73-3.36,49.92-25.78,49.92-25.78s-33.93-46-38.14-94.84c-1.89-21.82-2.76-39-3.13-51.51-.51,41.85-5.86,129.31-40.06,174.39l-18,33.66H1809.06a46.13,46.13,0,0,1,0-13.32C1811.08,901.74,1811.46,817.74,1812.3,809.33Z"/><path class="cls-26" d="M1752.72,1020.62a2,2,0,0,1-.53-.08l-12.18-3.33c-2.85-.78-6.34-4.15-8-23.47-.83-9.65-.8-19.18-.79-20.23L1726.62,919a1.4,1.4,0,0,1,0-.29l2.92-46.95c.11-1,10.34-92.33,13.59-112.64,3.4-21.24,8.55-46.46,21-72.4,12.35-25.75,33.14-77.73,33.35-78.25a2,2,0,0,1,3.72,1.49c-.21.52-21,52.62-33.47,78.49-12.22,25.48-17.3,50.34-20.65,71.3-3.23,20.21-13.45,111.44-13.56,112.36l-2.9,46.7,4.6,54.5c0,.06,0,.12,0,.18-.18,20.72,2.49,39,5.84,39.92l12.18,3.33a2,2,0,0,1-.53,3.93Z"/><path class="cls-26" d="M1805.69,888.84a2,2,0,0,1-1.47-.65c-.65-.7-6.33-8.19-7.15-54s8.44-80,10.92-83.46a2,2,0,0,1,3.27,2.3c-1.69,2.72-11,35.48-10.19,81.09.78,43.3,5.84,51,6.16,51.39a2,2,0,0,1-1.54,3.29Z"/><path class="cls-26" d="M1916.67,663.47a1.93,1.93,0,0,1-.67-.12,2,2,0,0,1-1.32-1.66c-.07-.63-6.89-63.47,5.23-143.19a2,2,0,1,1,3.95.6c-10.25,67.43-6.87,122.62-5.6,137.92,16.59-16.81,96.67-99.49,115.49-146.65a2,2,0,0,1,3.72,1.49c-21.23,53.18-115.4,147.06-119.39,151A2,2,0,0,1,1916.67,663.47Z"/><path class="cls-26" d="M2168.05,997.9a2,2,0,0,1-1.53-3.28c.19-.24,19.94-23.6,57.19-56.51L2225,937c12.87-11.36,28.89-25.49,33.89-42.23,6.22-20.81,1.75-45.43-13.28-73.17-12.45-23-22.17-47.75-31.58-71.72l-3-7.71a2,2,0,0,1,3.72-1.46c1,2.56,2,5.14,3,7.71,9.36,23.85,19,48.51,31.37,71.27,15.56,28.72,20.13,54.36,13.59,76.23-5.33,17.83-21.82,32.38-35.08,44.08l-1.29,1.14c-37,32.69-56.59,55.85-56.78,56.08A2,2,0,0,1,2168.05,997.9Z"/><path class="cls-26" d="M2084.59,815.19a2.31,2.31,0,0,1-.37,0,2,2,0,0,1-1.59-2.34c0-.06,1.17-6.23,3.65-21.55s5.34-72.53,5.37-73.11a2,2,0,0,1,4,.2c-.12,2.36-2.92,58.08-5.42,73.55s-3.66,21.59-3.67,21.65A2,2,0,0,1,2084.59,815.19Z"/><path class="cls-22" d="M1963.64,540.37a32.3,32.3,0,0,1-8.51-1.12c-18.67-5.13-24.89-26.61-25-26.83l1-.27c.06.21,6.14,21.16,24.26,26.14,16.65,4.56,37.9-5.32,63.13-29.38l.69.73C1997.79,530.07,1979.14,540.37,1963.64,540.37Z"/><path class="cls-6" d="M1419.92,1011.42s21,6.24,25.11,7.14c0,0-7.18,29.6-21.92,36.83l-.35.17Z"/><path class="cls-7" d="M1401.8,538.27s5.47-4.18,12.48,2c37.36,32.86,33.76,90,33.25,104.69s12.9,68.18,20,88.25,15.61,32,20.84,66.92,0,104,.58,112.56,7.43,49.87,11,61.21c2.67,8.47-.42,34.22-9.73,38.36s-15.35,9.54-49.6,5.3-25.48-15.6-26-31.42-5.54-29.93-5.69-37-1.51-20.33-1.45-38,1.29-10.82-2.17-27.93-28.3-103.71-19.3-125-24.71-92.8-24.16-98.19-8.13-54.36-8.13-54.36,7.39-23,19.14-39.51,27.32-25.58,29-27.84Z"/><path class="cls-24" d="M1273.46,838.3v65.16l-1.4,65.83-.22,10.06s0,0,0,0l-3.87,181.5H1111.16l15.3-184.64,1.7-20.48.46-5.62.84-10.06h0l3.26-39.36,3.13-37.86,2-24.56Z"/><path class="cls-24" d="M1433,1160.88H1276.14l-3.94-184.79s0,0,0,0l-.14-6.77-1.4-65.83V838.3h135.57l8,96h0l1.11,13.45.12,1.49v0l.73,8.67h0l4.44,53.66.06.66,3.52,42.54Z"/><path class="cls-27" d="M1118.77,465.37s-8.87-55.52,12.8-84,14.77-53,14.77-66.22,3.94-55,22.65-70.3,26.59-48.9,87.65-36.67c0,0,15.76-9.17,56.13-4.08s57.12,58.07,59.09,69.28,5.91,34.63,15.76,45.84,19.69,36.68,12.8,62.15-7.21,30.56,2.3,54,4.59,30.05,4.59,30.05S1292.09,512.75,1118.77,465.37Z"/><polygon class="cls-2" points="1317.2 508.16 1221.06 508.16 1230.85 441.07 1231.51 436.58 1232.88 427.17 1305.38 427.17 1306.92 437.75 1309.75 457.13 1317.2 508.16"/><path class="cls-6" d="M1309.75,457.13c-5.46,7.14-13.53,13.19-24.08,14.21-21.9,2.13-43.26-17.8-54.82-30.27l.66-4.49c1,.39,2.1.79,3.35,1.19,8.87,2.88,22.43,5.87,40.47,5.85,13.07,0,23.05-2.72,30.28-5.85l1.31,0Z"/><ellipse class="cls-2" cx="1265.86" cy="340.69" rx="82" ry="110.93"/><path class="cls-2" d="M1209,360.09c4.23,11.5.56,23.63-8.2,27.09s-19.31-3.07-23.55-14.57-.57-23.62,8.2-27.08S1204.75,348.59,1209,360.09Z"/><path class="cls-2" d="M1333.77,360.1c-4.23,11.5-.55,23.63,8.21,27.08s19.31-3.07,23.54-14.57.56-23.63-8.21-27.08S1338,348.6,1333.77,360.1Z"/><path class="cls-7" d="M1209.27,319a4.42,4.42,0,0,1-4.08-2.8,4.64,4.64,0,0,1,2.35-6c21.3-9.34,37.48-.64,38.16-.27a4.69,4.69,0,0,1,1.83,6.21,4.37,4.37,0,0,1-6,1.9c-.62-.34-13.35-6.94-30.54.61A4.43,4.43,0,0,1,1209.27,319Z"/><path class="cls-7" d="M1288,319a4.41,4.41,0,0,1-4.07-2.8,4.64,4.64,0,0,1,2.34-6c21.3-9.34,37.48-.64,38.16-.27a4.67,4.67,0,0,1,1.83,6.21,4.35,4.35,0,0,1-6,1.9c-.62-.34-13.35-6.94-30.54.61A4.48,4.48,0,0,1,1288,319Z"/><path class="cls-7" d="M1232.88,342.84c0,5.23-3.24,9.47-7.23,9.47s-7.23-4.24-7.23-9.47,3.23-9.46,7.23-9.46S1232.88,337.62,1232.88,342.84Z"/><path class="cls-7" d="M1312.61,342.84c0,5.23-3.24,9.47-7.23,9.47s-7.24-4.24-7.24-9.47,3.24-9.46,7.24-9.46S1312.61,337.62,1312.61,342.84Z"/><path class="cls-27" d="M1256.64,239.72s-48.26,68.92-55.15,104.75-46.29,24.63-50.23,25.65S1174.9,256,1174.9,256l81.74-35.66Z"/><path class="cls-27" d="M1256.64,215.9v23.82a281.84,281.84,0,0,0,40.6,62.65c17.21,19.94,38.69,37.32,59.72,52.75,3.57,2.63,8.81,5.48,12.09,8.41-3-17.43-8.35-34.81-11.64-52.17-3-15.61-4.87-32.21-9.68-47.7C1346.26,261.37,1256.64,215.9,1256.64,215.9Z"/><path class="cls-7" d="M1215.49,461.39s-4.46,8.77-4.46,17.07,7.14,30.45-11.6,31.37-80.21,41.53-96.29,53.52-11.63,37.83-11.63,37.83,33,334.24,38.36,339.77,82.27-74,111-70.58,19.62,9.92,31.22,9,16-10.15,19.62-9.68,15.61,2.76,21.4,6.92,28.1-2.31,43.26,11.53,75.81,60,75.81,60,8-65.51-5.35-85.81,5.35-199.29,0-205.75-9.81-114.41-9.81-114.41-56.41-30.22-74.47-30.91-13.38-44.29-13.38-44.29Z"/><path class="cls-7" d="M1265.84,417.22a37,37,0,0,1-12.76-2.31,1,1,0,0,1,.69-1.88c12.58,4.61,26,1.77,32.61-6.93a1,1,0,0,1,1.59,1.21C1283.09,413.73,1274.84,417.22,1265.84,417.22Z"/><path class="cls-7" d="M1343.48,416.33h-.61a14.28,14.28,0,0,1-12-7.18.76.76,0,0,1,.28-1,.75.75,0,0,1,1,.28,12.82,12.82,0,0,0,10.79,6.43,14,14,0,0,0,12.07-5.95c4-5.85,4.68-14.52,1.49-20.61a11.42,11.42,0,0,0-10.44-6.51.75.75,0,0,1,0-1.5h0a12.87,12.87,0,0,1,11.77,7.31c3.43,6.56,2.77,15.88-1.58,22.17A15.6,15.6,0,0,1,1343.48,416.33Z"/><path class="cls-7" d="M1188,416.33a15.6,15.6,0,0,1-12.76-6.6c-3.79-5.49-4.1-13.13-.78-19.47,3-5.63,8.23-9,14.11-9h0a.75.75,0,0,1,0,1.5c-5.4,0-10,3-12.78,8.19-3.06,5.85-2.79,12.89.69,17.92a14.07,14.07,0,0,0,12.08,5.95,12.82,12.82,0,0,0,10.78-6.43.75.75,0,1,1,1.3.75,14.27,14.27,0,0,1-12,7.18Z"/><path class="cls-7" d="M1266.38,376h-1.2a7.32,7.32,0,0,1-7.2-7.45V346.86a1.2,1.2,0,1,1,2.4,0v20.49a6.11,6.11,0,0,0,6,6.21h0a1.24,1.24,0,0,1,0,2.48Z"/><path class="cls-2" d="M1228.65,922.92l-43.17-26.22,3-8.82c2.15-3.08,4.56-6.65,1.78-9.29a10,10,0,0,0-11.16-1.47l-48.24,24.53-34.12,27.91c22.17,21.85,38.54,23.53,48.52,21,1,.46,2.07.93,3.15,1.35l37,14.27a8,8,0,0,0,9.89-1.92c1.6-2.06,2.58-5.56-4.33-9.75l6.91,4.19a8.32,8.32,0,0,0,10.39-2.13c2.09-2.7.64-6.76-3.33-9.76l5.36,2.62c3.87,2.05,9,.84,11.1-2.82,1.83-3.18.39-7.07-2.94-9.09l-7.62-4.61,8.86,1c4.26,1.92,10.1,2.63,12.19-1.33,1.8-3.42.21-7.47-3.29-9.61Z"/><path class="cls-7" d="M1103.14,563.35S1009,652.52,1000.2,666c-8.28,12.68-13.8,15.74-19.56,20.24s-4,8.17-23.59,40.63c-14.63,24.21-23.38,64.35-13.32,92.11,10.41,28.7,38.13,48.3,63.83,62.29,27.85,15.16,33.17,20.07,55.39,33.59s28,16.1,40.19,29.07c7.24,7.75,24.48,11.44,34.86,14.81,4.58,1.48,10.18-3.64,11.53-8.39l20.14-68.39s-17.41-43-52.24-60.47c-19.87-10-43.08-20.37-54.44-30.39-9.22-8.13,24.14-25.43,31.06-31.39,5.7-4.91,27.73-24.73,31.66-26.08s15.69-57.82,15.69-58.66S1103.14,563.35,1103.14,563.35Z"/><path class="cls-28" d="M1266.9,1097.23h-.05a2,2,0,0,1-1.95-2.06c.13-4.49,3-110.08,5.81-122.38,3.18-14,28.5-40.32,29.58-41.44a2,2,0,1,1,2.87,2.78c-.25.27-25.61,26.65-28.55,39.55-2.71,11.91-5.68,120.51-5.71,121.6A2,2,0,0,1,1266.9,1097.23Z"/><path class="cls-29" d="M1108.47,750.1a2,2,0,0,1-1.24-3.57,151.69,151.69,0,0,0,31.15-33.74c1.53-2.24,3-4.9,4.55-7.7,3.64-6.59,7.41-13.41,13-16.83a2,2,0,0,1,2.1,3.4c-4.65,2.87-8.16,9.22-11.55,15.36-1.6,2.89-3.11,5.62-4.75,8a155.31,155.31,0,0,1-32,34.63A2,2,0,0,1,1108.47,750.1Z"/><path class="cls-29" d="M1169.3,858.19a2,2,0,0,1-1.8-1.13h0c-.06-.12-6.13-12.32-19.39-18-14.36-6.15-18.51-10.2-18.68-10.37a2,2,0,0,1,2.83-2.83s4,3.77,17.42,9.52a45.16,45.16,0,0,1,21.42,19.94,2,2,0,0,1-.94,2.67A1.9,1.9,0,0,1,1169.3,858.19Z"/><path class="cls-29" d="M1417,903.53a1.84,1.84,0,0,1-.47-.06,2,2,0,0,1-1.47-2.42c0-.1,2.43-10.53-.84-29.58l-.7-4.05c-1.78-10.23-1.85-10.63-.69-16,.45-2.13,1.08-5,1.86-10,2.76-17.7-13.27-79.78-13.43-80.4a2,2,0,0,1,3.87-1c.67,2.59,16.4,63.51,13.51,82-.79,5.07-1.43,8.05-1.9,10.22-1,4.61-1,4.61.72,14.47l.7,4.06c3.43,20,.89,30.76.78,31.21A2,2,0,0,1,1417,903.53Z"/></g></g></svg>