<svg xmlns="http://www.w3.org/2000/svg" xmlns:xlink="http://www.w3.org/1999/xlink" viewBox="0 0 2772.57 2771.88"><defs><style>.cls-1{fill:none;}.cls-2{fill:url(#linear-gradient);}.cls-3{fill:#bdd0fb;}.cls-4,.cls-9{fill:#fff;}.cls-4{opacity:0.5;}.cls-5{fill:#91b3fa;}.cls-6{fill:url(#linear-gradient-2);}.cls-7{fill:url(#linear-gradient-3);}.cls-8{fill:url(#linear-gradient-4);}.cls-10{clip-path:url(#clip-path);}.cls-11{fill:url(#linear-gradient-5);}.cls-12{fill:url(#linear-gradient-6);}.cls-13{opacity:0.8;}.cls-14{fill:url(#linear-gradient-7);}.cls-15{fill:url(#linear-gradient-8);}.cls-16{fill:url(#linear-gradient-9);}.cls-17{fill:url(#linear-gradient-10);}.cls-18{fill:url(#linear-gradient-11);}</style><linearGradient id="linear-gradient" x1="3129.16" y1="3585.09" x2="677.48" y2="540.26" gradientUnits="userSpaceOnUse"><stop offset="0" stop-color="#dae3fe"/><stop offset="1" stop-color="#e9effd"/></linearGradient><linearGradient id="linear-gradient-2" x1="2072.44" y1="3389.37" x2="1253.46" y2="648.91" gradientUnits="userSpaceOnUse"><stop offset="0" stop-color="#09005d"/><stop offset="1" stop-color="#1a0f91"/></linearGradient><linearGradient id="linear-gradient-3" x1="1081.96" y1="486.56" x2="2572.93" y2="3605" gradientUnits="userSpaceOnUse"><stop offset="0" stop-color="#febbba"/><stop offset="1" stop-color="#ff928e"/></linearGradient><linearGradient id="linear-gradient-4" x1="1563.28" y1="-634.33" x2="1504.21" y2="94.09" xlink:href="#linear-gradient-2"/><clipPath id="clip-path"><circle class="cls-1" cx="1227.72" cy="786.46" r="296.87"/></clipPath><linearGradient id="linear-gradient-5" x1="1690.45" y1="1857.52" x2="1960.82" y2="2529.51" gradientTransform="translate(862.47 -660.9) rotate(45)" gradientUnits="userSpaceOnUse"><stop offset="0" stop-color="#ff928e"/><stop offset="1" stop-color="#fe7062"/></linearGradient><linearGradient id="linear-gradient-6" x1="960.13" y1="564.72" x2="1673.21" y2="1844.3" gradientTransform="matrix(1, 0, 0, 1, 0, 0)" xlink:href="#linear-gradient-5"/><linearGradient id="linear-gradient-7" x1="1307.79" y1="2030.3" x2="2361.06" y2="2751.1" gradientUnits="userSpaceOnUse"><stop offset="0" stop-color="#e1473d"/><stop offset="1" stop-color="#e9605a"/></linearGradient><linearGradient id="linear-gradient-8" x1="1519.67" y1="904.58" x2="1748.04" y2="1560.82" gradientUnits="userSpaceOnUse"><stop offset="0" stop-color="#4f52ff"/><stop offset="1" stop-color="#4042e2"/></linearGradient><linearGradient id="linear-gradient-9" x1="1935.02" y1="1264.51" x2="4339.47" y2="2020.49" xlink:href="#linear-gradient-8"/><linearGradient id="linear-gradient-10" x1="1929.2" y1="762.06" x2="2157.57" y2="1418.3" xlink:href="#linear-gradient-8"/><linearGradient id="linear-gradient-11" x1="2400.56" y1="883.43" x2="1938.57" y2="1660.41" xlink:href="#linear-gradient-2"/></defs><g id="Layer_2" data-name="Layer 2"><g id="Illustration"><path class="cls-2" d="M2454.68,2384.32c-56.31,59.28-109.59,97.52-151.69,127.72-494.86,355.07-1080.41,251.57-1204.86,226.29-183.77-37.32-539-109.47-795.81-411.48-388.54-456.92-328-1176.78-26.66-1652C330.79,588,622,105.53,1213.85,28.16,1572-18.66,1989.56,75.77,2291.93,329.09,2926.62,860.84,2881.43,1935.05,2454.68,2384.32Z"/><path class="cls-3" d="M759.59,1824.91s8.5-357.53-156.17-453.23S125.63,1216.17,113.9,702.78c-6.87-300.55-14.31-432-19.3-489.26a33.84,33.84,0,0,1,40-36.24c156,29.38,662.62,150.31,768.84,496.12C1029.34,1083.37,759.59,1824.91,759.59,1824.91Z"/><path class="cls-4" d="M255.19,320.12C426.39,472.8,624.35,743,729.86,1013.25c13.55,44.53,53.16,139.24,70.37,307.51,15.36,140.34,7.73,288.63-10.91,386.8a11.44,11.44,0,0,1-13.37,9.1c-10.67-2-9.25-13.5-9.15-13.14,21.28-167.72,12.44-376.47-36.32-564.82C668.19,907.42,529.25,683.19,385.54,493l-14.79-18.73c-111.34-143-134.78-144-124.37-154A6.52,6.52,0,0,1,255.19,320.12Z"/><path class="cls-5" d="M1024.23,2512.31c22.28,10.93-210.93-282.33-284-742.91-34.42-217-34.87-489-158.51-593.76-102.89-87.22-453-32.15-567.6-11.23a17.18,17.18,0,0,0-8,30.06c55,46.14,172.47,155,203.1,264.66,40.36,144.58,177.81,236.54,300.87,261.42s191.5,49,251.45,245.83S960.92,2481.27,1024.23,2512.31Z"/><path class="cls-4" d="M175.27,1225.5c146.17,6.12,303.07,72.8,382.69,197.87l7.52,11.94c17.36,28,115.73,226.92,170.36,391.83a3.92,3.92,0,0,1-2.49,5,4,4,0,0,1-4.91-2.35c-38.06-93.16-92.73-211.28-136.28-299.6-46.69-96.39-79.37-161.66-185.88-224.18-118.55-67.34-231.8-74.27-231.46-74.2a3.14,3.14,0,0,1,.45-6.27Z"/><path class="cls-3" d="M924.26,2550.89c13.22,7-74.48-144-81.21-276.95s-36.73-360-151.4-495.73-240.27-148.16-398.51-24.73C161.27,1856.34,79,1908.25,30.78,1917.9c-12,2.39-18,15.87-12.23,26.58,30.94,57,118.42,187.85,265.29,178.64,187.35-11.75,414.41-133.55,483.61-31.95s60.32,158.45,62.45,206.6S836.76,2504.76,924.26,2550.89Z"/><path class="cls-4" d="M346.3,1916.51c57.4-55,150.87-109.1,232.57-99,106.29,17.12,177.09,88.1,215.71,193.76,15.1,44.87,21.31,68.81,30.24,123.81.71,4.39-5.77,5.7-6.85,1.41-6.49-25.83-12.92-52.87-22.55-80.85-56-180.47-175.61-204.78-180.27-208.47-9,.89-63.85-40.14-193.91,29.84a578.61,578.61,0,0,0-70.12,45l-.12.1a3.64,3.64,0,0,1-4.7-5.53Z"/><path class="cls-6" d="M814.77,215A120.17,120.17,0,0,0,705.12,334.5c-1.08,380.37-2.86,1692.36,21.93,2156.73a93.32,93.32,0,0,0,92.22,88.37c243.66,2.63,944.53,7.45,1342.42-18a157.14,157.14,0,0,0,147.26-157c-.48-399.21-6.86-1521.92-61.54-2035.1a128.25,128.25,0,0,0-117.63-114.29C1864,234.52,1158.34,185.14,814.77,215Z"/><path class="cls-7" d="M802.92,434.18c-4.78,325.37-18.4,1407.75,5.38,1807.23,3.47,58.39,48.83,104.49,104.84,106.44,230.58,8,821.89,23.59,1158.82-13.48,60.67-6.68,107-59.27,108.66-122.94,8.43-332,31.19-1340.15,8.08-1735.17-3.69-63-51.84-113.3-112.19-117.37-249.67-16.82-890.79-55.62-1177.31-31.76C845.41,331.61,803.75,377.85,802.92,434.18Z"/><path class="cls-8" d="M1360.05,271.59a16.87,16.87,0,0,0,16.35,16.52c44.37,1.35,169.36,5.18,225.23,7.19a16.88,16.88,0,0,0,17.1-20.46c-.19-.34-1.62-14.15-15.73-15.13-37.79-2.63-151.8-9.71-227.14-5.37C1360.39,255.24,1359.55,272.83,1360.05,271.59Z"/><circle class="cls-9" cx="1227.72" cy="786.46" r="333.35"/><g class="cls-10"><circle class="cls-11" cx="1229.01" cy="710.64" r="130.1" transform="translate(-142.53 1077.18) rotate(-45)"/><path class="cls-12" d="M1031.4,1101.32h414.48c25.41,0,40.64-32.84,26.95-57.9C1437.63,979,1364,884.24,1236.4,888.52c-123,4.12-195.83,89.67-232.47,151C988.38,1065.59,1004.24,1101.32,1031.4,1101.32Z"/></g><g class="cls-13"><rect class="cls-9" x="1678.68" y="592.24" width="405.03" height="81.16" rx="11.97" transform="translate(9.88 -28.64) rotate(0.87)"/><path class="cls-9" d="M2068.71,842.53l-381-5.82a12,12,0,0,1-11.78-12.15l.87-57.21a12,12,0,0,1,12.15-11.79l381,5.82a12,12,0,0,1,11.79,12.15l-.88,57.22A12,12,0,0,1,2068.71,842.53Z"/><rect class="cls-9" x="1673.61" y="924.69" width="405.03" height="81.16" rx="11.97" transform="translate(14.95 -28.52) rotate(0.87)"/></g><path class="cls-3" d="M1736.29,422.44a3.66,3.66,0,0,1-2.37-3.13c-.35-4.77-.62-9.63-.77-14.44a3.54,3.54,0,0,1,3.52-3.64c4.87-.11,3.55,4.75,4.51,17.66a3.53,3.53,0,0,1-3.36,3.78A3.72,3.72,0,0,1,1736.29,422.44Z"/><path class="cls-3" d="M1734.59,359.9c.9-9.15,2.17-18.37,3.79-27.42a3.57,3.57,0,0,1,4.21-2.84c5.39,1.05,1.88,4.09-.75,31a3.57,3.57,0,0,1-4,3.17A3.67,3.67,0,0,1,1734.59,359.9Zm14.52-71c2.77-8.8,6-17.65,9.34-26,1.81-4.49,8.51-1.57,6.76,2.73-3.37,8.33-6.43,16.88-9.15,25.49a3.65,3.65,0,0,1-7-2.21Zm28.82-66.45c4.51-8,9.41-15.9,14.56-23.51,2.65-3.92,8.72.12,6.08,4-5,7.46-9.84,15.21-14.26,23C1782,230.1,1775.61,226.54,1777.93,222.43Zm42.53-54a3.53,3.53,0,0,1-.39-5c6.1-6.89,12.56-13.63,19.21-20,3.41-3.29,8.54,1.86,5.13,5.14-6.51,6.27-12.84,12.87-18.82,19.62A3.66,3.66,0,0,1,1820.46,168.41Zm52.61-49.2a3.53,3.53,0,0,1,.67-5c7.42-5.51,15.16-10.79,23-15.7,4-2.51,8,3.53,4,6.06-7.68,4.81-15.27,10-22.54,15.37A3.71,3.71,0,0,1,1873.07,119.21Zm63.85-35.71a3.65,3.65,0,0,1-2-1.82,3.51,3.51,0,0,1,1.68-4.76c8.43-3.89,17.12-7.51,25.82-10.74a3.72,3.72,0,0,1,4.72,2.09,3.52,3.52,0,0,1-2.06,4.61c-8.53,3.16-17,6.71-25.3,10.53A3.67,3.67,0,0,1,1936.92,83.5Zm68.7-23.63a3.67,3.67,0,0,1-2.27-2.51,3.53,3.53,0,0,1,2.64-4.31c9.07-2.12,18.34-3.91,27.56-5.32a3.69,3.69,0,0,1,4.21,3,3.53,3.53,0,0,1-3,4.08c-9,1.39-18.12,3.15-27,5.23A3.73,3.73,0,0,1,2005.62,59.87Zm70-12.55a3.54,3.54,0,0,1,3.49-3.67c9.34-.25,18.82-.13,28.19.35,4.82.26,4.53,7.39-.27,7.14-9.17-.47-18.46-.58-27.62-.34A3.68,3.68,0,0,1,2075.61,47.32ZM2308.77,125c-21.8-16.65-26.7-16.38-23.71-20.89a3.65,3.65,0,0,1,5-1c7.87,5.1,15.64,10.57,23.09,16.26C2317,122.33,2312.61,128,2308.77,125Zm-160.1-73a3.57,3.57,0,0,1,4.18-2.89c9.23,1.64,18.52,3.66,27.61,6,4.68,1.2,2.93,8.12-1.74,6.92-8.91-2.29-18-4.27-27-5.88A3.63,3.63,0,0,1,2148.67,52.08Zm98.28,35c-24.67-11.93-29.48-10.7-27.49-15.75,1.26-3.2,5.14-2,4.7-2,8.77,3.44,17.49,7.25,25.92,11.32a3.57,3.57,0,1,1-3.13,6.42Z"/><path class="cls-3" d="M2352.85,164.91c-8.36-8.93-13.54-12-10.07-15.36a3.67,3.67,0,0,1,5.15,0c9,8.89,13.54,12.43,10.07,15.56A4.17,4.17,0,0,1,2352.85,164.91Z"/><path class="cls-3" d="M2450.19,425.64a3.66,3.66,0,0,1-2.37-3.58c.26-4.7.41-9.46.47-14.14a3.54,3.54,0,0,1,3.68-3.48,3.68,3.68,0,0,1,3.6,3.67c-.06,4.78-.22,9.64-.48,14.44a3.63,3.63,0,0,1-4.9,3.09Z"/><path class="cls-3" d="M1959.38,726.07c-9.36-3.83-18.67-8.1-27.68-12.68a3.57,3.57,0,0,1-1.61-4.82c2.54-4.94,4.6-.31,32,10.9a3.59,3.59,0,0,1,2,4.68C1962.81,727.33,1958.94,726.08,1959.38,726.07Zm44.25,11.28c1.38-5.37,4.57-1.27,33.53,3.86a3.63,3.63,0,0,1,3,4.15,3.57,3.57,0,0,1-4.18,2.89c-9.91-1.75-19.91-4-29.71-6.52A3.64,3.64,0,0,1,2003.63,737.35Zm-114.37-49.27c-8.29-5.74-16.45-11.91-24.25-18.32a3.54,3.54,0,0,1-.5-5c3.6-4.25,4.57.7,28.88,17.53a3.56,3.56,0,0,1,.93,5A3.67,3.67,0,0,1,1889.26,688.08Zm194.62,65.25a3.64,3.64,0,0,1-2.37-3.48,3.54,3.54,0,0,1,3.73-3.43c9.89.4,19.89.39,29.73,0a3.68,3.68,0,0,1,3.85,3.41,3.53,3.53,0,0,1-3.42,3.73c-10.05.43-20.26.44-30.35,0A3.81,3.81,0,0,1,2083.88,753.33Zm78.41-5.39a3.69,3.69,0,0,1-2.31-2.7,3.52,3.52,0,0,1,2.86-4.16c9.68-1.74,19.4-3.91,28.9-6.46a3.71,3.71,0,0,1,4.5,2.52,3.51,3.51,0,0,1-2.49,4.39c-9.69,2.6-19.61,4.81-29.49,6.59A3.74,3.74,0,0,1,2162.29,747.94Zm75.06-22.2a3.65,3.65,0,0,1-2.07-1.94,3.51,3.51,0,0,1,1.86-4.69c9-3.78,18-8,26.68-12.52a3.71,3.71,0,0,1,4.94,1.5,3.51,3.51,0,0,1-1.46,4.83c-8.85,4.62-18,8.92-27.22,12.78A3.64,3.64,0,0,1,2237.35,725.74Zm68.1-37.82a3.72,3.72,0,0,1-1.67-1.26,3.52,3.52,0,0,1,.78-5c7.94-5.64,15.74-11.68,23.18-18a3.68,3.68,0,0,1,5.13.41,3.52,3.52,0,0,1-.34,5c-7.58,6.42-15.54,12.59-23.66,18.35A3.68,3.68,0,0,1,2305.45,687.92Zm56.74-52.32c-4.27-3.7.76-4.44,18.17-27.65,2.83-3.78,8.72.52,5.88,4.3-5.94,7.92-12.3,15.68-18.91,23.07A3.67,3.67,0,0,1,2362.19,635.6ZM2407.57,573c-5-2.7-.29-4.48,11.45-31,1.9-4.3,8.59-1.39,6.68,2.93-4,9.05-8.45,18-13.21,26.66A3.62,3.62,0,0,1,2407.57,573Zm29.81-71.16a3.61,3.61,0,0,1-2.24-4.35c2.67-9.35,5-18.89,6.82-28.36a3.59,3.59,0,0,1,4.27-2.77,3.64,3.64,0,0,1,2.88,4.23c-1.89,9.66-4.23,19.39-7,28.93a3.6,3.6,0,0,1-4.49,2.42Z"/><path class="cls-3" d="M1829,635.79c-8.61-9.29-13-13-9.33-16s5.87,1.7,14.68,11.22a3.53,3.53,0,0,1-.21,5.05A3.69,3.69,0,0,1,1829,635.79Z"/><path class="cls-5" d="M1868.78,545.36,1920.5,539a231.65,231.65,0,0,0,56.09,47.86c2,49.87-1.37,53.51,4,55.29L2040.16,662a4.29,4.29,0,0,0,4.75-1.41L2076.3,620a231.15,231.15,0,0,0,73.49-4.69l37.63,36.17a4.38,4.38,0,0,0,4.92.79l55.8-27.19a4.12,4.12,0,0,0,2.3-4.31l-7.3-50.94A219.71,219.71,0,0,0,2291,515.44l52.2-.19a4.22,4.22,0,0,0,4-2.86l19.3-58.3a4.23,4.23,0,0,0-1.5-4.7l-41.71-31.47a220.77,220.77,0,0,0-5.88-72.31c34.63-36.34,39.49-36.37,37-41.28-28.9-53.72-27.26-58.29-32.92-57.59l-51.73,6.4a231.15,231.15,0,0,0-56.08-47.85c-2-49.85,1.37-53.52-4-55.3-59.56-18.71-61-22.81-64.36-18.45l-31.39,40.53a230.58,230.58,0,0,0-73.49,4.69c-37-34.17-37.53-39.42-42.56-37-54.74,27.87-58.88,26-58.09,31.49l7.3,51a219.7,219.7,0,0,0-47.85,54.41c-49.82,1.21-54.43-2.27-56.19,3.06-18.06,58-22.31,59.58-17.8,63l41.71,31.47a220.58,220.58,0,0,0,5.88,72.32c-34.51,36.21-39.5,36.34-37,41.28C1864.76,541.49,1863.12,546.06,1868.78,545.36Z"/><path class="cls-9" d="M2034.14,391.19c2.22-33,31.37-57.68,65-55s59.15,31.71,56.94,64.72-31.37,57.67-65,55h0C2057.46,453.23,2031.92,424.18,2034.14,391.19Zm57.3,59.37h0Zm7-103.67c-27.29-2.18-51.53,17.65-53.37,45.16-1.83,27.11,19.15,51,46.76,53.16s51.55-18.06,53.37-45.17S2126,349.08,2098.41,346.89Z"/><path class="cls-9" d="M2041.92,539h0a162.09,162.09,0,0,1-24.41-11.63,5.39,5.39,0,0,1-2.38-6.53,4.86,4.86,0,0,1,.4-.83,5.46,5.46,0,0,1,7.46-1.84A151.19,151.19,0,0,0,2051.34,531h0c74.55,24.84,154.69-12.68,181.58-83.89q1-2.73,2-5.52c24.9-75.23-17.43-156.34-93.75-181.79s-158.66,14.4-183.54,89.42c-14.78,44.66-1.86,74.63-3.6,79.22-1.87,5-9.22,4.39-10.44-.8a151,151,0,0,1,5.76-87.82c47.11-124.71,224.58-132.31,286.43-12.38,19,36.91,22.42,78.68,9.52,117.61-.66,2-1.37,4-2.11,6a150.6,150.6,0,0,1-75.66,82.54A157.61,157.61,0,0,1,2048,541.13C2046,540.45,2043.93,539.74,2041.92,539Z"/><path class="cls-5" d="M2477.92,280a127.21,127.21,0,0,0,33.1,24.36l2.64,29c.29,3.21,3,1.77,35.73,10.45,3,.74,2.5-2,18.36-25.47a126.81,126.81,0,0,0,40.63-6.21l22.37,18.64c2.48,2.07,3.34-.84,32.65-17.87a2.41,2.41,0,0,0,1.1-2.55l-6.13-28.47a127,127,0,0,0,24.36-33.1c27.64-3.1,30.32-1.36,31.08-4.45,7.68-33.72,10-34.79,7.32-36.49L2696.69,192a126.75,126.75,0,0,0-6.21-40.62l18.64-22.37c2.06-2.48-.84-3.35-17.87-32.65-1.61-2.66-3.07-.39-31,5a126.79,126.79,0,0,0-33.1-24.35l-2.64-29c-.29-3.22-2.95-1.78-35.72-10.45-3-.75-2.43,1.87-18.37,25.47a126.75,126.75,0,0,0-40.62,6.21l-22.37-18.64a2.38,2.38,0,0,0-2.77-.21l-29.88,18.08a2.37,2.37,0,0,0-1.1,2.55l6.12,28.46a127,127,0,0,0-24.35,33.1c-27.64,3.1-30.33,1.37-31.09,4.45-7.67,33.72-10,34.79-7.32,36.5l24.45,15.78a126.81,126.81,0,0,0,6.21,40.63c-17.36,21.73-20.5,22.41-18.85,25.14L2446.91,285C2448.52,287.71,2450.11,285.39,2477.92,280Z"/><path class="cls-9" d="M2532.63,190.94a36.45,36.45,0,1,1,36.66,36.22h0A36.49,36.49,0,0,1,2532.63,190.94Zm36.63,30.79h0Zm-25.76-30.86a25.61,25.61,0,0,0,25.73,25.43h0c22.65-.14,34-27.8,17.83-43.78S2543.36,168.07,2543.5,190.87Z"/><path class="cls-3" d="M2390.46,258c-1.73-4.58-3.29-9.29-4.66-14a3.61,3.61,0,0,1,2.46-4.48c4.84-1.41,4.53,4.12,9,15.93a3.62,3.62,0,1,1-6.78,2.56Z"/><path class="cls-3" d="M2378.32,196.19a193.65,193.65,0,0,1,1.46-29.79c.6-4.76,7.78-3.82,7.18.92-3.34,26.22,1.14,32.22-4.92,32.39A3.63,3.63,0,0,1,2378.32,196.19ZM2394,124.26a3.63,3.63,0,0,1-2-4.71,191.47,191.47,0,0,1,13.27-26.72c2.46-4.11,8.67-.4,6.22,3.72a183.51,183.51,0,0,0-12.77,25.7A3.68,3.68,0,0,1,2394,124.26Zm42.41-63.51a3.5,3.5,0,0,1-1.29-.85,3.62,3.62,0,0,1,0-5.12,191.78,191.78,0,0,1,22.8-19.22,3.62,3.62,0,1,1,4.22,5.88,184.24,184.24,0,0,0-21.93,18.5A3.65,3.65,0,0,1,2436.36,60.75Zm64.12-41.43a3.62,3.62,0,0,1,0-6.77,189.65,189.65,0,0,1,28.59-8.5,3.62,3.62,0,1,1,1.51,7.08,181.71,181.71,0,0,0-27.5,8.18A3.64,3.64,0,0,1,2500.48,19.32Zm73-15.85A3.63,3.63,0,0,1,2577.26,0a191.84,191.84,0,0,1,29.62,3.57c4.68.92,3.28,8-1.43,7.1A184.72,184.72,0,0,0,2577,7.24,3.62,3.62,0,0,1,2573.49,3.47Z"/><path class="cls-3" d="M2662.21,32.4c-11.44-6.74-16.31-7.18-14.16-11.57a3.59,3.59,0,0,1,4.85-1.66c4.38,2.14,8.75,4.49,13,7a3.62,3.62,0,1,1-3.68,6.24Z"/><path class="cls-3" d="M2749.14,154.47c-2.62-13.08-5.53-16.95-.82-18.27a3.62,3.62,0,0,1,4.47,2.5c1.32,4.69,2.49,9.52,3.45,14.34a3.62,3.62,0,1,1-7.1,1.43Z"/><path class="cls-3" d="M2519.28,371.26c1.48-5.83,6.17-.27,32.21,2.21,4.76.44,4.1,7.66-.68,7.21a191.66,191.66,0,0,1-28.91-5A3.62,3.62,0,0,1,2519.28,371.26Zm75,5a3.62,3.62,0,0,1,3-4.13c26.07-4,30.19-9.83,32-4.08a3.63,3.63,0,0,1-2.35,4.55,189.93,189.93,0,0,1-28.57,6.69A3.62,3.62,0,0,1,2594.24,376.28Zm70.89-24.79c-3.19-5.11,4-4.6,23.87-21.73,3.62-3.13,8.36,2.35,4.73,5.48a191.66,191.66,0,0,1-23.61,17.4A3.62,3.62,0,0,1,2665.13,351.49Zm55.45-50.67c-4.95-3.47,1.9-5.81,13.45-29.35,2.11-4.3,8.62-1.12,6.51,3.19a191.45,191.45,0,0,1-14.92,25.26A3.62,3.62,0,0,1,2720.58,300.82Zm28.31-72.66c5.35-25.81,1.34-31.74,7.38-31.43a3.62,3.62,0,0,1,3.44,3.8,191.58,191.58,0,0,1-3.73,29.1,3.62,3.62,0,1,1-7.09-1.47Z"/><path class="cls-3" d="M2477.45,358.14c-4.3-2.36-8.56-4.92-12.65-7.59a3.62,3.62,0,0,1-1.05-5c2.75-4.21,6.1.18,17.18,6.26a3.62,3.62,0,1,1-3.48,6.35Z"/><path class="cls-9" d="M2530.48,271a5.43,5.43,0,1,1,4.56-9.86,79,79,0,0,0,75.45-3.39c59.82-36.19,46-127.3-22-144a79,79,0,0,0-92.59,48.66c-14,37,6,54.37-5.23,57.83a5.43,5.43,0,0,1-6.79-3.6,89.73,89.73,0,1,1,64.33,60.78h0A89.79,89.79,0,0,1,2530.48,271Z"/><rect class="cls-14" x="1292.64" y="2095.06" width="463.9" height="167.21" rx="24.66"/><g class="cls-13"><rect class="cls-9" x="1093.36" y="1397.55" width="962.43" height="92.06" rx="13.52"/><circle class="cls-9" cx="969.91" cy="1443.3" r="55.81"/><rect class="cls-9" x="1093.36" y="1570.31" width="962.43" height="92.06" rx="13.52"/><circle class="cls-9" cx="969.91" cy="1616.06" r="55.81" transform="matrix(0.92, -0.38, 0.38, 0.92, -544.61, 494.18)"/><rect class="cls-9" x="1093.36" y="1743.06" width="962.43" height="92.06" rx="13.52"/><circle class="cls-9" cx="969.91" cy="1788.81" r="55.81"/><rect class="cls-9" x="1093.36" y="1915.82" width="962.43" height="92.06" rx="13.52"/><circle class="cls-9" cx="969.91" cy="1961.57" r="55.81" transform="translate(-676.83 520.48) rotate(-22.5)"/></g><path class="cls-9" d="M661,591.41l-18.74,14.47,0,0a3.05,3.05,0,0,1-3.73-4.83l0,0,19.1-14.19a2.83,2.83,0,0,1,3.42,4.52Z"/><path class="cls-9" d="M595.63,644.66q-17.76,15.52-34.92,31.71a4,4,0,0,1-5.52-5.88l0,0q17.52-16,35.69-31.27a3.61,3.61,0,0,1,4.7,5.48Z"/><path class="cls-9" d="M517.51,718.9q-16.39,16.94-32.17,34.45a4.78,4.78,0,1,1-7.1-6.39l.05,0q16.13-17.43,32.88-34.26a4.45,4.45,0,0,1,6.34,6.24Z"/><path class="cls-9" d="M445.9,799.34q-14.91,18.24-29.11,37a5.51,5.51,0,1,1-8.8-6.64l0-.06q14.6-18.76,29.87-37a5.2,5.2,0,0,1,8,6.63Z"/><path class="cls-9" d="M381.5,885.57Q368.27,905,355.81,925a6.26,6.26,0,1,1-10.62-6.62l.05-.07q12.86-20,26.5-39.48a5.93,5.93,0,0,1,9.76,6.74Z"/><path class="cls-9" d="M325.09,977.11q-11.43,20.55-22,41.56a6.81,6.81,0,0,1-12.16-6.13l0,0q10.89-21.16,22.64-41.86a6.6,6.6,0,0,1,11.51,6.48Z"/><path class="cls-9" d="M277.38,1073.37q-9.42,21.54-17.88,43.47a7.26,7.26,0,0,1-13.55-5.23l0-.06q8.78-22.14,18.49-43.88a7.06,7.06,0,0,1,12.92,5.7Z"/><path class="cls-9" d="M239.32,1173.78q-7.23,22.35-13.46,45a7.71,7.71,0,0,1-14.87-4.09l0-.06q6.51-22.92,14-45.53a7.51,7.51,0,0,1,14.28,4.68Z"/><path class="cls-9" d="M211.51,1277.43q-4.94,23-8.85,46.11a8.16,8.16,0,1,1-16.1-2.72v-.07q4.17-23.48,9.38-46.73a8,8,0,0,1,15.56,3.41Z"/><path class="cls-9" d="M194.7,1383.3q-2.44,23.39-4.06,46.84a8.62,8.62,0,1,1-17.2-1.2v-.07q1.86-23.73,4.51-47.38a8.42,8.42,0,0,1,16.74,1.81Z"/><path class="cls-9" d="M187.67,1490.54c-.47,15.67-.63,31.34-.65,47a9,9,0,1,1-18.08,0h0c0-15.87.41-31.73,1-47.58a8.87,8.87,0,0,1,17.74.59Z"/><path class="cls-9" d="M188.28,1598q1,23.48,2.75,46.91a9.19,9.19,0,0,1-18.32,1.4v0q-1.74-23.74-2.66-47.54a9.13,9.13,0,0,1,18.24-.74Z"/><path class="cls-9" d="M197,1705q2.87,23.31,6.63,46.47a9.34,9.34,0,0,1-18.44,3v0q-3.76-23.55-6.61-47.21A9.28,9.28,0,0,1,197,1705Z"/><path class="cls-9" d="M214.9,1810.73q5,22.9,11,45.55a9.49,9.49,0,1,1-18.34,4.9v0q-6.09-23.09-11.12-46.42a9.42,9.42,0,0,1,18.42-4Z"/><path class="cls-9" d="M243.3,1913.94q7.47,22.18,16.1,43.93a9.64,9.64,0,0,1-17.92,7.13v0q-8.78-22.24-16.33-44.94a9.58,9.58,0,0,1,18.16-6.09Z"/><path class="cls-9" d="M283.66,2012.84q10.24,21,21.78,41.3a9.79,9.79,0,0,1-17,9.68l0,0q-11.79-20.88-22.23-42.46a9.72,9.72,0,0,1,17.49-8.5Z"/><path class="cls-9" d="M337.29,2104.94q13.24,19.18,27.81,37.38a9.94,9.94,0,1,1-15.51,12.43l0,0q-15-18.78-28.55-38.6a9.87,9.87,0,0,1,16.27-11.19Z"/><path class="cls-9" d="M404.71,2187.18q16.23,16.7,33.69,32.1a10.09,10.09,0,1,1-13.35,15.13l0,0q-18-16-34.71-33.25a10,10,0,0,1,14.39-14Z"/><path class="cls-9" d="M485.13,2256.62q9.42,6.84,19.08,13.32c6.43,4.36,13.05,8.41,19.58,12.61l.3.19a10.08,10.08,0,0,1-10.87,17c-6.75-4.31-13.6-8.47-20.25-12.94s-13.26-9-19.76-13.68a10.17,10.17,0,0,1,11.89-16.5Z"/><path class="cls-9" d="M576.15,2311.49q20.91,10.28,42.54,19a9.87,9.87,0,0,1-7.32,18.34q-22.33-8.87-44-19.38a10,10,0,0,1,8.72-17.92Z"/><path class="cls-9" d="M675.26,2350.08q22.35,6.61,45.15,11.64a9.67,9.67,0,0,1-4.14,18.9q-23.44-5.09-46.51-11.81a9.76,9.76,0,1,1,5.47-18.74Z"/><path class="cls-9" d="M779.49,2372.13q23.16,3.09,46.48,4.72a9.47,9.47,0,0,1-1.3,18.9q-23.88-1.61-47.67-4.66a9.56,9.56,0,1,1,2.46-19Z"/><path class="cls-9" d="M886.06,2378.86q23.41-.08,46.8-1.39a9.27,9.27,0,0,1,1.07,18.5q-23.85,1.43-47.78,1.6a9.36,9.36,0,0,1-.12-18.71Z"/><path class="cls-9" d="M992.88,2372.2q23.28-2.76,46.43-6.58a9.06,9.06,0,0,1,3,17.88q-23.52,4-47.22,6.88a9.15,9.15,0,0,1-2.23-18.17Z"/><path class="cls-9" d="M1098.6,2354.37q23-5,45.72-10.8a8.53,8.53,0,0,1,4.33,16.5q-23,6.18-46.24,11.47a8.79,8.79,0,1,1-3.9-17.15Z"/><path class="cls-9" d="M1202.5,2327.19q22.49-6.89,44.73-14.54a7.92,7.92,0,0,1,5.24,14.94q-22.41,8-45.09,15.23a8.19,8.19,0,0,1-5-15.6Z"/><path class="cls-9" d="M1304,2291.76q21.91-8.58,43.55-17.87a7.3,7.3,0,0,1,5.84,13.39q-21.74,9.61-43.78,18.55a7.57,7.57,0,0,1-5.69-14Z"/><path class="cls-9" d="M1402.67,2248.86q21.24-10.18,42.13-21.07a6.69,6.69,0,0,1,6.22,11.84c-14,7.44-28,14.73-42.25,21.74a7,7,0,0,1-6.17-12.47Z"/><path class="cls-9" d="M1497.75,2198.58q20.3-11.88,40.1-24.62a5.83,5.83,0,0,1,6.4,9.75q-19.77,13.23-40.09,25.61a6.25,6.25,0,1,1-6.51-10.68Z"/><path class="cls-9" d="M1587.86,2139.86q19.1-13.79,37.61-28.36a4.86,4.86,0,0,1,6.08,7.59q-18.4,15-37.43,29.28a5.29,5.29,0,1,1-6.34-8.46Z"/><path class="cls-9" d="M1672.09,2072.81c11.83-10.34,23.42-21,34.87-31.74a3.85,3.85,0,0,1,5.35,5.55c-11.23,11.14-22.77,22-34.48,32.63a4.32,4.32,0,0,1-5.81-6.39Z"/><path class="cls-9" d="M1750,1998.34l16.22-17.25,0,0a2.83,2.83,0,0,1,4.17,3.83l-15.87,17.72a3.12,3.12,0,1,1-4.65-4.16l0,0Z"/><rect class="cls-9" x="916.29" y="1217.62" width="757.68" height="92.06" rx="12"/><polygon class="cls-15" points="1690.07 1708.33 1835.79 1919.62 1916.25 1730.09 1690.07 1708.33"/><path class="cls-16" d="M2556.59,931.78l-225.44,894a65,65,0,0,1-81.23,46.46l-889.11-260.16a26,26,0,0,1-4.82-48Z"/><polygon class="cls-17" points="1690.16 1708.31 2556.59 931.78 1833.52 1750.73 1871.43 1811.05 1690.16 1708.31"/><polygon class="cls-18" points="1918.7 1775.25 1835.79 1919.62 1833.52 1750.73 1918.7 1775.25"/></g></g></svg>